<svg width="250" height="249" viewBox="0 0 250 249" fill="none" xmlns="http://www.w3.org/2000/svg">
<g filter="url(#filter0_d_188_202)">
<path d="M51.1002 224.128C91.9252 246.448 158.1 246.448 198.93 224.128C239.76 201.808 239.75 165.669 198.93 143.369C158.11 121.069 91.9302 121.049 51.1002 143.369C10.2702 165.689 10.2802 201.827 51.1002 224.128Z" fill="#F5F5F5"/>
<path d="M42.7701 208.4L45.8301 210.15C46.2993 210.388 46.8185 210.512 47.3451 210.512C47.8718 210.512 48.391 210.388 48.8601 210.15L139.255 158.378C140.095 157.882 140.095 157.123 139.255 156.642L136.195 154.886C135.725 154.652 135.206 154.529 134.68 154.529C134.154 154.529 133.635 154.652 133.165 154.886L42.7701 206.664C41.9301 207.14 41.9301 207.918 42.7701 208.4Z" fill="#E0E0E0"/>
<path d="M175.535 193.683C184.38 198.266 198.72 198.271 207.565 193.683C216.41 189.095 216.405 181.67 207.565 177.087C198.725 172.504 184.38 172.504 175.535 177.087C166.69 181.67 166.69 189.1 175.535 193.683Z" fill="#E0E0E0"/>
<path d="M164.675 184.433C167.335 185.812 171.65 185.812 174.31 184.433C176.97 183.054 176.97 180.822 174.31 179.443C171.65 178.064 167.335 178.064 164.675 179.443C162.015 180.822 162 183.054 164.675 184.433Z" fill="#E0E0E0"/>
<path d="M46.5002 185.073C46.6202 180.668 45.3852 173.283 41.0002 165.912C36.3202 158.021 30.1402 152.738 24.9502 154.345C20.1102 155.833 21.1752 162.351 28.4502 169.444C33.5552 174.404 38.7202 180.733 41.0802 187.945L45.1702 197.24L46.5002 185.073Z" fill="#687CBB"/>
<path d="M46.5002 185.073C46.6202 180.668 45.3852 173.283 41.0002 165.912C36.3202 158.021 30.1402 152.738 24.9502 154.345C20.1102 155.833 21.1752 162.351 28.4502 169.444C33.5552 174.404 38.7202 180.733 41.0802 187.945L45.1702 197.24L46.5002 185.073Z" fill="#37474F"/>
<path d="M45.7054 188.356C45.6415 188.348 45.5815 188.321 45.5333 188.278C45.4851 188.236 45.451 188.18 45.4354 188.118C42.3204 175.539 34.4354 162.326 27.0704 157.331C27.0018 157.285 26.9544 157.214 26.9385 157.133C26.9225 157.052 26.9394 156.968 26.9854 156.9C27.033 156.831 27.1058 156.784 27.1881 156.768C27.2703 156.753 27.3555 156.77 27.4254 156.815C34.8954 161.865 42.9004 175.257 46.0454 187.984C46.0651 188.064 46.0519 188.149 46.0088 188.22C45.9657 188.29 45.8962 188.341 45.8154 188.361C45.7787 188.364 45.7417 188.363 45.7054 188.356Z" fill="white"/>
<path d="M46.5602 199.338C44.108 201.493 41.1289 202.972 37.9202 203.628C32.3902 204.833 29.7652 202.329 29.7652 202.329C29.7652 202.329 31.6502 197.002 34.7352 195.36C34.7352 195.36 29.4252 196.763 25.2802 199.873C25.2802 199.873 21.8702 200.126 20.2052 195.047C20.2052 195.047 22.0352 191.818 28.7052 189.74C28.7052 189.74 24.5202 188.951 18.6652 190.807C18.2302 191.01 15.9302 184.448 15.1652 181.383C14.4002 178.317 15.6652 178.292 18.0352 177.509C20.4052 176.725 28.6352 175.832 30.2302 177.062C31.8252 178.292 32.8652 182.766 32.8652 182.766C32.8652 182.766 34.1652 180.123 33.6802 177.866C35.3399 177.287 37.138 177.223 38.8352 177.682C41.6102 178.461 41.5202 179.785 41.6352 181.75C41.765 183.725 41.6101 185.71 41.1752 187.642C41.1752 187.642 42.9552 185.921 42.6752 179.974C42.6752 179.974 46.5352 182.875 48.1752 185.47C49.8152 188.064 49.8652 195.122 46.5602 199.338Z" fill="#455A64"/>
<path d="M46.5802 199.645C46.5208 199.65 46.4612 199.638 46.4087 199.61C46.3563 199.581 46.3134 199.539 46.2852 199.486C41.2202 190.464 23.8152 180.663 17.7402 179.86C17.6992 179.854 17.6596 179.841 17.6238 179.82C17.588 179.799 17.5566 179.772 17.5316 179.739C17.5065 179.706 17.4882 179.669 17.4776 179.629C17.4671 179.59 17.4646 179.548 17.4702 179.507C17.4826 179.426 17.5266 179.352 17.5929 179.302C17.6592 179.252 17.7425 179.23 17.8252 179.24C24.0002 180.048 41.6902 190.018 46.8352 199.184C46.8554 199.219 46.8681 199.259 46.8727 199.3C46.8773 199.34 46.8737 199.381 46.862 199.421C46.8504 199.46 46.831 199.496 46.8049 199.528C46.7788 199.56 46.7466 199.586 46.7102 199.605C46.6714 199.63 46.6264 199.644 46.5802 199.645Z" fill="white"/>
<path d="M200.5 171.522C200.5 171.522 201.195 165.476 204.225 160.788C207.255 156.101 211.42 153.17 215.305 152.852C219.19 152.535 222.305 156.091 218.17 158.527C214.035 160.962 206.625 163.447 203.23 172.554L200.5 171.522Z" fill="#687CBB"/>
<path opacity="0.1" d="M200.5 171.522C200.5 171.522 201.195 165.476 204.225 160.788C207.255 156.101 211.42 153.17 215.305 152.852C219.19 152.535 222.305 156.091 218.17 158.527C214.035 160.962 206.625 163.447 203.23 172.554L200.5 171.522Z" fill="black"/>
<path d="M201.645 169.949H201.605C201.554 169.928 201.514 169.889 201.492 169.839C201.471 169.789 201.47 169.732 201.49 169.682C205.59 159.667 213.395 155.481 216.95 154.673C216.976 154.666 217.004 154.665 217.031 154.669C217.058 154.673 217.084 154.683 217.108 154.697C217.131 154.711 217.151 154.73 217.167 154.752C217.183 154.775 217.194 154.8 217.2 154.826C217.212 154.88 217.202 154.937 217.172 154.983C217.142 155.03 217.094 155.062 217.04 155.074C213.54 155.868 205.91 159.975 201.875 169.835C201.855 169.878 201.822 169.912 201.78 169.933C201.738 169.953 201.691 169.959 201.645 169.949Z" fill="white"/>
<path d="M222.4 170.068C222.045 170.857 221.18 171.264 220.375 171.586C219.57 171.909 218.695 172.256 218.26 173C217.385 174.488 218.825 176.616 217.88 178.074C217.661 178.367 217.384 178.612 217.065 178.796C216.747 178.979 216.395 179.096 216.03 179.14C215.427 179.227 214.819 179.282 214.21 179.304C213.92 179.299 213.631 179.275 213.345 179.234C212.505 179.049 211.626 179.143 210.845 179.502C209.64 180.172 209.27 181.68 208.54 182.84C208.088 183.527 207.491 184.108 206.791 184.544C206.091 184.98 205.305 185.26 204.485 185.365C203.945 185.434 202.935 185.534 202.385 185.226L202.27 185.157C202.196 185.076 202.126 184.992 202.06 184.904C202.057 184.892 202.057 184.88 202.06 184.869C201.845 184.09 202.195 183.282 202.21 182.473C202.212 182.425 202.212 182.377 202.21 182.33C202.18 181.392 202.15 180.465 202.13 179.532C202.085 177.816 202.065 176.095 202.08 174.374C202.08 173.258 201.955 172.038 202.43 170.986C202.96 169.83 204.27 169.806 204.765 168.67C204.96 168.218 205.07 167.732 205.265 167.276C205.56 166.604 206.036 166.027 206.642 165.608C207.247 165.188 207.958 164.943 208.695 164.9C210.985 164.781 213.04 166.621 215.325 166.453C215.914 166.374 216.498 166.263 217.075 166.12C218.93 165.778 221.075 166.304 222.115 167.856C222.34 168.174 222.483 168.542 222.533 168.927C222.582 169.313 222.537 169.704 222.4 170.068Z" fill="#687CBB"/>
<path d="M201.835 181.283C201.785 181.269 201.743 181.236 201.718 181.192C201.693 181.147 201.686 181.094 201.7 181.045C204.86 169.275 217.36 167.574 220.285 167.782C220.336 167.788 220.382 167.813 220.416 167.852C220.449 167.89 220.467 167.94 220.465 167.99C220.463 168.016 220.456 168.041 220.445 168.063C220.433 168.086 220.417 168.106 220.397 168.123C220.378 168.14 220.355 168.152 220.331 168.16C220.306 168.168 220.281 168.171 220.255 168.169C217.395 167.966 205.17 169.632 202.075 181.144C202.069 181.169 202.058 181.193 202.043 181.214C202.028 181.235 202.008 181.252 201.985 181.265C201.963 181.278 201.938 181.287 201.912 181.29C201.886 181.293 201.86 181.291 201.835 181.283Z" fill="white"/>
<path d="M215.725 175.321C215.685 175.315 215.648 175.296 215.62 175.266C214.466 174.275 213.106 173.549 211.637 173.138C210.168 172.728 208.626 172.643 207.12 172.891C207.069 172.898 207.017 172.885 206.976 172.854C206.935 172.823 206.907 172.778 206.9 172.727C206.893 172.676 206.906 172.625 206.937 172.584C206.968 172.543 207.014 172.516 207.065 172.509C208.632 172.251 210.236 172.339 211.764 172.768C213.293 173.197 214.706 173.955 215.905 174.989C215.923 175.006 215.938 175.028 215.948 175.051C215.958 175.074 215.964 175.1 215.964 175.125C215.964 175.151 215.958 175.176 215.948 175.199C215.938 175.223 215.923 175.244 215.905 175.262C215.883 175.287 215.855 175.305 215.823 175.316C215.791 175.326 215.757 175.328 215.725 175.321Z" fill="white"/>
<path d="M47.895 208.503L46 207.417C45.6843 207.214 45.4214 206.939 45.2329 206.616C45.0444 206.293 44.9354 205.93 44.915 205.557V66.1266C44.9354 65.7538 45.0444 65.3909 45.2329 65.0677C45.4214 64.7445 45.6843 64.47 46 64.2666L133.195 14.3244C133.531 14.1558 133.901 14.0679 134.278 14.0679C134.654 14.0679 135.025 14.1558 135.36 14.3244L137.26 15.4106C137.574 15.6151 137.836 15.89 138.023 16.213C138.211 16.5361 138.319 16.8984 138.34 17.2706V156.701C138.319 157.073 138.211 157.436 138.023 157.759C137.836 158.082 137.574 158.357 137.26 158.561L50.06 208.503C49.7245 208.672 49.3537 208.76 48.9775 208.76C48.6014 208.76 48.2306 208.672 47.895 208.503Z" fill="#687CBB"/>
<path opacity="0.4" d="M138.33 17.097C138.255 16.5415 137.8 16.3382 137.26 16.6506L50.06 66.5929C49.7403 66.7898 49.4769 67.0647 49.295 67.3914L45.23 65.0652C45.4148 64.7389 45.6796 64.4643 46 64.2666L133.195 14.3244C133.531 14.1558 133.901 14.0679 134.277 14.0679C134.654 14.0679 135.024 14.1558 135.36 14.3244L137.26 15.4106C137.549 15.5996 137.795 15.8479 137.979 16.1388C138.164 16.4297 138.283 16.7564 138.33 17.097Z" fill="white"/>
<path opacity="0.15" d="M49.8699 208.593C49.8502 208.605 49.828 208.614 49.8049 208.618L49.6949 208.657H49.6499L49.4499 208.707H49.4249C48.9933 208.788 48.5476 208.752 48.1349 208.603C48.0523 208.573 47.972 208.536 47.8949 208.494L45.9999 207.422C45.6859 207.218 45.4247 206.943 45.2371 206.62C45.0496 206.297 44.9409 205.935 44.9199 205.562V66.1269C44.9328 65.7523 45.0412 65.3871 45.2349 65.0654L49.2999 67.3917C49.1102 67.7125 49.0069 68.0763 48.9999 68.4482V207.889C48.9889 208.09 49.0471 208.29 49.1649 208.454C49.2339 208.536 49.3251 208.597 49.4279 208.63C49.5307 208.662 49.6407 208.665 49.7449 208.638L49.8699 208.593Z" fill="black"/>
<path d="M111.105 39.9973L110.945 39.9031L109.145 38.8764C108.491 38.5164 107.782 38.2667 107.045 38.1373C106.735 38.0679 106.455 37.9885 106.21 37.9092C105.938 37.8192 105.673 37.7115 105.415 37.5868L105.55 37.4231L103.5 36.2525C103.333 36.157 103.153 36.0852 102.965 36.0393C102.2 35.8557 101.055 36.2972 99.9101 36.1682C99.4953 36.1258 99.0947 35.9942 98.7364 35.7827C98.378 35.5711 98.0705 35.2846 97.8351 34.9431C97.1401 34.0156 96.7201 32.3887 96.1051 31.0445L96.6551 30.2559L96.4851 30.1617L94.6201 29.0903C94.305 28.9065 93.9457 28.8105 93.5801 28.8125C92.8842 28.85 92.2103 29.0671 91.6251 29.4425C87.1601 32.0018 87.0101 38.0778 85.4001 42.0706C83.7901 46.0634 81.5151 47.3183 80.2751 49.0146C79.0351 50.7109 78.9501 51.9906 76.2051 55.7602C73.4601 59.5298 73.3501 60.4325 73.3501 61.1418V66.7367L75.3801 67.8973L111.925 46.9612L111.105 39.9973ZM77.6051 61.5585C77.1301 61.8263 76.7401 61.4642 76.7401 60.7351C76.7348 60.387 76.81 60.0424 76.96 59.7277C77.1099 59.413 77.3306 59.1366 77.6051 58.9197C78.0801 58.6469 78.4651 59.0189 78.4651 59.748C78.4702 60.0959 78.3943 60.4401 78.2434 60.7541C78.0926 61.0681 77.8707 61.3434 77.5951 61.5585H77.6051ZM93.6501 45.8601C92.4501 46.5495 91.4001 46.1576 90.8351 45.0069C89.4201 45.2797 88.3651 43.9207 88.3651 41.5895C88.3651 38.8416 89.8251 35.7813 91.6251 34.7496C91.8553 34.5826 92.1217 34.4711 92.4029 34.424C92.6842 34.3769 92.9727 34.3955 93.2454 34.4783C93.5182 34.5611 93.7677 34.7058 93.9742 34.901C94.1808 35.0962 94.3385 35.3365 94.4351 35.6028C95.8551 35.325 96.9051 36.6791 96.9051 39.0202C96.9051 41.768 95.4501 44.8284 93.6501 45.8601ZM105.785 45.4087C105.31 45.6815 104.925 45.3145 104.925 44.5903C104.918 44.2432 104.993 43.8993 105.142 43.5854C105.291 43.2714 105.511 42.9957 105.785 42.7799C106.285 42.5071 106.65 42.8741 106.65 43.6033C106.657 43.9501 106.582 44.2936 106.432 44.6069C106.282 44.9202 106.06 45.1946 105.785 45.4087Z" fill="#455A64"/>
<path opacity="0.5" d="M77.4099 62.5555L73.4999 60.3086C73.4096 60.5891 73.3657 60.8822 73.3699 61.1766V66.7715L75.3999 67.9321L77.4299 66.7665L77.4099 62.5555Z" fill="#37474F"/>
<path opacity="0.5" d="M81.4699 55.5768L83.4999 50.9243L80.2749 49.0444C79.3249 50.344 79.0499 51.3905 77.7749 53.4588L81.4699 55.5768Z" fill="#37474F"/>
<path opacity="0.5" d="M89.5951 46.2719L89.8601 44.9178C88.9601 44.5408 88.3601 43.3405 88.3601 41.5896C88.3601 39.2535 89.4151 36.6991 90.8601 35.3499L88.0251 33.728C86.8251 36.4411 86.3801 39.6403 85.4001 42.0707C85.2063 42.5528 84.9877 43.0246 84.7451 43.4843L89.5951 46.2719Z" fill="#37474F"/>
<path d="M111.105 39.9974L110.945 39.9032C110.348 39.6256 109.718 39.4223 109.07 39.2981C108.006 39.1056 107.016 38.625 106.21 37.9093C106.007 37.7226 105.786 37.5565 105.55 37.4133C105.379 37.3144 105.193 37.2425 105 37.2C103.77 36.9074 101.53 38.2366 99.92 36.1683L99.87 36.1038C98.745 34.6158 98.335 31.248 96.65 30.261L96.48 30.1667C95.785 29.8443 94.88 29.9038 93.645 30.6082C89.18 33.1675 89.03 39.2435 87.42 43.2363C85.81 47.2291 83.535 48.484 82.295 50.1803C81.055 51.8766 80.975 53.1563 78.225 56.9259C75.475 60.6955 75.375 61.5982 75.375 62.3075V67.952L111.92 47.0158V41.4061C111.947 41.1167 111.883 40.8261 111.737 40.5741C111.591 40.322 111.37 40.1206 111.105 39.9974ZM79.605 62.7192C79.105 62.992 78.745 62.625 78.745 61.8958C78.7387 61.5481 78.813 61.2036 78.9621 60.8889C79.1112 60.5742 79.3311 60.2976 79.605 60.0805C80.105 59.8077 80.465 60.1797 80.465 60.9088C80.4742 61.2547 80.4027 61.5981 80.2562 61.9121C80.1096 62.2262 79.8919 62.5024 79.62 62.7192H79.605ZM93.635 45.8552C92.435 46.5446 91.385 46.1528 90.82 45.0021C90.5024 44.2926 90.3503 43.5212 90.375 42.7453C90.375 39.9974 91.835 36.9371 93.635 35.9054C93.8783 35.7618 94.1434 35.658 94.42 35.5979C95.84 35.3202 96.89 36.6742 96.89 39.0154C96.905 41.7682 95.45 44.8285 93.65 45.8602L93.635 45.8552ZM107.8 46.5645C107.3 46.8373 106.935 46.4702 106.935 45.7461C106.928 45.3984 107.002 45.0539 107.152 44.7397C107.302 44.4255 107.524 44.1502 107.8 43.9357C108.3 43.6629 108.66 44.0299 108.66 44.759C108.669 45.1049 108.597 45.4482 108.451 45.7621C108.304 46.0761 108.087 46.3524 107.815 46.5694L107.8 46.5645Z" fill="#37474F"/>
<path d="M96.905 39.0202C96.905 41.768 95.45 44.8283 93.65 45.86C92.45 46.5495 91.4 46.1576 90.835 45.0069C91.1138 44.9492 91.3809 44.8452 91.625 44.6994C93.425 43.6677 94.88 40.6074 94.88 37.8595C94.9047 37.0836 94.7526 36.3122 94.435 35.6027C95.855 35.325 96.905 36.7039 96.905 39.0202Z" fill="#263238"/>
<path d="M79.6202 62.714C79.1202 62.9868 78.7552 62.6197 78.7552 61.8956C78.7492 61.5474 78.824 61.2025 78.974 60.8877C79.1241 60.5729 79.3452 60.2966 79.6202 60.0802C80.0952 59.8074 80.4802 60.1794 80.4802 60.9085C80.4865 61.2548 80.4121 61.5979 80.263 61.911C80.1138 62.2241 79.8939 62.4989 79.6202 62.714Z" fill="#263238"/>
<path d="M107.81 46.5694C107.31 46.8422 106.95 46.4752 106.95 45.751C106.943 45.4033 107.018 45.0587 107.167 44.7439C107.316 44.4291 107.536 44.1525 107.81 43.9357C108.31 43.6629 108.675 44.0349 108.675 44.764C108.682 45.1108 108.607 45.4544 108.457 45.7677C108.307 46.0809 108.085 46.3554 107.81 46.5694Z" fill="#263238"/>
<path d="M55.7149 79.6326L131.595 36.1731C131.797 36.0728 132.019 36.0205 132.245 36.0205C132.471 36.0205 132.693 36.0728 132.895 36.1731L133.63 36.5947C133.819 36.7172 133.976 36.882 134.089 37.0759C134.202 37.2697 134.267 37.4872 134.28 37.7107V152.545C134.267 152.768 134.202 152.986 134.089 153.179C133.976 153.373 133.819 153.538 133.63 153.661L57.7499 197.12C57.5482 197.221 57.3256 197.273 57.0999 197.273C56.8743 197.273 56.6517 197.221 56.4499 197.12L55.7149 196.699C55.526 196.576 55.3688 196.411 55.2558 196.217C55.1429 196.024 55.0775 195.806 55.0649 195.583V80.7486C55.0783 80.5253 55.144 80.3081 55.2569 80.1144C55.3697 79.9206 55.5266 79.7557 55.7149 79.6326Z" fill="#F5F5F5"/>
<path d="M134.255 37.5174C134.175 37.2545 133.925 37.1702 133.63 37.3388L57.7503 80.7983C57.5555 80.9205 57.3968 81.0916 57.2903 81.2943L55.2603 80.1337C55.3653 79.93 55.5244 79.7585 55.7203 79.6377L131.6 36.1782C131.8 36.0755 132.022 36.022 132.248 36.022C132.473 36.022 132.695 36.0755 132.895 36.1782L133.63 36.5948C133.791 36.6994 133.93 36.8349 134.037 36.9933C134.144 37.1518 134.219 37.33 134.255 37.5174Z" fill="#FAFAFA"/>
<path d="M57.5948 197.19C57.5173 197.219 57.4368 197.241 57.3548 197.254H57.2298C57.0986 197.269 56.9661 197.269 56.8348 197.254C56.7528 197.241 56.6724 197.219 56.5948 197.19L56.4498 197.12L55.7198 196.703C55.5306 196.581 55.3732 196.417 55.2602 196.223C55.1473 196.029 55.082 195.811 55.0698 195.587V80.7535C55.0754 80.529 55.141 80.3099 55.2598 80.1187L57.2898 81.2793C57.1745 81.4721 57.1092 81.6902 57.0998 81.9142V196.748C57.0998 197.1 57.3098 197.274 57.5948 197.19Z" fill="#E0E0E0"/>
<path d="M117.185 52.4418L115.185 51.2811C114.867 51.1281 114.516 51.0536 114.163 51.064C113.809 51.0743 113.464 51.1693 113.155 51.3406C110.795 52.3723 109.775 52.8286 108.555 53.3246L107.675 53.6768C107.2 53.8653 106.245 53.7066 106.54 52.0549L109.675 43.6774H109.63L107.63 42.5366C107.529 42.4772 107.417 42.4384 107.3 42.4226C107.227 42.417 107.153 42.417 107.08 42.4226C105.795 42.3928 105.43 34.179 105.42 33.9261L105.33 33.8765L103.36 32.7357C103.019 32.5439 102.632 32.4463 102.24 32.453C101.589 32.4698 100.952 32.6398 100.38 32.949C97.2952 34.556 94.1802 39.3176 93.4202 43.5931C92.9202 46.2914 90.2052 50.4429 88.6252 51.9706C87.0452 53.4982 86.9352 54.7779 86.9352 54.7779L85.7052 61.6922L85.3102 63.9043C85.0202 65.556 83.3102 67.1531 83.3102 67.1531L76.9502 71.9197C72.9502 75.2032 71.8402 78.5165 71.0752 82.6184V82.6482C71.0752 82.792 71.0752 82.8912 71.1452 82.9309C71.1558 82.937 71.1679 82.9402 71.1802 82.9402C71.1925 82.9402 71.2046 82.937 71.2152 82.9309L72.0302 82.4696L115.82 57.4166C116.029 57.275 116.172 57.0576 116.22 56.8115C116.47 55.3235 117.22 52.5112 117.22 52.5112L117.185 52.4418ZM104.525 39.7491C104.055 42.3779 102.145 45.3093 100.245 46.2963C98.9352 46.9758 97.9802 46.5542 97.6602 45.3589C97.4248 45.4508 97.1698 45.4822 96.9189 45.4501C96.668 45.418 96.4294 45.3235 96.2252 45.1754C95.6152 44.6794 101.195 35.2008 101.65 35.4091C101.87 35.5216 102.061 35.6824 102.208 35.8793C102.355 36.0761 102.455 36.3039 102.5 36.545C104.055 36.0738 104.945 37.3882 104.525 39.7491Z" fill="#455A64"/>
<path opacity="0.5" d="M77.4102 76.5177L74.2202 74.6875C72.3652 77.103 71.6252 79.6475 71.0752 82.5987V82.6285C71.0752 82.7723 71.0752 82.8715 71.1452 82.9112C71.1558 82.9173 71.1679 82.9205 71.1802 82.9205C71.1925 82.9205 71.2046 82.9173 71.2152 82.9112L73.7152 80.9272L77.4102 76.5177Z" fill="#37474F"/>
<path opacity="0.5" d="M85.1001 64.6336L89.6001 67.2079L91.6301 55.5767L87.5751 53.2554C87.2525 53.7156 87.0358 54.2405 86.9401 54.793L85.7101 61.7072L85.3151 63.9194C85.265 64.1633 85.1931 64.4024 85.1001 64.6336Z" fill="#37474F"/>
<path opacity="0.5" d="M95.5501 38.0532C94.5218 39.7689 93.8011 41.6485 93.4201 43.6084C93.1002 45.0047 92.5638 46.3433 91.8301 47.5764L95.6901 49.7886L97.6051 45.394C97.3764 45.475 97.1314 45.4996 96.8911 45.4659C96.6507 45.4323 96.4222 45.3412 96.2251 45.2006C95.9101 44.9526 97.2251 42.3238 98.6551 39.8537L95.5501 38.0532Z" fill="#37474F"/>
<path d="M117.215 52.457H117.185C116.87 52.3105 116.525 52.24 116.177 52.2512C115.83 52.2624 115.49 52.355 115.185 52.5214C112.29 53.7862 111.415 54.2029 109.685 54.8774C109.225 55.061 108.3 54.9122 108.54 53.3597C108.538 53.325 108.538 53.2902 108.54 53.2555L108.935 51.0434L110.03 45.017C110.03 45.017 110.28 44.0696 109.645 43.7125H109.6C109.443 43.6402 109.273 43.603 109.1 43.6034C108.731 43.5598 108.376 43.4342 108.063 43.2358C107.75 43.0374 107.485 42.7714 107.29 42.4576C106.948 41.9537 106.711 41.3867 106.594 40.7902C106.477 40.1937 106.483 39.58 106.61 38.9856C107.07 36.4014 106.565 34.591 105.41 33.9165L105.32 33.8619C104.575 33.4701 103.575 33.5345 102.405 34.1446C99.32 35.7517 96.205 40.5133 95.445 44.7888C94.945 47.487 92.23 51.6386 90.65 53.1662C89.07 54.6939 88.96 55.9736 88.96 55.9736L87.73 62.8878L87.335 65.1C87.045 66.7517 85.335 68.3488 85.335 68.3488L79 73.0658C76.4605 75.0709 74.6276 77.8234 73.765 80.9274C73.765 80.9274 71.38 82.7626 71.23 82.9114L72.045 82.4501L115.96 57.407C115.96 57.407 116.46 57.1342 116.575 57.0648C116.69 56.9954 118.455 55.3387 118.455 55.3387C118.37 53.9102 117.95 52.8934 117.215 52.457ZM104.525 39.7494C104.055 42.3782 102.145 45.3096 100.245 46.2966C98.935 46.9761 97.98 46.5545 97.66 45.3592C97.5177 44.687 97.5177 43.9928 97.66 43.3206C98.13 40.6918 100.045 37.7605 101.945 36.7784C102.121 36.6846 102.305 36.6066 102.495 36.5453C104.055 36.0741 104.945 37.3885 104.525 39.7494Z" fill="#37474F"/>
<path d="M104.525 39.7494C104.055 42.3782 102.145 45.3095 100.245 46.2966C98.9352 46.9761 97.9802 46.5545 97.6602 45.3591C97.8513 45.2988 98.037 45.2225 98.2151 45.131C100.115 44.139 102.03 41.2126 102.495 38.5838C102.64 37.9118 102.64 37.2172 102.495 36.5452C104.055 36.074 104.945 37.3884 104.525 39.7494Z" fill="#263238"/>
<path d="M102.69 36.6542C102.869 36.643 103.047 36.6777 103.208 36.7551C103.37 36.8324 103.508 36.9497 103.61 37.0956C104.395 38.2067 103.64 41.0339 103.315 41.9366C102.86 43.1964 99.915 46.1476 99.105 46.1476C98.8373 46.1039 98.5813 46.0066 98.3526 45.8617C98.124 45.7167 97.9275 45.5271 97.775 45.3044C97.6416 44.6497 97.6416 43.9751 97.775 43.3204C98.24 40.7263 100.135 37.8297 101.995 36.8724C102.154 36.783 102.322 36.7083 102.495 36.6492H102.67M102.67 36.5252H102.47C102.28 36.5865 102.096 36.6646 101.92 36.7583C100.02 37.7503 98.105 40.6718 97.635 43.3006C97.4927 43.9728 97.4927 44.6669 97.635 45.3391C97.7983 45.5818 98.0106 45.7883 98.2585 45.9454C98.5064 46.1025 98.7844 46.2068 99.075 46.2518C99.955 46.2518 102.915 43.2758 103.39 41.9614C103.865 40.647 104.89 36.5054 102.65 36.5054L102.67 36.5252Z" fill="#263238"/>
<path d="M71.2151 82.9161L115.945 57.4068L116.565 57.0645C116.675 57.0001 118.445 55.3335 118.445 55.3335L73.7451 80.9271C73.7451 80.9271 71.0351 83.0053 71.2151 82.9161Z" fill="#263238"/>
<path d="M63.2803 94.5177L75.3803 87.4844V101.447L63.2803 108.475V94.5177Z" fill="#FAFAFA"/>
<path d="M63.7798 94.8002V107.632L74.8798 101.184V88.3522L63.7798 94.8002ZM63.2798 108.971C63.1924 108.97 63.1065 108.948 63.0298 108.906C62.9535 108.863 62.8902 108.8 62.8463 108.724C62.8024 108.648 62.7795 108.562 62.7798 108.475V94.5175C62.779 94.4306 62.8011 94.345 62.8441 94.2692C62.8871 94.1935 62.9494 94.1303 63.0248 94.086L75.1248 87.0577C75.2008 87.0141 75.287 86.9912 75.3748 86.9912C75.4626 86.9912 75.5488 87.0141 75.6248 87.0577C75.7004 87.1009 75.7632 87.1631 75.8071 87.2379C75.8509 87.3127 75.8743 87.3977 75.8748 87.4842V101.447C75.8743 101.533 75.8509 101.618 75.8071 101.693C75.7632 101.768 75.7004 101.83 75.6248 101.873L63.5248 108.902C63.4506 108.945 63.3662 108.969 63.2798 108.971Z" fill="#455A64"/>
<path d="M81.4702 84.4885V85.4805C81.4702 86.031 81.8602 86.2542 82.3352 85.9765L125.285 61.3848C125.537 61.2216 125.748 61.0019 125.899 60.7435C126.05 60.4851 126.138 60.1951 126.155 59.8968V58.88C126.155 58.3344 125.765 58.1112 125.285 58.384L82.3352 82.9856C82.0814 83.1503 81.8706 83.3724 81.7202 83.6337C81.5698 83.8949 81.4841 84.1879 81.4702 84.4885Z" fill="#E0E0E0"/>
<path d="M81.4702 90.5845V91.5765C81.4702 92.1221 81.8602 92.3453 82.3352 92.0725L125.285 67.4759C125.538 67.3132 125.749 67.0937 125.9 66.8352C126.051 66.5766 126.138 66.2863 126.155 65.9879V64.9959C126.155 64.4453 125.765 64.2221 125.285 64.4999L82.3352 89.0965C82.0833 89.2597 81.8738 89.4795 81.7235 89.738C81.5732 89.9965 81.4864 90.2865 81.4702 90.5845Z" fill="#E0E0E0"/>
<path d="M81.4702 96.6454V97.6374C81.4702 98.183 81.8602 98.4062 82.3352 98.1334L125.285 73.5368C125.538 73.3744 125.749 73.155 125.9 72.8964C126.051 72.6377 126.139 72.3473 126.155 72.0488V71.0568C126.155 70.5112 125.765 70.288 125.285 70.5608L82.3352 95.1574C82.0842 95.3215 81.8752 95.5414 81.7251 95.7998C81.5749 96.0581 81.4876 96.3477 81.4702 96.6454Z" fill="#E0E0E0"/>
<path d="M69.5298 101.65L66.7148 98.9666L67.9298 96.4171L69.5298 97.9498L76.1948 83.9526L77.4099 85.1083L69.5298 101.65Z" fill="#687CBB"/>
<path d="M63.2803 120.106L75.3803 113.078V127.036L63.2803 134.064V120.106Z" fill="#FAFAFA"/>
<path d="M63.7803 120.389V133.201L74.8803 126.753V113.941L63.7803 120.389ZM63.2803 134.56C63.1927 134.56 63.1065 134.538 63.0303 134.495C62.954 134.452 62.8907 134.389 62.8468 134.313C62.8029 134.237 62.7799 134.151 62.7803 134.064V120.106C62.7803 120.02 62.8029 119.936 62.8458 119.861C62.8888 119.786 62.9506 119.724 63.0253 119.68L75.1253 112.651C75.2012 112.607 75.2877 112.583 75.3759 112.582C75.4642 112.581 75.551 112.604 75.6277 112.647C75.7044 112.69 75.7682 112.753 75.8125 112.829C75.8569 112.904 75.8803 112.99 75.8803 113.078V127.035C75.8806 127.123 75.8577 127.209 75.8138 127.285C75.7699 127.36 75.7066 127.423 75.6303 127.467L63.5303 134.495C63.4541 134.538 63.3679 134.56 63.2803 134.56Z" fill="#455A64"/>
<path d="M81.4702 110.077V111.069C81.4702 111.615 81.8602 111.838 82.3352 111.565L125.285 86.9683C125.538 86.806 125.749 86.5865 125.9 86.3279C126.051 86.0693 126.139 85.7788 126.155 85.4803V84.4883C126.155 83.9378 125.765 83.7195 125.285 83.9923L82.3352 108.589C82.0842 108.753 81.8752 108.973 81.7251 109.231C81.5749 109.49 81.4876 109.779 81.4702 110.077Z" fill="#E0E0E0"/>
<path d="M81.4702 116.178V117.17C81.4702 117.721 81.8602 117.939 82.3352 117.666L125.285 93.0695C125.538 92.9071 125.749 92.6877 125.9 92.4291C126.051 92.1705 126.139 91.88 126.155 91.5815V90.5895C126.155 90.0439 125.765 89.8207 125.285 90.0935L82.3352 114.695C82.084 114.858 81.8748 115.077 81.7246 115.334C81.5743 115.592 81.4872 115.881 81.4702 116.178Z" fill="#E0E0E0"/>
<path d="M81.4702 122.239V123.231C81.4702 123.777 81.8602 124 82.3352 123.727L125.285 99.1307C125.538 98.968 125.749 98.7485 125.9 98.4899C126.051 98.2314 126.138 97.9411 126.155 97.6427V96.6507C126.155 96.1001 125.765 95.8769 125.285 96.1547L82.3352 120.751C82.0839 120.915 81.8748 121.135 81.7245 121.393C81.5743 121.652 81.4872 121.941 81.4702 122.239Z" fill="#E0E0E0"/>
<path d="M69.5298 127.244L66.7148 124.555L67.9298 122.011L69.5298 123.539L76.1948 109.542L77.4099 110.702L69.5298 127.244Z" fill="#687CBB"/>
<path d="M63.2803 145.7L75.3803 138.667V152.629L63.2803 159.657V145.7Z" fill="#FAFAFA"/>
<path d="M63.7798 145.983V158.795L74.8798 152.347V139.535L63.7798 145.983ZM63.2798 160.154C63.1922 160.154 63.106 160.132 63.0298 160.089C62.9535 160.045 62.8902 159.982 62.8463 159.907C62.8024 159.831 62.7795 159.745 62.7798 159.658V145.7C62.779 145.613 62.8011 145.528 62.8441 145.452C62.8871 145.376 62.9494 145.313 63.0248 145.269L75.1248 138.24C75.2011 138.195 75.288 138.171 75.3767 138.171C75.4654 138.17 75.5526 138.193 75.6294 138.237C75.7063 138.281 75.77 138.344 75.814 138.421C75.858 138.497 75.8807 138.584 75.8798 138.672V152.629C75.8793 152.716 75.8559 152.801 75.8121 152.876C75.7682 152.95 75.7054 153.013 75.6298 153.056L63.5298 160.084C63.4541 160.129 63.3679 160.153 63.2798 160.154Z" fill="#455A64"/>
<path d="M81.4702 135.671V136.663C81.4702 137.209 81.8602 137.432 82.3352 137.159L125.285 112.592C125.538 112.429 125.749 112.21 125.9 111.951C126.051 111.693 126.138 111.403 126.155 111.104V110.112C126.155 109.562 125.765 109.338 125.285 109.616L82.3352 134.213C82.0878 134.374 81.881 134.589 81.731 134.842C81.581 135.095 81.4918 135.378 81.4702 135.671Z" fill="#E0E0E0"/>
<path d="M81.4702 141.766V142.758C81.4702 143.304 81.8602 143.527 82.3352 143.254L125.285 118.658C125.538 118.495 125.749 118.276 125.9 118.017C126.051 117.759 126.139 117.468 126.155 117.17V116.178C126.155 115.627 125.765 115.409 125.285 115.682L82.3352 140.278C82.0839 140.442 81.8748 140.662 81.7245 140.92C81.5743 141.179 81.4872 141.469 81.4702 141.766Z" fill="#E0E0E0"/>
<path d="M81.4702 147.833V148.825C81.4702 149.375 81.8602 149.594 82.3352 149.321L125.285 124.724C125.539 124.562 125.75 124.343 125.901 124.084C126.052 123.825 126.139 123.535 126.155 123.236V122.219C126.155 121.674 125.765 121.451 125.285 121.723L82.3352 146.325C82.0807 146.49 81.8695 146.713 81.7191 146.975C81.5686 147.237 81.4833 147.531 81.4702 147.833Z" fill="#E0E0E0"/>
<path d="M63.2803 171.289L75.3803 164.26V178.223L63.2803 185.251V171.289Z" fill="#FAFAFA"/>
<path d="M63.7803 171.576V184.383L74.8803 177.935V165.128L63.7803 171.576ZM63.2803 185.747C63.1477 185.747 63.0205 185.695 62.9267 185.602C62.833 185.509 62.7803 185.382 62.7803 185.251V171.288C62.7803 171.202 62.8029 171.118 62.8458 171.043C62.8888 170.968 62.9506 170.906 63.0253 170.862L75.1253 163.834C75.2013 163.79 75.2875 163.767 75.3753 163.767C75.463 163.767 75.5493 163.79 75.6253 163.834C75.7016 163.877 75.7649 163.94 75.8088 164.016C75.8527 164.092 75.8756 164.178 75.8753 164.265V178.227C75.8747 178.314 75.8514 178.399 75.8075 178.474C75.7637 178.549 75.7008 178.611 75.6253 178.654L63.5253 185.682C63.4505 185.724 63.3662 185.747 63.2803 185.747Z" fill="#455A64"/>
<path d="M81.4702 161.265V162.257C81.4702 162.807 81.8602 163.025 82.3352 162.753L125.285 138.156C125.538 137.994 125.749 137.774 125.9 137.515C126.051 137.257 126.139 136.966 126.155 136.668V135.676C126.155 135.13 125.765 134.907 125.285 135.18L82.3352 159.782C82.084 159.944 81.8748 160.163 81.7246 160.421C81.5743 160.678 81.4872 160.967 81.4702 161.265Z" fill="#E0E0E0"/>
<path d="M81.4702 167.36V168.352C81.4702 168.903 81.8602 169.126 82.3352 168.848L125.285 144.256C125.537 144.093 125.748 143.874 125.899 143.615C126.05 143.357 126.138 143.067 126.155 142.768V141.752C126.155 141.206 125.765 140.983 125.285 141.256L82.3352 165.857C82.0814 166.022 81.8706 166.244 81.7202 166.505C81.5698 166.767 81.4841 167.06 81.4702 167.36Z" fill="#E0E0E0"/>
<path d="M81.4702 173.421V174.413C81.4702 174.959 81.8602 175.182 82.3352 174.909L125.285 150.313C125.538 150.15 125.749 149.931 125.9 149.672C126.051 149.414 126.139 149.123 126.155 148.825V147.833C126.155 147.282 125.765 147.064 125.285 147.337L82.3352 171.933C82.0842 172.097 81.8752 172.317 81.7251 172.576C81.5749 172.834 81.4876 173.123 81.4702 173.421Z" fill="#E0E0E0"/>
<path d="M194.902 88.5043C195.382 85.5705 193.374 82.8061 190.416 82.3299C187.459 81.8537 184.672 83.8459 184.192 86.7797C183.712 89.7135 185.72 92.4778 188.678 92.9541C191.635 93.4303 194.422 91.438 194.902 88.5043Z" fill="#263238"/>
<path d="M183.08 104.433L175.34 113.361L164.945 108.897L164.745 114.482C164.745 114.482 173.245 118.425 174.56 118.693C175.875 118.96 177.135 119.248 178.275 118.38C179.605 117.388 184.38 111.902 184.38 111.902L183.08 104.433Z" fill="#FFA8A7"/>
<path d="M190.105 99.8547C187.025 99.6563 184.605 101.978 182.795 104.061C180.985 106.144 178.7 109.418 178.7 109.418C178.7 109.418 179.945 113.023 183.225 114.115L188.88 107.453L190.105 99.8547Z" fill="#E0E0E0"/>
<path d="M202.525 178.664H198.705V185.152H202.525V178.664Z" fill="#FFA8A7"/>
<path d="M189.28 180.613L185.46 180.742L185.27 173.878L189.085 173.749L189.28 180.613Z" fill="#FFA8A7"/>
<path d="M202.27 127.239C202.27 130.859 202.745 152.787 202.745 152.787C202.83 153.829 203.815 155.763 203.605 159.731C203.315 165.187 202.84 179.289 202.84 179.289C202.84 179.289 201.05 181.05 198.52 179.289C198.52 179.289 195.06 159.751 194.38 154.37C193.78 149.668 192.765 136.906 192.765 136.906L190.65 154.623C190.65 154.623 191.27 158.154 191.41 160.644C191.55 163.134 189.34 175.792 189.34 175.792C188.721 176.176 188.011 176.392 187.281 176.419C186.551 176.446 185.827 176.283 185.18 175.946C185.18 175.946 183.535 156.656 183.14 154.404C182.745 152.153 184.405 127.224 184.405 127.224L202.27 127.239Z" fill="#37474F"/>
<path d="M198.6 101.065C199.414 101.206 200.168 101.583 200.766 102.149C201.364 102.715 201.78 103.444 201.96 104.244C202.168 105.189 202.272 106.154 202.27 107.121V127.239C199.595 130.13 190.27 131.479 184.405 127.239C184.405 127.239 184.52 109.472 184.96 106.55C185.72 101.481 188.165 99.6709 190.625 99.8594L196.5 100.688L198.6 101.065Z" fill="#F0F0F0"/>
<path d="M198.91 91.4624C198.91 91.4624 198.03 95.5544 197.68 96.229C197.445 96.6437 197.059 96.9527 196.6 97.092L196.66 94.2152L198.91 91.4624Z" fill="#263238"/>
<path d="M197.805 85.5945C198.112 85.5578 198.424 85.5915 198.716 85.6929C199.008 85.7944 199.273 85.9609 199.49 86.1797C200.215 86.9138 199.81 89.2103 198.91 91.4621L197.255 91.6506L197.805 85.5945Z" fill="#263238"/>
<path d="M196.76 91.6507C197.09 91.8491 197.565 91.2142 197.975 90.7926C198.385 90.371 199.72 89.8006 200.385 91.1795C201.05 92.5583 199.795 94.4729 198.745 94.8003C196.93 95.3657 196.66 94.215 196.66 94.215L196.5 100.688C196.1 101.558 195.489 102.316 194.721 102.894C193.953 103.472 193.053 103.853 192.1 104.001C188.885 104.438 189.545 101.809 190.6 100.529V98.545C189.792 98.6735 188.972 98.7151 188.155 98.669C186.82 98.4657 185.98 97.4191 185.58 95.9907C184.93 93.6892 184.68 91.8342 185.23 87.3107C185.835 82.3507 191.65 82.3011 194.785 84.2603C197.92 86.2195 196.76 91.6507 196.76 91.6507Z" fill="#FFA8A7"/>
<path d="M196.76 92.2062C196.925 92.2062 197.56 91.1646 197.975 90.7926C198.545 90.2718 197.805 85.5945 197.805 85.5945C197.957 85.19 197.985 84.7503 197.888 84.3298C197.79 83.9093 197.57 83.5265 197.255 83.2286C196.47 82.3705 195.16 82.2763 192.92 81.9291C191.75 81.7456 189.97 81.4331 188.795 81.2C187.395 80.9421 186.235 80.6693 185.25 81.5224C184.864 81.8565 184.591 82.3003 184.468 82.7935C184.344 83.2868 184.377 83.8057 184.56 84.2801C184.663 84.4957 184.798 84.6947 184.96 84.8704C185.226 85.1841 185.571 85.422 185.96 85.5598C185.96 85.5598 186.57 86.0955 188.695 86.3534C190.656 86.4986 192.627 86.4604 194.58 86.2393C195.195 86.16 195.325 86.7353 195.66 88.3672C195.955 89.7758 196.2 92.1963 196.76 92.2062Z" fill="#263238"/>
<path d="M197.805 85.9567L199.805 84.8903C199.74 84.7593 199.65 84.6423 199.539 84.5463C199.428 84.4503 199.299 84.3771 199.16 84.3309C199.02 84.2848 198.873 84.2666 198.726 84.2775C198.579 84.2883 198.436 84.328 198.305 84.3943C198.036 84.5416 197.834 84.7858 197.741 85.0765C197.648 85.3672 197.671 85.6823 197.805 85.9567Z" fill="#263238"/>
<path d="M190.63 98.5549C190.63 98.5549 193.605 97.9597 194.63 97.4091C195.241 97.0926 195.743 96.602 196.07 96.0005C195.912 96.6035 195.634 97.1686 195.25 97.6621C194.49 98.6293 190.615 99.3386 190.615 99.3386L190.63 98.5549Z" fill="#F28F8F"/>
<path d="M191.345 90.9114C191.35 91.027 191.389 91.1386 191.457 91.2323C191.525 91.3261 191.62 91.3978 191.729 91.4387C191.838 91.4796 191.957 91.4878 192.071 91.4623C192.184 91.4368 192.288 91.3788 192.369 91.2953C192.449 91.2119 192.504 91.1067 192.525 90.993C192.546 90.8792 192.532 90.7618 192.487 90.6554C192.441 90.549 192.365 90.4582 192.268 90.3944C192.171 90.3306 192.057 90.2965 191.94 90.2964C191.86 90.2977 191.781 90.3146 191.708 90.3463C191.635 90.378 191.569 90.4237 191.513 90.4809C191.458 90.5381 191.415 90.6056 191.386 90.6795C191.357 90.7534 191.343 90.8322 191.345 90.9114Z" fill="#263238"/>
<path d="M192 88.6796L193.275 89.379C193.363 89.2075 193.381 89.0093 193.326 88.8249C193.271 88.6405 193.147 88.4838 192.98 88.387C192.897 88.3412 192.805 88.3124 192.71 88.3024C192.615 88.2923 192.519 88.3012 192.428 88.3284C192.337 88.3557 192.252 88.4008 192.178 88.4611C192.105 88.5214 192.044 88.5957 192 88.6796Z" fill="#263238"/>
<path d="M190.9 94.9985L189.535 95.4945C189.565 95.5851 189.613 95.6689 189.676 95.7408C189.739 95.8128 189.816 95.8716 189.902 95.9136C189.988 95.9557 190.082 95.9802 190.178 95.9857C190.274 95.9913 190.37 95.9777 190.46 95.9459C190.64 95.8718 190.785 95.7331 190.867 95.5576C190.948 95.382 190.96 95.1824 190.9 94.9985Z" fill="#F28F8F"/>
<path d="M186.025 89.1706L187.19 88.2828C187.135 88.2064 187.066 88.1417 186.986 88.0924C186.905 88.0432 186.816 88.0104 186.723 87.996C186.629 87.9817 186.534 87.9861 186.443 88.0089C186.351 88.0318 186.265 88.0726 186.19 88.129C186.034 88.2491 185.93 88.4237 185.899 88.6173C185.868 88.8109 185.913 89.0088 186.025 89.1706Z" fill="#263238"/>
<path d="M186.385 90.7679C186.39 90.8834 186.429 90.995 186.497 91.0888C186.565 91.1825 186.66 91.2543 186.769 91.2952C186.878 91.3361 186.997 91.3443 187.111 91.3188C187.224 91.2933 187.328 91.2352 187.409 91.1518C187.489 91.0683 187.544 90.9632 187.565 90.8494C187.586 90.7356 187.573 90.6183 187.527 90.5118C187.481 90.4054 187.405 90.3147 187.308 90.2508C187.211 90.187 187.097 90.1529 186.98 90.1528C186.9 90.1541 186.821 90.1711 186.748 90.2028C186.675 90.2344 186.609 90.2802 186.553 90.3374C186.498 90.3945 186.455 90.462 186.426 90.5359C186.397 90.6098 186.383 90.6886 186.385 90.7679Z" fill="#263238"/>
<path d="M189.42 90.1826L189.225 93.7439L187.355 93.109L189.42 90.1826Z" fill="#F28F8F"/>
<path d="M198.705 183.282V182.736C198.335 182.895 197.49 186.109 195.97 187.483C194.765 188.569 193.125 189.829 192.705 191.044C192.285 192.26 194.995 193.028 196.12 192.81C197.43 192.582 199.695 191.669 200.265 190.826C200.835 189.983 201.1 188.728 201.56 188.108C202.02 187.488 203.09 186.794 203.34 186.074C203.48 185.683 203.315 184.815 203.12 184.09C202.925 183.366 202.755 182.687 202.525 182.746C202.525 182.831 202.525 183.163 202.525 183.163C201.98 183.584 201.306 183.81 200.615 183.803C200.055 183.813 198.7 183.704 198.705 183.282Z" fill="#263238"/>
<path d="M185.42 179.552C185.22 179.552 185.06 179.84 184.625 180.306C183.97 180.962 183.21 181.505 182.375 181.913C180.945 182.622 178.165 183.713 176.905 184.279C176.12 184.626 176.155 185.568 176.97 186.104C177.785 186.64 179.745 187.027 182.1 186.506C183.385 186.223 185.055 185.048 186.1 185.107C187.145 185.167 189.14 185.157 189.92 184.611C190.7 184.066 190.39 182.935 190.165 181.957C189.925 180.886 189.58 179.249 189.225 179.324V179.661C188.765 180.35 186.43 180.653 185.42 180.122V179.552Z" fill="#263238"/>
<path d="M192.765 136.921C190.791 136.309 188.975 135.277 187.445 133.895C187.445 133.895 188.475 135.8 191.525 137.575L190.65 154.638L192.765 136.921Z" fill="#263238"/>
<path d="M176.545 163.184L170.115 181.799C170.074 181.917 169.997 182.02 169.894 182.093C169.792 182.166 169.669 182.205 169.542 182.205C169.416 182.205 169.293 182.166 169.191 182.093C169.088 182.02 169.011 181.917 168.97 181.799L162.625 163.035L176.545 163.184Z" fill="#FFA8A7"/>
<path d="M168.97 181.799C169.011 181.917 169.088 182.02 169.191 182.093C169.293 182.166 169.417 182.205 169.543 182.205C169.669 182.205 169.792 182.166 169.895 182.093C169.997 182.02 170.074 181.917 170.115 181.799L171.37 178.163C170.829 178.451 170.218 178.586 169.605 178.552C168.992 178.518 168.4 178.316 167.895 177.97L167.615 177.781L168.97 181.799Z" fill="#263238"/>
<path d="M162.87 80.0347V81.8401V84.0374L162.645 163.02C164.115 164.687 166.295 165.535 168.505 165.758C171.87 166.106 175.325 165.009 176.555 163.174L176.78 84.2358V80.0347C176.615 82.7726 162.745 82.7627 162.87 80.0347Z" fill="#687CBB"/>
<path d="M162.825 86.9634V91.0306C162.785 92.2111 165.325 92.975 168.24 93.2378C172.12 93.6049 176.69 92.5633 176.74 91.0009V88.0001V86.9287C176.685 88.4911 172.115 89.5377 168.24 89.1706C165.44 88.9127 162.99 88.1786 162.85 87.0924C162.833 87.0516 162.824 87.0077 162.825 86.9634Z" fill="#EBEBEB"/>
<path d="M162.835 87.9804C162.735 90.7183 176.645 90.6836 176.745 87.9457V83.8735C176.645 86.6115 162.745 86.6462 162.835 83.9083V87.9804Z" fill="#687CBB"/>
<path d="M162.87 80.0347V84.0523C162.75 86.7406 176.175 86.8199 176.78 84.2507C176.796 84.201 176.805 84.1491 176.805 84.0969V80.0495C176.615 82.7726 162.745 82.7627 162.87 80.0347Z" fill="#EBEBEB"/>
<path opacity="0.1" d="M176.76 84.2504V80.0493C176.685 81.2794 173.845 82.197 170.695 82.3061L170.5 165.837L170.125 181.804L176.545 163.184L176.76 84.2504Z" fill="black"/>
<path d="M162.935 62.9919L162.87 80.0493C162.815 81.2149 165.315 81.9837 168.215 82.2615C172.095 82.6384 176.685 81.6216 176.775 80.0642L176.835 62.9522C176.835 59.5496 169.875 58.6916 165.72 60.1101C164.165 60.6012 163.06 61.5485 162.935 62.9919Z" fill="#F28F8F"/>
<path d="M208.085 132.898C207.963 134.618 207.734 136.33 207.4 138.022C206.255 142.397 204.79 143.711 202.835 143.84C199.72 144.043 199.7 142.888 201.1 140.894C201.714 140.025 202.183 139.063 202.49 138.047C202.032 138.426 201.528 138.747 200.99 139.004C200.751 139.129 200.474 139.159 200.213 139.089C199.952 139.019 199.728 138.854 199.585 138.627C199.485 138.419 200.025 138.21 200.625 137.486C201.385 136.564 201.775 135.83 202.825 135.066C203.174 134.723 203.396 134.274 203.455 133.791C203.615 133.166 203.725 123.241 203.16 121.188L200.5 111.64C198.32 110.152 196 102.811 199.315 101.224C202.425 101.571 204.695 105.608 208.09 118.088C208.665 120.31 208.435 129.506 208.085 132.898Z" fill="#FFA8A7"/>
<path d="M198.6 101.065C198.176 101.438 197.837 101.896 197.605 102.409C197.373 102.922 197.254 103.479 197.255 104.041C197.165 106.119 198.15 109.115 198.755 110.985C199.36 112.855 200.585 116.257 200.585 116.257C200.585 116.257 205.71 115.672 206.875 112.691C206.875 112.691 204.475 104.988 202.165 102.483C201.721 101.991 201.168 101.607 200.55 101.361C199.932 101.114 199.264 101.013 198.6 101.065Z" fill="#E0E0E0"/>
<path d="M165.8 102.93C165.8 102.93 167.045 101.938 169.42 102.33C170.57 102.518 170.13 106.833 166.42 108.034C164.015 108.817 163.525 108.416 162.75 110.375C162.75 110.375 161.3 110.077 161.65 107.895C162.036 105.635 163.051 103.527 164.58 101.809C165.64 100.569 165.715 99.5273 166.235 99.8794C166.755 100.232 166.46 101.303 166.46 101.303L165.8 102.93Z" fill="#FFA8A7"/>
</g>
<defs>
<filter id="filter0_d_188_202" x="-4" y="0" width="258" height="256" filterUnits="userSpaceOnUse" color-interpolation-filters="sRGB">
<feFlood flood-opacity="0" result="BackgroundImageFix"/>
<feColorMatrix in="SourceAlpha" type="matrix" values="0 0 0 0 0 0 0 0 0 0 0 0 0 0 0 0 0 0 127 0" result="hardAlpha"/>
<feOffset dy="4"/>
<feGaussianBlur stdDeviation="2"/>
<feComposite in2="hardAlpha" operator="out"/>
<feColorMatrix type="matrix" values="0 0 0 0 0 0 0 0 0 0 0 0 0 0 0 0 0 0 0.25 0"/>
<feBlend mode="normal" in2="BackgroundImageFix" result="effect1_dropShadow_188_202"/>
<feBlend mode="normal" in="SourceGraphic" in2="effect1_dropShadow_188_202" result="shape"/>
</filter>
</defs>
</svg>
