<svg width="34" height="54" viewBox="0 0 34 54" fill="none" xmlns="http://www.w3.org/2000/svg">
<path d="M30.8681 2.60601C26.0101 6.97149 21.8128 6.74205 19.188 4.71991C16.5663 9.77372 12.3691 14.8459 7.51107 16.091L4.73637 23.586C4.73637 23.586 6.22314 25.2992 6.22314 29.3985C6.20847 31.1165 5.97721 32.8258 5.53482 34.486C5.03005 36.5081 4.37844 38.6006 4.37844 42.0973C4.37844 44.4651 4.68436 46.7687 5.88969 48.8642C6.61709 50.1323 7.66459 51.1872 8.92748 51.9235L4.70883 49.4761C3.37847 48.7402 2.27339 47.6563 1.51196 46.3404C0.312756 44.2418 0.00683594 41.9413 0.00683594 39.5704C0.00683594 36.0768 0.658446 33.9812 1.16322 31.956C1.60315 30.2966 1.83134 28.5883 1.84236 26.8716C1.84236 22.7723 0.355585 21.0591 0.355585 21.0591L3.12722 13.5641C7.98524 12.319 12.1825 7.24682 14.8042 2.19301C17.429 4.21515 21.6262 4.44459 26.4843 0.0791016L30.8681 2.60601Z" fill="#687CBB"/>
<path opacity="0.8" d="M16.3489 3.0831L14.8193 2.19287C15.2878 2.55565 15.8021 2.85498 16.3489 3.0831Z" fill="white"/>
<path opacity="0.85" d="M26.4899 0.0849609C22.4915 3.67647 18.9428 4.15676 16.3486 3.0891L19.1876 4.72577C21.8124 6.74791 26.0096 6.97735 30.8676 2.61186L26.4899 0.0849609Z" fill="white"/>
<path opacity="0.65" d="M14.8098 2.19287C12.1881 7.24668 7.99083 12.3188 3.13281 13.5639L7.51053 16.0908C12.3686 14.8457 16.5658 9.77358 19.1875 4.71977L14.8098 2.19287Z" fill="white"/>
<path opacity="0.55" d="M3.13297 13.564L0.361328 21.059L4.73599 23.5859L7.51069 16.0909L3.13297 13.564Z" fill="white"/>
<path opacity="0.4" d="M5.88897 48.8642C4.68976 46.7686 4.37772 44.4651 4.37772 42.0972C4.37772 38.6006 5.02933 36.5081 5.5341 34.4859C5.97649 32.8258 6.20775 31.1165 6.22242 29.3985C6.22242 25.2991 4.73565 23.586 4.73565 23.586L0.360986 21.0591C0.360986 21.0591 1.84776 22.7722 1.84776 26.8716C1.83275 28.5888 1.60044 30.2971 1.15638 31.956C0.65161 33.9812 0 36.0767 0 39.5703C0 41.9412 0.305919 44.2417 1.51125 46.3373C2.27267 47.6532 3.37776 48.7371 4.70811 49.473L8.92676 51.9203C7.66426 51.1849 6.6168 50.1311 5.88897 48.8642Z" fill="white"/>
<path opacity="0.05" d="M5.88897 48.8642C4.68976 46.7686 4.37772 44.4651 4.37772 42.0972C4.37772 38.6006 5.02933 36.5081 5.5341 34.4859C5.97649 32.8258 6.20775 31.1165 6.22242 29.3985C6.22242 25.2991 4.73565 23.586 4.73565 23.586L0.360986 21.0591C0.360986 21.0591 1.84776 22.7722 1.84776 26.8716C1.83275 28.5888 1.60044 30.2971 1.15638 31.956C0.65161 33.9812 0 36.0767 0 39.5703C0 41.9412 0.305919 44.2417 1.51125 46.3373C2.27267 47.6532 3.37776 48.7371 4.70811 49.473L8.92676 51.9203C7.66426 51.1849 6.6168 50.1311 5.88897 48.8642Z" fill="black"/>
<path d="M19.1875 53.9975C11.9311 54.0801 7.77365 52.162 5.88612 48.8642C4.68997 46.7686 4.37793 44.4651 4.37793 42.0942C4.37793 38.6006 5.02649 36.5111 5.53431 34.4859C5.9767 32.8268 6.20797 31.1185 6.22263 29.4015C6.22263 25.3022 4.73586 23.589 4.73586 23.589L7.51056 16.0909C12.3686 14.8458 16.5658 9.77061 19.1875 4.71986C21.8123 6.742 26.0096 6.97144 30.8676 2.60596L33.6423 6.88884C32.6889 9.28601 32.1839 11.8379 32.1525 14.4175C32.1268 15.8749 32.3609 17.3252 32.8438 18.7004C33.3486 20.1383 34.0002 21.4812 34.0002 24.9749C33.9923 27.8788 33.4809 30.7594 32.489 33.4886C30.5984 38.983 26.447 45.6979 19.1875 53.9975Z" fill="#687CBB"/>
<path opacity="0.75" d="M19.1875 53.9975C11.9311 54.0801 7.77365 52.162 5.88612 48.8642C4.68997 46.7686 4.37793 44.4651 4.37793 42.0942C4.37793 38.6006 5.02649 36.5111 5.53431 34.4859C5.9767 32.8268 6.20797 31.1185 6.22263 29.4015C6.22263 25.3022 4.73586 23.589 4.73586 23.589L7.51056 16.0909C12.3686 14.8458 16.5658 9.77061 19.1875 4.71986C21.8123 6.742 26.0096 6.97144 30.8676 2.60596L33.6423 6.88884C32.6889 9.28601 32.1839 11.8379 32.1525 14.4175C32.1268 15.8749 32.3609 17.3252 32.8438 18.7004C33.3486 20.1383 34.0002 21.4812 34.0002 24.9749C33.9923 27.8788 33.4809 30.7594 32.489 33.4886C30.5984 38.983 26.447 45.6979 19.1875 53.9975Z" fill="white"/>
<path d="M18.3282 52.1128C12.7084 52.0454 9.07411 50.6382 7.52615 47.9308C6.65122 46.4012 6.2627 44.6024 6.2627 42.0939C6.26248 39.9067 6.57146 37.7304 7.18046 35.6298C7.23858 35.3973 7.29977 35.1709 7.35483 34.9414C7.83843 33.134 8.08928 31.2722 8.10128 29.4012C8.10128 26.4124 7.38542 24.4575 6.81641 23.3746L8.95785 17.6233C14.1585 15.8153 17.9183 10.6789 19.9098 7.3107C20.9825 7.76677 22.1368 7.99992 23.3025 7.99596C25.6519 7.99596 28.0412 7.12103 30.4274 5.39258L31.544 7.12408C30.7308 9.47522 30.3011 11.9419 30.2713 14.4295C30.2442 16.1023 30.5135 17.7667 31.0667 19.3456C31.1249 19.5108 31.186 19.676 31.2472 19.8412C31.6939 21.0649 32.116 22.2182 32.116 24.9929C32.1058 27.6873 31.6297 30.3596 30.7088 32.8918C28.8519 38.2821 24.6883 44.7492 18.3282 52.1128Z" fill="#687CBB"/>
<path opacity="0.4" d="M18.3282 52.1128C12.7084 52.0454 9.07411 50.6382 7.52615 47.9308C6.65122 46.4012 6.2627 44.6024 6.2627 42.0939C6.26248 39.9067 6.57146 37.7304 7.18046 35.6298C7.23858 35.3973 7.29977 35.1709 7.35483 34.9414C7.83843 33.134 8.08928 31.2722 8.10128 29.4012C8.10128 26.4124 7.38542 24.4575 6.81641 23.3746L8.95785 17.6233C14.1585 15.8153 17.9183 10.6789 19.9098 7.3107C20.9825 7.76677 22.1368 7.99992 23.3025 7.99596C25.6519 7.99596 28.0412 7.12103 30.4274 5.39258L31.544 7.12408C30.7308 9.47522 30.3011 11.9419 30.2713 14.4295C30.2442 16.1023 30.5135 17.7667 31.0667 19.3456C31.1249 19.5108 31.186 19.676 31.2472 19.8412C31.6939 21.0649 32.116 22.2182 32.116 24.9929C32.1058 27.6873 31.6297 30.3596 30.7088 32.8918C28.8519 38.2821 24.6883 44.7492 18.3282 52.1128Z" fill="white"/>
<path opacity="0.15" d="M18.3282 52.1128C12.7084 52.0454 9.07411 50.6382 7.52615 47.9308C6.65122 46.4012 6.2627 44.6024 6.2627 42.0939C6.26248 39.9067 6.57146 37.7304 7.18046 35.6298C7.23858 35.3973 7.29977 35.1709 7.35483 34.9414C7.83843 33.134 8.08928 31.2722 8.10128 29.4012C8.10128 26.4124 7.38542 24.4575 6.81641 23.3746L8.95785 17.6233C14.1585 15.8153 17.9183 10.6789 19.9098 7.3107C20.9825 7.76677 22.1368 7.99992 23.3025 7.99596C25.6519 7.99596 28.0412 7.12103 30.4274 5.39258L31.544 7.12408C30.7308 9.47522 30.3011 11.9419 30.2713 14.4295C30.2442 16.1023 30.5135 17.7667 31.0667 19.3456C31.1249 19.5108 31.186 19.676 31.2472 19.8412C31.6939 21.0649 32.116 22.2182 32.116 24.9929C32.1058 27.6873 31.6297 30.3596 30.7088 32.8918C28.8519 38.2821 24.6883 44.7492 18.3282 52.1128Z" fill="black"/>
<path opacity="0.8" d="M8.81445 49.4883C10.7295 51.177 13.9111 52.0611 18.3286 52.1131L15.5111 50.507C13.238 50.5378 10.9755 50.1937 8.81445 49.4883Z" fill="white"/>
<path opacity="0.15" d="M30.0717 6.27669L31.5402 7.12408L30.4236 5.39258L29.7842 5.8331L30.0717 6.27669Z" fill="black"/>
<path d="M29.5944 18.4986C29.0411 16.9197 28.7718 15.2553 28.799 13.5825C28.8288 11.0948 29.2584 8.62822 30.0716 6.27708L29.7841 5.8335C27.612 7.26826 25.44 7.99636 23.2986 7.99636C22.1329 8.00032 20.9786 7.76717 19.9059 7.31109C17.9144 10.6762 14.1546 15.8157 8.95395 17.6237L6.8125 23.375C7.38152 24.4579 8.09737 26.4128 8.09737 29.4016C8.08537 31.2726 7.83452 33.1344 7.35092 34.9418C7.29586 35.1713 7.23468 35.3977 7.17655 35.6302C6.56755 37.7308 6.25857 39.9071 6.25879 42.0943C6.25879 44.6028 6.64731 46.4016 7.52224 47.9312C7.98295 48.7191 8.60921 49.3975 9.35776 49.9197C11.2361 50.7763 13.7385 51.225 16.8651 51.2657C23.2221 43.8992 27.3857 37.4351 29.2426 32.0448C30.1638 29.5127 30.6399 26.8403 30.6498 24.1459C30.6498 21.3712 30.2246 20.2179 29.778 18.9942C29.7137 18.829 29.6525 18.6638 29.5944 18.4986Z" fill="#455A64"/>
<path d="M8.95395 17.6236L6.8125 23.3749C7.38152 24.4579 8.09737 26.4127 8.09737 29.4016C8.08537 31.2725 7.83452 33.1343 7.35092 34.9418C7.29586 35.1712 7.23468 35.3976 7.17655 35.6301C6.56755 37.7308 6.25857 39.907 6.25879 42.0942C6.25879 44.6027 6.64731 46.4016 7.52224 47.9312C7.98295 48.719 8.60921 49.3975 9.35776 49.9196C11.2361 50.7762 13.7385 51.2249 16.8651 51.2657V30.0654L19.9243 29.1476V7.31104C19.0212 8.84164 17.9982 10.2983 16.8651 11.6673C14.8246 14.1239 12.1631 16.507 8.95395 17.6236Z" fill="#37474F"/>
<path d="M24.2097 22.2402C24.1769 22.1802 24.1379 22.1238 24.0934 22.0719L24.0781 22.0536C23.9888 21.9564 23.8858 21.8729 23.7722 21.8058L22.7535 21.2184C22.5695 21.1153 22.3717 21.0391 22.1661 20.992C22.043 20.965 21.9184 20.9456 21.7929 20.9339V17.9175C21.7929 16.4032 21.2208 15.2071 20.2235 14.6319C19.2262 14.0568 18.0821 14.1547 16.9104 14.8399C14.7322 16.0973 13.0283 19.1657 13.0283 21.8241V25.385L10.997 26.5567C10.9366 26.5915 10.8792 26.6314 10.8256 26.676L10.7706 26.7188C10.6875 26.7853 10.6196 26.8689 10.5716 26.9639C10.5235 27.0589 10.4965 27.1631 10.4922 27.2695V39.4849C10.4933 39.5376 10.5005 39.5899 10.5136 39.6409C10.5776 39.8466 10.7133 40.0224 10.896 40.1365L11.0092 40.2099L11.5078 40.4975L12.031 40.8034C12.2352 40.9164 12.4562 40.9959 12.6856 41.039C13.3115 41.1773 13.9661 41.0929 14.5365 40.8004L23.7844 35.4621C23.9274 35.3987 24.0509 35.2984 24.1423 35.1715C24.2337 35.0447 24.2897 34.8957 24.3045 34.7401V22.5308C24.2972 22.4276 24.2646 22.3278 24.2097 22.2402ZM15.0168 21.8241C15.0168 19.8785 16.3383 17.4739 17.9016 16.5715C18.4339 16.2655 18.9111 16.186 19.214 16.3634C19.5719 16.5684 19.783 17.1496 19.783 17.9175V21.4784L17.1551 23.008L15.0137 24.2317L15.0168 21.8241Z" fill="#263238"/>
<path d="M25.3611 23.069C25.3466 22.9132 25.2908 22.7642 25.1993 22.6372C25.1079 22.5103 24.9842 22.4101 24.8411 22.347L23.8224 21.7566C23.4345 21.5584 23.0052 21.4551 22.5696 21.4551C22.1341 21.4551 21.7047 21.5584 21.3169 21.7566L12.0689 27.0949C11.9257 27.1588 11.8021 27.2596 11.7107 27.387C11.6193 27.5144 11.5634 27.6638 11.5488 27.8199V40.0353C11.5625 40.1917 11.618 40.3416 11.7095 40.4691C11.801 40.5967 11.9251 40.6973 12.0689 40.7604L13.0876 41.3508C13.4761 41.5468 13.9052 41.649 14.3404 41.649C14.7755 41.649 15.2046 41.5468 15.5931 41.3508L24.8411 36.0094C24.984 35.9461 25.1075 35.8458 25.1989 35.7189C25.2903 35.592 25.3463 35.4431 25.3611 35.2875V23.069Z" fill="#687CBB"/>
<path opacity="0.4" d="M13.0874 29.1479L12.0687 28.536C11.3742 28.1383 11.3742 27.4898 12.0687 27.089L21.3167 21.7507C21.7045 21.5526 22.1339 21.4492 22.5694 21.4492C23.005 21.4492 23.4343 21.5526 23.8221 21.7507L24.8409 22.3412C25.5322 22.7388 25.5322 23.3874 24.8409 23.7851L15.6082 29.1479C15.2177 29.3464 14.7858 29.4499 14.3478 29.4499C13.9097 29.4499 13.4779 29.3464 13.0874 29.1479Z" fill="white"/>
<path opacity="0.1" d="M14.3419 29.4325V41.6479C13.9046 41.6545 13.4728 41.5492 13.0876 41.342L12.0658 40.773C11.922 40.7095 11.7981 40.6083 11.707 40.4802C11.616 40.352 11.5614 40.2016 11.5488 40.0449V27.8203C11.5627 27.9758 11.618 28.1248 11.7089 28.2518C11.7998 28.3787 11.9231 28.479 12.0658 28.5423L13.0876 29.1327C13.4729 29.3391 13.9049 29.4423 14.3419 29.4325Z" fill="black"/>
<path d="M21.0719 35.4739L18.8631 36.7496L19.2058 32.7543C18.9427 32.6136 18.7744 32.271 18.7744 31.7784C18.7744 30.8974 19.3067 29.8756 19.9675 29.4963C20.6283 29.1169 21.1606 29.5177 21.1606 30.414C21.147 30.9346 20.9984 31.4427 20.7292 31.8886L21.0719 35.4739Z" fill="#455A64"/>
<path d="M21.072 35.4741L19.0713 34.3208L18.8633 36.7498L21.072 35.4741Z" fill="#37474F"/>
<path d="M19.967 29.4963C19.4861 29.8208 19.1275 30.2967 18.9482 30.8485L20.7287 31.8764C20.9979 31.4305 21.1465 30.9224 21.16 30.4018C21.16 29.5177 20.6277 29.1139 19.967 29.4963Z" fill="#37474F"/>
<path d="M22.8613 23.3352V18.4404C22.8613 16.9108 22.2892 15.73 21.2919 15.1549C20.2946 14.5797 19.1505 14.6807 17.9788 15.3629C15.8007 16.6202 14.0967 19.6886 14.0967 22.347V27.2571C14.1056 27.3468 14.1388 27.4323 14.1927 27.5046C14.2466 27.5768 14.3192 27.633 14.4026 27.667C14.6214 27.777 14.8629 27.8343 15.1077 27.8343C15.3526 27.8343 15.5941 27.777 15.8129 27.667C15.8963 27.633 15.9689 27.5768 16.0228 27.5046C16.0767 27.4323 16.1099 27.3468 16.1188 27.2571V22.3623C16.1188 20.4167 17.4404 18.0122 19.0036 17.1097C19.5359 16.8038 20.0162 16.7273 20.3191 16.9017C20.674 17.1066 20.8881 17.6879 20.8881 18.4557V23.3505C20.8977 23.4392 20.9313 23.5236 20.9852 23.5947C21.0391 23.6658 21.1112 23.721 21.194 23.7543C21.4128 23.8643 21.6543 23.9216 21.8992 23.9216C22.1441 23.9216 22.3856 23.8643 22.6043 23.7543C22.6864 23.7199 22.7579 23.6644 22.8116 23.5935C22.8653 23.5226 22.8994 23.4388 22.9102 23.3505L22.8613 23.3352Z" fill="#E0E0E0"/>
</svg>
