<svg width="59" height="43" viewBox="0 0 59 43" fill="none" xmlns="http://www.w3.org/2000/svg">
<path d="M56.2574 3.78482C56.1964 3.75259 56.1273 3.7388 56.0586 3.74512C55.9899 3.75143 55.9245 3.77759 55.8704 3.8204L55.092 4.34974L54.914 4.83015C54.87 4.9846 54.867 5.14785 54.9052 5.30384C54.9434 5.45982 55.0216 5.60317 55.132 5.71979C55.265 5.85831 55.387 6.00704 55.4967 6.16462C55.5743 6.2852 55.6964 6.3702 55.8365 6.40104C55.9765 6.43187 56.123 6.40605 56.244 6.3292L58.1123 5.10149C58.1655 5.0607 58.229 5.03538 58.2957 5.02831C58.3624 5.02125 58.4298 5.03272 58.4904 5.06146L56.2574 3.78482ZM53.3838 10.6351C53.1214 9.12713 52.1606 8.37093 50.9106 8.47324C51.034 8.75767 51.1206 9.05661 51.1686 9.36289C51.5823 11.7605 50.061 15.1456 47.7791 16.9516C47.1015 17.5322 46.2703 17.9045 45.3859 18.0236C46.1332 19.6294 48.0282 19.8029 49.9987 18.2326C52.2807 16.4311 53.7975 13.0327 53.3838 10.6351ZM53.4239 0.404166C53.3783 0.376293 53.3288 0.355308 53.2771 0.341891L51.8714 0.0260676C51.7168 -0.00218879 51.5573 0.0181359 51.4147 0.0842479C51.2721 0.15036 51.1535 0.259014 51.0752 0.395271L49.7407 2.91741C49.6658 3.04689 49.5661 3.16027 49.4472 3.25103C49.3807 3.31191 49.3058 3.36285 49.2248 3.40227L49.6384 4.77677C49.657 4.84365 49.69 4.90565 49.7351 4.95844C49.7802 5.01122 49.8363 5.0535 49.8994 5.08232C49.9626 5.11114 50.0312 5.1258 50.1007 5.12527C50.1701 5.12474 50.2385 5.10903 50.3012 5.07925C50.5835 4.96574 50.8733 4.8721 51.1686 4.79901C51.3502 4.74471 51.5194 4.65557 51.6668 4.53657C51.7959 4.44271 51.9023 4.32111 51.9782 4.18071L53.3127 1.66301C53.3915 1.52721 53.5101 1.41894 53.6526 1.35289C53.795 1.28684 53.9543 1.26621 54.1089 1.29381L55.519 1.60964C55.5675 1.61999 55.614 1.63801 55.6569 1.66301L53.4239 0.404166ZM49.465 24.7982C49.3984 24.7435 49.3516 24.6685 49.3315 24.5847L48.8644 23.0011C48.8466 22.9338 48.814 22.8713 48.769 22.8181C48.7241 22.7648 48.6679 22.7222 48.6045 22.6933C48.5411 22.6644 48.4721 22.6499 48.4025 22.6508C48.3328 22.6517 48.2642 22.6681 48.2017 22.6987C47.9124 22.8138 47.6151 22.9075 47.312 22.9789C47.2164 23.0041 47.125 23.043 47.0407 23.0946L47.1029 23.2992C47.1286 23.3994 47.1925 23.4856 47.2809 23.5394L49.465 24.7982ZM46.7693 1.66746C46.7222 1.63936 46.6685 1.62403 46.6136 1.62298C46.5182 1.62523 46.4267 1.66151 46.3556 1.72529L44.2472 3.38003C44.2184 3.40291 44.1916 3.4282 44.1671 3.45565L44.1093 3.51792C44.0355 3.62149 43.9742 3.73348 43.9269 3.85154C43.9269 3.87823 43.9269 3.90937 43.9002 3.93161C43.8627 4.04193 43.8432 4.15759 43.8424 4.27412L43.9714 6.27582C43.9718 6.62654 43.856 6.96751 43.6422 7.24553C43.2953 7.65922 42.9705 8.09514 42.6636 8.53997C42.5504 8.69786 42.3968 8.82233 42.2188 8.90027C42.1591 8.92622 42.0963 8.94417 42.032 8.95365C42.0025 8.95824 41.9725 8.95824 41.943 8.95365C41.9031 8.95809 41.8628 8.95809 41.8229 8.95365L40.4884 8.88693H40.4128C40.3774 8.88264 40.3415 8.88264 40.3061 8.88693C40.2721 8.88299 40.2377 8.88299 40.2038 8.88693C40.1652 8.89556 40.1278 8.90901 40.0925 8.92696C40.0226 8.96057 39.9569 9.00238 39.8968 9.05151C39.8048 9.12637 39.7304 9.22052 39.6789 9.3273L38.4067 12.1831C38.3528 12.3037 38.3448 12.4398 38.3841 12.5659C38.4234 12.692 38.5073 12.7995 38.6202 12.8681L40.1237 13.7355C40.1729 13.8583 40.1853 13.9928 40.1593 14.1225C40.056 14.5716 39.9772 15.026 39.9235 15.4836C39.8731 15.8302 39.7179 16.153 39.4787 16.4089L37.6327 18.1081C37.5974 18.1351 37.5672 18.1682 37.5437 18.206C37.5158 18.2449 37.4919 18.2866 37.4725 18.3305C37.3514 18.5355 37.3014 18.7747 37.3302 19.0111L37.6861 21.0439C37.6929 21.0989 37.7105 21.152 37.738 21.2001C37.7655 21.2482 37.8023 21.2904 37.8462 21.3242L40.0703 22.5964C40.0273 22.5641 39.9913 22.5234 39.9645 22.4767C39.9378 22.4301 39.9208 22.3784 39.9146 22.325L39.5232 20.3945C39.4969 20.2653 39.4969 20.1322 39.5232 20.003C39.5688 19.801 39.6705 19.616 39.8168 19.4693L41.6583 17.7745H41.6806C41.9186 17.5178 42.0736 17.1954 42.1254 16.8492C42.177 16.3913 42.2557 15.9367 42.3611 15.4881C42.3918 15.3379 42.3712 15.1818 42.3027 15.0447C42.2341 14.9076 42.1216 14.7975 41.983 14.7319L40.8888 14.2871C40.8222 14.2585 40.7619 14.2171 40.7114 14.1651C40.6609 14.113 40.6213 14.0515 40.5948 13.9841C40.5684 13.9166 40.5555 13.8446 40.5571 13.7721C40.5587 13.6997 40.5747 13.6282 40.6041 13.562L41.8763 10.7107C41.9278 10.6026 42.0022 10.507 42.0942 10.4305C42.2506 10.298 42.4498 10.2269 42.6547 10.2303L43.9892 10.297C44.1241 10.3004 44.2579 10.273 44.3806 10.2169C44.5591 10.142 44.7132 10.0188 44.8255 9.86109C45.1324 9.41627 45.4616 8.97144 45.8041 8.56666C46.0502 8.28892 46.189 7.9324 46.1955 7.56136L46.071 5.55966C46.0641 5.4419 46.0807 5.32396 46.1199 5.2127C46.1806 4.99971 46.3029 4.80939 46.4713 4.66556L48.5753 3.00638C48.6304 2.95458 48.7003 2.92119 48.7752 2.91083C48.8501 2.90047 48.9263 2.91365 48.9934 2.94855L46.7693 1.66746ZM43.6111 22.9389C43.6532 22.7839 43.6549 22.6208 43.6159 22.465C43.577 22.3093 43.4988 22.1661 43.3887 22.0492C43.2558 21.9117 43.1353 21.7629 43.0284 21.6044C42.9507 21.4828 42.8281 21.3968 42.6873 21.3651C42.5465 21.3335 42.3989 21.3587 42.2766 21.4354L41.2135 22.1337L40.4395 24.2288C40.3977 24.3311 40.3936 24.4449 40.4278 24.55C40.462 24.655 40.5324 24.7446 40.6263 24.8027L42.8504 26.0838C42.7529 26.0291 42.6795 25.9397 42.6448 25.8334C42.6102 25.727 42.6169 25.6116 42.6636 25.5099L43.6111 22.9389Z" fill="#687CBB"/>
<path opacity="0.7" d="M56.2574 3.78482C56.1964 3.75259 56.1273 3.7388 56.0586 3.74512C55.9899 3.75143 55.9245 3.77759 55.8704 3.8204L55.092 4.34974L54.914 4.83015C54.87 4.9846 54.867 5.14785 54.9052 5.30384C54.9434 5.45982 55.0216 5.60317 55.132 5.71979C55.265 5.85831 55.387 6.00704 55.4967 6.16462C55.5743 6.2852 55.6964 6.3702 55.8365 6.40104C55.9765 6.43187 56.123 6.40605 56.244 6.3292L58.1123 5.10149C58.1655 5.0607 58.229 5.03538 58.2957 5.02831C58.3624 5.02125 58.4298 5.03272 58.4904 5.06146L56.2574 3.78482ZM53.3838 10.6351C53.1214 9.12713 52.1606 8.37093 50.9106 8.47324C51.034 8.75767 51.1206 9.05661 51.1686 9.36289C51.5823 11.7605 50.061 15.1456 47.7791 16.9516C47.1015 17.5322 46.2703 17.9045 45.3859 18.0236C46.1332 19.6294 48.0282 19.8029 49.9987 18.2326C52.2807 16.4311 53.7975 13.0327 53.3838 10.6351ZM53.4239 0.404166C53.3783 0.376293 53.3288 0.355308 53.2771 0.341891L51.8714 0.0260676C51.7168 -0.00218879 51.5573 0.0181359 51.4147 0.0842479C51.2721 0.15036 51.1535 0.259014 51.0752 0.395271L49.7407 2.91741C49.6658 3.04689 49.5661 3.16027 49.4472 3.25103C49.3807 3.31191 49.3058 3.36285 49.2248 3.40227L49.6384 4.77677C49.657 4.84365 49.69 4.90565 49.7351 4.95844C49.7802 5.01122 49.8363 5.0535 49.8994 5.08232C49.9626 5.11114 50.0312 5.1258 50.1007 5.12527C50.1701 5.12474 50.2385 5.10903 50.3012 5.07925C50.5835 4.96574 50.8733 4.8721 51.1686 4.79901C51.3502 4.74471 51.5194 4.65557 51.6668 4.53657C51.7959 4.44271 51.9023 4.32111 51.9782 4.18071L53.3127 1.66301C53.3915 1.52721 53.5101 1.41894 53.6526 1.35289C53.795 1.28684 53.9543 1.26621 54.1089 1.29381L55.519 1.60964C55.5675 1.61999 55.614 1.63801 55.6569 1.66301L53.4239 0.404166ZM49.465 24.7982C49.3984 24.7435 49.3516 24.6685 49.3315 24.5847L48.8644 23.0011C48.8466 22.9338 48.814 22.8713 48.769 22.8181C48.7241 22.7648 48.6679 22.7222 48.6045 22.6933C48.5411 22.6644 48.4721 22.6499 48.4025 22.6508C48.3328 22.6517 48.2642 22.6681 48.2017 22.6987C47.9124 22.8138 47.6151 22.9075 47.312 22.9789C47.2164 23.0041 47.125 23.043 47.0407 23.0946L47.1029 23.2992C47.1286 23.3994 47.1925 23.4856 47.2809 23.5394L49.465 24.7982ZM46.7693 1.66746C46.7222 1.63936 46.6685 1.62403 46.6136 1.62298C46.5182 1.62523 46.4267 1.66151 46.3556 1.72529L44.2472 3.38003C44.2184 3.40291 44.1916 3.4282 44.1671 3.45565L44.1093 3.51792C44.0355 3.62149 43.9742 3.73348 43.9269 3.85154C43.9269 3.87823 43.9269 3.90937 43.9002 3.93161C43.8627 4.04193 43.8432 4.15759 43.8424 4.27412L43.9714 6.27582C43.9718 6.62654 43.856 6.96751 43.6422 7.24553C43.2953 7.65922 42.9705 8.09514 42.6636 8.53997C42.5504 8.69786 42.3968 8.82233 42.2188 8.90027C42.1591 8.92622 42.0963 8.94417 42.032 8.95365C42.0025 8.95824 41.9725 8.95824 41.943 8.95365C41.9031 8.95809 41.8628 8.95809 41.8229 8.95365L40.4884 8.88693H40.4128C40.3774 8.88264 40.3415 8.88264 40.3061 8.88693C40.2721 8.88299 40.2377 8.88299 40.2038 8.88693C40.1652 8.89556 40.1278 8.90901 40.0925 8.92696C40.0226 8.96057 39.9569 9.00238 39.8968 9.05151C39.8048 9.12637 39.7304 9.22052 39.6789 9.3273L38.4067 12.1831C38.3528 12.3037 38.3448 12.4398 38.3841 12.5659C38.4234 12.692 38.5073 12.7995 38.6202 12.8681L40.1237 13.7355C40.1729 13.8583 40.1853 13.9928 40.1593 14.1225C40.056 14.5716 39.9772 15.026 39.9235 15.4836C39.8731 15.8302 39.7179 16.153 39.4787 16.4089L37.6327 18.1081C37.5974 18.1351 37.5672 18.1682 37.5437 18.206C37.5158 18.2449 37.4919 18.2866 37.4725 18.3305C37.3514 18.5355 37.3014 18.7747 37.3302 19.0111L37.6861 21.0439C37.6929 21.0989 37.7105 21.152 37.738 21.2001C37.7655 21.2482 37.8023 21.2904 37.8462 21.3242L40.0703 22.5964C40.0273 22.5641 39.9913 22.5234 39.9645 22.4767C39.9378 22.4301 39.9208 22.3784 39.9146 22.325L39.5232 20.3945C39.4969 20.2653 39.4969 20.1322 39.5232 20.003C39.5688 19.801 39.6705 19.616 39.8168 19.4693L41.6583 17.7745H41.6806C41.9186 17.5178 42.0736 17.1954 42.1254 16.8492C42.177 16.3913 42.2557 15.9367 42.3611 15.4881C42.3918 15.3379 42.3712 15.1818 42.3027 15.0447C42.2341 14.9076 42.1216 14.7975 41.983 14.7319L40.8888 14.2871C40.8222 14.2585 40.7619 14.2171 40.7114 14.1651C40.6609 14.113 40.6213 14.0515 40.5948 13.9841C40.5684 13.9166 40.5555 13.8446 40.5571 13.7721C40.5587 13.6997 40.5747 13.6282 40.6041 13.562L41.8763 10.7107C41.9278 10.6026 42.0022 10.507 42.0942 10.4305C42.2506 10.298 42.4498 10.2269 42.6547 10.2303L43.9892 10.297C44.1241 10.3004 44.2579 10.273 44.3806 10.2169C44.5591 10.142 44.7132 10.0188 44.8255 9.86109C45.1324 9.41627 45.4616 8.97144 45.8041 8.56666C46.0502 8.28892 46.189 7.9324 46.1955 7.56136L46.071 5.55966C46.0641 5.4419 46.0807 5.32396 46.1199 5.2127C46.1806 4.99971 46.3029 4.80939 46.4713 4.66556L48.5753 3.00638C48.6304 2.95458 48.7003 2.92119 48.7752 2.91083C48.8501 2.90047 48.9263 2.91365 48.9934 2.94855L46.7693 1.66746ZM43.6111 22.9389C43.6532 22.7839 43.6549 22.6208 43.6159 22.465C43.577 22.3093 43.4988 22.1661 43.3887 22.0492C43.2558 21.9117 43.1353 21.7629 43.0284 21.6044C42.9507 21.4828 42.8281 21.3968 42.6873 21.3651C42.5465 21.3335 42.3989 21.3587 42.2766 21.4354L41.2135 22.1337L40.4395 24.2288C40.3977 24.3311 40.3936 24.4449 40.4278 24.55C40.462 24.655 40.5324 24.7446 40.6263 24.8027L42.8504 26.0838C42.7529 26.0291 42.6795 25.9397 42.6448 25.8334C42.6102 25.727 42.6169 25.6116 42.6636 25.5099L43.6111 22.9389Z" fill="white"/>
<path opacity="0.05" d="M56.2574 3.78482C56.1964 3.75259 56.1273 3.7388 56.0586 3.74512C55.9899 3.75143 55.9245 3.77759 55.8704 3.8204L55.092 4.34974L54.914 4.83015C54.87 4.9846 54.867 5.14785 54.9052 5.30384C54.9434 5.45982 55.0216 5.60317 55.132 5.71979C55.265 5.85831 55.387 6.00704 55.4967 6.16462C55.5743 6.2852 55.6964 6.3702 55.8365 6.40104C55.9765 6.43187 56.123 6.40605 56.244 6.3292L58.1123 5.10149C58.1655 5.0607 58.229 5.03538 58.2957 5.02831C58.3624 5.02125 58.4298 5.03272 58.4904 5.06146L56.2574 3.78482ZM53.3838 10.6351C53.1214 9.12713 52.1606 8.37093 50.9106 8.47324C51.034 8.75767 51.1206 9.05661 51.1686 9.36289C51.5823 11.7605 50.061 15.1456 47.7791 16.9516C47.1015 17.5322 46.2703 17.9045 45.3859 18.0236C46.1332 19.6294 48.0282 19.8029 49.9987 18.2326C52.2807 16.4311 53.7975 13.0327 53.3838 10.6351ZM53.4239 0.404166C53.3783 0.376293 53.3288 0.355308 53.2771 0.341891L51.8714 0.0260676C51.7168 -0.00218879 51.5573 0.0181359 51.4147 0.0842479C51.2721 0.15036 51.1535 0.259014 51.0752 0.395271L49.7407 2.91741C49.6658 3.04689 49.5661 3.16027 49.4472 3.25103C49.3807 3.31191 49.3058 3.36285 49.2248 3.40227L49.6384 4.77677C49.657 4.84365 49.69 4.90565 49.7351 4.95844C49.7802 5.01122 49.8363 5.0535 49.8994 5.08232C49.9626 5.11114 50.0312 5.1258 50.1007 5.12527C50.1701 5.12474 50.2385 5.10903 50.3012 5.07925C50.5835 4.96574 50.8733 4.8721 51.1686 4.79901C51.3502 4.74471 51.5194 4.65557 51.6668 4.53657C51.7959 4.44271 51.9023 4.32111 51.9782 4.18071L53.3127 1.66301C53.3915 1.52721 53.5101 1.41894 53.6526 1.35289C53.795 1.28684 53.9543 1.26621 54.1089 1.29381L55.519 1.60964C55.5675 1.61999 55.614 1.63801 55.6569 1.66301L53.4239 0.404166ZM49.465 24.7982C49.3984 24.7435 49.3516 24.6685 49.3315 24.5847L48.8644 23.0011C48.8466 22.9338 48.814 22.8713 48.769 22.8181C48.7241 22.7648 48.6679 22.7222 48.6045 22.6933C48.5411 22.6644 48.4721 22.6499 48.4025 22.6508C48.3328 22.6517 48.2642 22.6681 48.2017 22.6987C47.9124 22.8138 47.6151 22.9075 47.312 22.9789C47.2164 23.0041 47.125 23.043 47.0407 23.0946L47.1029 23.2992C47.1286 23.3994 47.1925 23.4856 47.2809 23.5394L49.465 24.7982ZM46.7693 1.66746C46.7222 1.63936 46.6685 1.62403 46.6136 1.62298C46.5182 1.62523 46.4267 1.66151 46.3556 1.72529L44.2472 3.38003C44.2184 3.40291 44.1916 3.4282 44.1671 3.45565L44.1093 3.51792C44.0355 3.62149 43.9742 3.73348 43.9269 3.85154C43.9269 3.87823 43.9269 3.90937 43.9002 3.93161C43.8627 4.04193 43.8432 4.15759 43.8424 4.27412L43.9714 6.27582C43.9718 6.62654 43.856 6.96751 43.6422 7.24553C43.2953 7.65922 42.9705 8.09514 42.6636 8.53997C42.5504 8.69786 42.3968 8.82233 42.2188 8.90027C42.1591 8.92622 42.0963 8.94417 42.032 8.95365C42.0025 8.95824 41.9725 8.95824 41.943 8.95365C41.9031 8.95809 41.8628 8.95809 41.8229 8.95365L40.4884 8.88693H40.4128C40.3774 8.88264 40.3415 8.88264 40.3061 8.88693C40.2721 8.88299 40.2377 8.88299 40.2038 8.88693C40.1652 8.89556 40.1278 8.90901 40.0925 8.92696C40.0226 8.96057 39.9569 9.00238 39.8968 9.05151C39.8048 9.12637 39.7304 9.22052 39.6789 9.3273L38.4067 12.1831C38.3528 12.3037 38.3448 12.4398 38.3841 12.5659C38.4234 12.692 38.5073 12.7995 38.6202 12.8681L40.1237 13.7355C40.1729 13.8583 40.1853 13.9928 40.1593 14.1225C40.056 14.5716 39.9772 15.026 39.9235 15.4836C39.8731 15.8302 39.7179 16.153 39.4787 16.4089L37.6327 18.1081C37.5974 18.1351 37.5672 18.1682 37.5437 18.206C37.5158 18.2449 37.4919 18.2866 37.4725 18.3305C37.3514 18.5355 37.3014 18.7747 37.3302 19.0111L37.6861 21.0439C37.6929 21.0989 37.7105 21.152 37.738 21.2001C37.7655 21.2482 37.8023 21.2904 37.8462 21.3242L40.0703 22.5964C40.0273 22.5641 39.9913 22.5234 39.9645 22.4767C39.9378 22.4301 39.9208 22.3784 39.9146 22.325L39.5232 20.3945C39.4969 20.2653 39.4969 20.1322 39.5232 20.003C39.5688 19.801 39.6705 19.616 39.8168 19.4693L41.6583 17.7745H41.6806C41.9186 17.5178 42.0736 17.1954 42.1254 16.8492C42.177 16.3913 42.2557 15.9367 42.3611 15.4881C42.3918 15.3379 42.3712 15.1818 42.3027 15.0447C42.2341 14.9076 42.1216 14.7975 41.983 14.7319L40.8888 14.2871C40.8222 14.2585 40.7619 14.2171 40.7114 14.1651C40.6609 14.113 40.6213 14.0515 40.5948 13.9841C40.5684 13.9166 40.5555 13.8446 40.5571 13.7721C40.5587 13.6997 40.5747 13.6282 40.6041 13.562L41.8763 10.7107C41.9278 10.6026 42.0022 10.507 42.0942 10.4305C42.2506 10.298 42.4498 10.2269 42.6547 10.2303L43.9892 10.297C44.1241 10.3004 44.2579 10.273 44.3806 10.2169C44.5591 10.142 44.7132 10.0188 44.8255 9.86109C45.1324 9.41627 45.4616 8.97144 45.8041 8.56666C46.0502 8.28892 46.189 7.9324 46.1955 7.56136L46.071 5.55966C46.0641 5.4419 46.0807 5.32396 46.1199 5.2127C46.1806 4.99971 46.3029 4.80939 46.4713 4.66556L48.5753 3.00638C48.6304 2.95458 48.7003 2.92119 48.7752 2.91083C48.8501 2.90047 48.9263 2.91365 48.9934 2.94855L46.7693 1.66746ZM43.6111 22.9389C43.6532 22.7839 43.6549 22.6208 43.6159 22.465C43.577 22.3093 43.4988 22.1661 43.3887 22.0492C43.2558 21.9117 43.1353 21.7629 43.0284 21.6044C42.9507 21.4828 42.8281 21.3968 42.6873 21.3651C42.5465 21.3335 42.3989 21.3587 42.2766 21.4354L41.2135 22.1337L40.4395 24.2288C40.3977 24.3311 40.3936 24.4449 40.4278 24.55C40.462 24.655 40.5324 24.7446 40.6263 24.8027L42.8504 26.0838C42.7529 26.0291 42.6795 25.9397 42.6448 25.8334C42.6102 25.727 42.6169 25.6116 42.6636 25.5099L43.6111 22.9389Z" fill="black"/>
<path d="M41.662 17.7745L39.8204 19.4693C39.6742 19.616 39.5724 19.801 39.5268 20.0031L37.3027 18.7264C37.3277 18.6244 37.3651 18.5258 37.4139 18.4329C37.4333 18.389 37.4572 18.3473 37.4851 18.3083C37.5086 18.2706 37.5388 18.2375 37.5741 18.2105L39.4201 16.5112L41.662 17.7745Z" fill="#687CBB"/>
<path d="M44.4158 10.1811C44.293 10.2371 44.1592 10.2645 44.0243 10.2612L42.6899 10.1945C42.4849 10.191 42.2858 10.2622 42.1294 10.3946L39.9053 9.11799C39.9653 9.06886 40.031 9.02705 40.101 8.99344C40.1362 8.97549 40.1736 8.96204 40.2122 8.95341C40.2462 8.94947 40.2805 8.94947 40.3145 8.95341C40.35 8.94912 40.3858 8.94912 40.4213 8.95341H40.4569L41.7913 9.02013C41.8312 9.02458 41.8715 9.02458 41.9114 9.02013H42.0004C42.0611 9.00557 42.1206 8.98623 42.1783 8.96231L44.4158 10.1811Z" fill="#687CBB"/>
<path d="M58.4682 5.07022C58.4077 5.03998 58.3397 5.02807 58.2725 5.03598C58.2054 5.04388 58.142 5.07124 58.0901 5.1147L56.2219 6.34242C56.0998 6.41845 55.9524 6.44289 55.8123 6.41036C55.6722 6.37783 55.5507 6.29099 55.4746 6.16893C55.3639 6.01202 55.242 5.86336 55.1098 5.72411C54.9994 5.60749 54.9212 5.46414 54.883 5.30815C54.8448 5.15217 54.8478 4.98892 54.8919 4.83447L55.0698 4.36296L55.8705 3.83362C55.9246 3.79081 55.99 3.76465 56.0587 3.75833C56.1274 3.75201 56.1964 3.76581 56.2575 3.79803L58.4682 5.07022Z" fill="#687CBB"/>
<path d="M55.6337 1.67158C55.5908 1.64658 55.5443 1.62856 55.4958 1.6182L54.0857 1.30238C53.9311 1.27478 53.7718 1.29541 53.6294 1.36146C53.4869 1.42751 53.3682 1.53578 53.2894 1.67158L51.9772 4.18038C51.9036 4.3146 51.8019 4.43141 51.6792 4.52289L49.4551 3.23736C49.574 3.1466 49.6738 3.03322 49.7487 2.90374L51.0831 0.381597C51.1614 0.24534 51.28 0.136688 51.4226 0.0705761C51.5652 0.00446407 51.7248 -0.0158607 51.8794 0.0123957L53.285 0.328219C53.3367 0.341637 53.3862 0.362621 53.4318 0.390494L55.6337 1.67158Z" fill="#687CBB"/>
<path d="M48.9883 2.94856C48.9212 2.91367 48.8449 2.90049 48.77 2.91085C48.6951 2.92121 48.6253 2.9546 48.5702 3.00639L46.4661 4.66558C46.2977 4.8094 46.1755 4.99973 46.1147 5.21271L43.8906 3.93607C43.8906 3.91383 43.8906 3.88269 43.9173 3.856C43.9646 3.73795 44.0259 3.62595 44.0997 3.52239L44.1575 3.46011C44.182 3.43267 44.2088 3.40737 44.2376 3.38449L46.346 1.72975C46.4171 1.66598 46.5086 1.62969 46.604 1.62744C46.6589 1.62849 46.7126 1.64382 46.7597 1.67192L48.9883 2.94856Z" fill="#687CBB"/>
<path opacity="0.9" d="M41.662 17.7745L39.8204 19.4693C39.6742 19.616 39.5724 19.801 39.5268 20.0031L37.3027 18.7264C37.3277 18.6244 37.3651 18.5258 37.4139 18.4329C37.4333 18.389 37.4572 18.3473 37.4851 18.3083C37.5086 18.2706 37.5388 18.2375 37.5741 18.2105L39.4201 16.5112L41.662 17.7745Z" fill="white"/>
<path opacity="0.9" d="M44.4158 10.1811C44.293 10.2371 44.1592 10.2645 44.0243 10.2612L42.6899 10.1945C42.4849 10.191 42.2858 10.2622 42.1294 10.3946L39.9053 9.11799C39.9653 9.06886 40.031 9.02705 40.101 8.99344C40.1362 8.97549 40.1736 8.96204 40.2122 8.95341C40.2462 8.94947 40.2805 8.94947 40.3145 8.95341C40.35 8.94912 40.3858 8.94912 40.4213 8.95341H40.4569L41.7913 9.02013C41.8312 9.02458 41.8715 9.02458 41.9114 9.02013H42.0004C42.0611 9.00557 42.1206 8.98623 42.1783 8.96231L44.4158 10.1811Z" fill="white"/>
<path opacity="0.9" d="M58.4682 5.07022C58.4077 5.03998 58.3397 5.02807 58.2725 5.03598C58.2054 5.04388 58.142 5.07124 58.0901 5.1147L56.2219 6.34242C56.0998 6.41845 55.9524 6.44289 55.8123 6.41036C55.6722 6.37783 55.5507 6.29099 55.4746 6.16893C55.3639 6.01202 55.242 5.86336 55.1098 5.72411C54.9994 5.60749 54.9212 5.46414 54.883 5.30815C54.8448 5.15217 54.8478 4.98892 54.8919 4.83447L55.0698 4.36296L55.8705 3.83362C55.9246 3.79081 55.99 3.76465 56.0587 3.75833C56.1274 3.75201 56.1964 3.76581 56.2575 3.79803L58.4682 5.07022Z" fill="white"/>
<path opacity="0.9" d="M55.6337 1.67158C55.5908 1.64658 55.5443 1.62856 55.4958 1.6182L54.0857 1.30238C53.9311 1.27478 53.7718 1.29541 53.6294 1.36146C53.4869 1.42751 53.3682 1.53578 53.2894 1.67158L51.9772 4.18038C51.9036 4.3146 51.8019 4.43141 51.6792 4.52289L49.4551 3.23736C49.574 3.1466 49.6738 3.03322 49.7487 2.90374L51.0831 0.381597C51.1614 0.24534 51.28 0.136688 51.4226 0.0705761C51.5652 0.00446407 51.7248 -0.0158607 51.8794 0.0123957L53.285 0.328219C53.3367 0.341637 53.3862 0.362621 53.4318 0.390494L55.6337 1.67158Z" fill="white"/>
<path opacity="0.9" d="M48.9883 2.94856C48.9212 2.91367 48.8449 2.90049 48.77 2.91085C48.6951 2.92121 48.6253 2.9546 48.5702 3.00639L46.4661 4.66558C46.2977 4.8094 46.1755 4.99973 46.1147 5.21271L43.8906 3.93607C43.8906 3.91383 43.8906 3.88269 43.9173 3.856C43.9646 3.73795 44.0259 3.62595 44.0997 3.52239L44.1575 3.46011C44.182 3.43267 44.2088 3.40737 44.2376 3.38449L46.346 1.72975C46.4171 1.66598 46.5086 1.62969 46.604 1.62744C46.6589 1.62849 46.7126 1.64382 46.7597 1.67192L48.9883 2.94856Z" fill="white"/>
<path d="M58.9918 7.37872L58.6493 5.34588C58.6477 5.2822 58.6279 5.2203 58.5922 5.16752C58.5565 5.11473 58.5065 5.07325 58.448 5.04799C58.3896 5.02272 58.3251 5.01473 58.2622 5.02496C58.1993 5.03518 58.1407 5.06319 58.0932 5.10568L56.2294 6.33339C56.1078 6.40983 55.9609 6.43496 55.8208 6.40327C55.6808 6.37159 55.559 6.28568 55.4821 6.16435C55.3724 6.00671 55.2505 5.85797 55.1174 5.71953C55.0066 5.60315 54.9282 5.45981 54.8899 5.30373C54.8517 5.14766 54.8549 4.9843 54.8994 4.82989L55.8513 2.25437C55.8823 2.1906 55.8976 2.12035 55.896 2.04948C55.8943 1.9786 55.8757 1.90915 55.8418 1.84691C55.8078 1.78467 55.7595 1.73144 55.7008 1.69167C55.6421 1.6519 55.5747 1.62674 55.5044 1.61827L54.0987 1.30245C53.9441 1.27352 53.7843 1.29354 53.6416 1.35972C53.4988 1.42589 53.3803 1.53493 53.3025 1.67165L51.9769 4.18045C51.7951 4.47236 51.5113 4.68636 51.1807 4.78096C50.8857 4.85699 50.596 4.95209 50.3133 5.06564C50.2506 5.09543 50.1821 5.11113 50.1127 5.11166C50.0433 5.11219 49.9746 5.09753 49.9115 5.06872C49.8483 5.0399 49.7922 4.99761 49.7472 4.94483C49.7021 4.89205 49.6691 4.83004 49.6505 4.76316L49.1745 3.18849C49.1627 3.12545 49.1341 3.06677 49.0916 3.01867C49.0492 2.97057 48.9946 2.93483 48.9335 2.91523C48.8724 2.89563 48.8072 2.8929 48.7447 2.90734C48.6822 2.92177 48.6248 2.95283 48.5785 2.99722L46.4745 4.65641C46.3472 4.76677 46.2454 4.90351 46.1763 5.05714C46.1072 5.21076 46.0723 5.3776 46.0741 5.54605L46.1987 7.54775C46.199 7.89847 46.0833 8.23944 45.8695 8.51746C45.527 8.93115 45.1978 9.36263 44.8909 9.8119C44.7926 9.94701 44.6643 10.0575 44.5161 10.1347C44.368 10.2118 44.2039 10.2536 44.0368 10.2567L42.7024 10.19C42.5425 10.1925 42.3862 10.238 42.25 10.3217C42.1138 10.4055 42.0027 10.5244 41.9284 10.666L40.6206 13.5217C40.5913 13.5876 40.5754 13.6587 40.5738 13.7309C40.5723 13.803 40.5852 13.8747 40.6117 13.9418C40.6382 14.0089 40.6778 14.07 40.7282 14.1216C40.7786 14.1732 40.8388 14.2143 40.9053 14.2423L41.9996 14.7094C42.1383 14.7744 42.2509 14.8847 42.3188 15.0221C42.3866 15.1595 42.4058 15.3159 42.3732 15.4656C42.271 15.9147 42.1938 16.3691 42.1419 16.8267C42.092 17.1735 41.9367 17.4965 41.6971 17.752L39.8288 19.469C39.712 19.5889 39.6235 19.7335 39.5696 19.892C39.5157 20.0505 39.4979 20.219 39.5174 20.3853L39.8689 22.4226C39.8705 22.4863 39.8902 22.5482 39.9259 22.601C39.9616 22.6538 40.0116 22.6952 40.0701 22.7205C40.1285 22.7458 40.193 22.7538 40.2559 22.7435C40.3188 22.7333 40.3774 22.7053 40.4249 22.6628L42.2887 21.4351C42.3487 21.3967 42.4158 21.3705 42.486 21.3582C42.5562 21.3459 42.6282 21.3477 42.6977 21.3634C42.7672 21.3791 42.8329 21.4085 42.891 21.4498C42.9491 21.4912 42.9983 21.5436 43.036 21.6041C43.1469 21.7609 43.2688 21.9095 43.4007 22.049C43.5108 22.1658 43.5887 22.3092 43.6269 22.4651C43.6651 22.621 43.6623 22.7841 43.6187 22.9386L42.6356 25.5319C42.6102 25.5968 42.5994 25.6665 42.6039 25.736C42.6084 25.8056 42.628 25.8733 42.6616 25.9344C42.6951 25.9955 42.7416 26.0485 42.7978 26.0896C42.8541 26.1307 42.9187 26.159 42.9871 26.1725L44.3927 26.4883C44.5473 26.5165 44.7069 26.4962 44.8494 26.4301C44.992 26.364 45.1106 26.2553 45.1889 26.1191L46.5234 23.5969C46.7065 23.3062 46.9897 23.0926 47.3196 22.9964C47.6228 22.9235 47.9201 22.8283 48.2093 22.7117C48.272 22.682 48.3404 22.6663 48.4098 22.6657C48.4793 22.6652 48.5479 22.6799 48.6111 22.7087C48.6742 22.7375 48.7303 22.7798 48.7754 22.8326C48.8205 22.8853 48.8535 22.9473 48.8721 23.0142L49.348 24.5933C49.3591 24.6569 49.3874 24.7162 49.43 24.7647C49.4725 24.8132 49.5276 24.8491 49.5891 24.8684C49.6507 24.8877 49.7164 24.8897 49.779 24.8741C49.8416 24.8585 49.8987 24.826 49.9441 24.7802L52.0481 23.1254C52.1754 23.0151 52.2771 22.8783 52.3462 22.7247C52.4154 22.5711 52.4502 22.4042 52.4484 22.2358L52.3239 20.2341C52.3242 19.8821 52.4398 19.5399 52.653 19.2599C53.0014 18.8456 53.328 18.4136 53.6317 17.9655C53.7306 17.83 53.8597 17.7194 54.0086 17.6422C54.1576 17.565 54.3224 17.5234 54.4902 17.5207L55.8246 17.5874C55.9885 17.5828 56.1479 17.533 56.2853 17.4435C56.4227 17.354 56.5326 17.2283 56.6031 17.0803L57.8753 14.229C57.9047 14.1628 57.9206 14.0913 57.9222 14.0189C57.9238 13.9464 57.911 13.8744 57.8845 13.8069C57.858 13.7395 57.8184 13.678 57.7679 13.6259C57.7175 13.5739 57.6572 13.5324 57.5906 13.5039L56.4963 13.0591C56.3579 12.9949 56.2455 12.8854 56.1776 12.7488C56.1097 12.6122 56.0903 12.4565 56.1227 12.3074C56.225 11.8625 56.305 11.391 56.3584 10.9462C56.4069 10.599 56.5624 10.2756 56.8032 10.021L58.6715 8.30395C58.7909 8.18363 58.8816 8.03799 58.9371 7.87783C58.9925 7.71767 59.0112 7.54709 58.9918 7.37872ZM49.9975 18.2279C47.7111 20.0072 45.527 19.5357 45.1044 17.1381C44.6818 14.7405 46.2076 11.3554 48.494 9.545C50.7803 7.73458 52.9422 8.23723 53.387 10.6348C53.8318 13.0324 52.2794 16.4309 49.9975 18.2279Z" fill="#687CBB"/>
<path opacity="0.75" d="M58.9918 7.37872L58.6493 5.34588C58.6477 5.2822 58.6279 5.2203 58.5922 5.16752C58.5565 5.11473 58.5065 5.07325 58.448 5.04799C58.3896 5.02272 58.3251 5.01473 58.2622 5.02496C58.1993 5.03518 58.1407 5.06319 58.0932 5.10568L56.2294 6.33339C56.1078 6.40983 55.9609 6.43496 55.8208 6.40327C55.6808 6.37159 55.559 6.28568 55.4821 6.16435C55.3724 6.00671 55.2505 5.85797 55.1174 5.71953C55.0066 5.60315 54.9282 5.45981 54.8899 5.30373C54.8517 5.14766 54.8549 4.9843 54.8994 4.82989L55.8513 2.25437C55.8823 2.1906 55.8976 2.12035 55.896 2.04948C55.8943 1.9786 55.8757 1.90915 55.8418 1.84691C55.8078 1.78467 55.7595 1.73144 55.7008 1.69167C55.6421 1.6519 55.5747 1.62674 55.5044 1.61827L54.0987 1.30245C53.9441 1.27352 53.7843 1.29354 53.6416 1.35972C53.4988 1.42589 53.3803 1.53493 53.3025 1.67165L51.9769 4.18045C51.7951 4.47236 51.5113 4.68636 51.1807 4.78096C50.8857 4.85699 50.596 4.95209 50.3133 5.06564C50.2506 5.09543 50.1821 5.11113 50.1127 5.11166C50.0433 5.11219 49.9746 5.09753 49.9115 5.06872C49.8483 5.0399 49.7922 4.99761 49.7472 4.94483C49.7021 4.89205 49.6691 4.83004 49.6505 4.76316L49.1745 3.18849C49.1627 3.12545 49.1341 3.06677 49.0916 3.01867C49.0492 2.97057 48.9946 2.93483 48.9335 2.91523C48.8724 2.89563 48.8072 2.8929 48.7447 2.90734C48.6822 2.92177 48.6248 2.95283 48.5785 2.99722L46.4745 4.65641C46.3472 4.76677 46.2454 4.90351 46.1763 5.05714C46.1072 5.21076 46.0723 5.3776 46.0741 5.54605L46.1987 7.54775C46.199 7.89847 46.0833 8.23944 45.8695 8.51746C45.527 8.93115 45.1978 9.36263 44.8909 9.8119C44.7926 9.94701 44.6643 10.0575 44.5161 10.1347C44.368 10.2118 44.2039 10.2536 44.0368 10.2567L42.7024 10.19C42.5425 10.1925 42.3862 10.238 42.25 10.3217C42.1138 10.4055 42.0027 10.5244 41.9284 10.666L40.6206 13.5217C40.5913 13.5876 40.5754 13.6587 40.5738 13.7309C40.5723 13.803 40.5852 13.8747 40.6117 13.9418C40.6382 14.0089 40.6778 14.07 40.7282 14.1216C40.7786 14.1732 40.8388 14.2143 40.9053 14.2423L41.9996 14.7094C42.1383 14.7744 42.2509 14.8847 42.3188 15.0221C42.3866 15.1595 42.4058 15.3159 42.3732 15.4656C42.271 15.9147 42.1938 16.3691 42.1419 16.8267C42.092 17.1735 41.9367 17.4965 41.6971 17.752L39.8288 19.469C39.712 19.5889 39.6235 19.7335 39.5696 19.892C39.5157 20.0505 39.4979 20.219 39.5174 20.3853L39.8689 22.4226C39.8705 22.4863 39.8902 22.5482 39.9259 22.601C39.9616 22.6538 40.0116 22.6952 40.0701 22.7205C40.1285 22.7458 40.193 22.7538 40.2559 22.7435C40.3188 22.7333 40.3774 22.7053 40.4249 22.6628L42.2887 21.4351C42.3487 21.3967 42.4158 21.3705 42.486 21.3582C42.5562 21.3459 42.6282 21.3477 42.6977 21.3634C42.7672 21.3791 42.8329 21.4085 42.891 21.4498C42.9491 21.4912 42.9983 21.5436 43.036 21.6041C43.1469 21.7609 43.2688 21.9095 43.4007 22.049C43.5108 22.1658 43.5887 22.3092 43.6269 22.4651C43.6651 22.621 43.6623 22.7841 43.6187 22.9386L42.6356 25.5319C42.6102 25.5968 42.5994 25.6665 42.6039 25.736C42.6084 25.8056 42.628 25.8733 42.6616 25.9344C42.6951 25.9955 42.7416 26.0485 42.7978 26.0896C42.8541 26.1307 42.9187 26.159 42.9871 26.1725L44.3927 26.4883C44.5473 26.5165 44.7069 26.4962 44.8494 26.4301C44.992 26.364 45.1106 26.2553 45.1889 26.1191L46.5234 23.5969C46.7065 23.3062 46.9897 23.0926 47.3196 22.9964C47.6228 22.9235 47.9201 22.8283 48.2093 22.7117C48.272 22.682 48.3404 22.6663 48.4098 22.6657C48.4793 22.6652 48.5479 22.6799 48.6111 22.7087C48.6742 22.7375 48.7303 22.7798 48.7754 22.8326C48.8205 22.8853 48.8535 22.9473 48.8721 23.0142L49.348 24.5933C49.3591 24.6569 49.3874 24.7162 49.43 24.7647C49.4725 24.8132 49.5276 24.8491 49.5891 24.8684C49.6507 24.8877 49.7164 24.8897 49.779 24.8741C49.8416 24.8585 49.8987 24.826 49.9441 24.7802L52.0481 23.1254C52.1754 23.0151 52.2771 22.8783 52.3462 22.7247C52.4154 22.5711 52.4502 22.4042 52.4484 22.2358L52.3239 20.2341C52.3242 19.8821 52.4398 19.5399 52.653 19.2599C53.0014 18.8456 53.328 18.4136 53.6317 17.9655C53.7306 17.83 53.8597 17.7194 54.0086 17.6422C54.1576 17.565 54.3224 17.5234 54.4902 17.5207L55.8246 17.5874C55.9885 17.5828 56.1479 17.533 56.2853 17.4435C56.4227 17.354 56.5326 17.2283 56.6031 17.0803L57.8753 14.229C57.9047 14.1628 57.9206 14.0913 57.9222 14.0189C57.9238 13.9464 57.911 13.8744 57.8845 13.8069C57.858 13.7395 57.8184 13.678 57.7679 13.6259C57.7175 13.5739 57.6572 13.5324 57.5906 13.5039L56.4963 13.0591C56.3579 12.9949 56.2455 12.8854 56.1776 12.7488C56.1097 12.6122 56.0903 12.4565 56.1227 12.3074C56.225 11.8625 56.305 11.391 56.3584 10.9462C56.4069 10.599 56.5624 10.2756 56.8032 10.021L58.6715 8.30395C58.7909 8.18363 58.8816 8.03799 58.9371 7.87783C58.9925 7.71767 59.0112 7.54709 58.9918 7.37872ZM49.9975 18.2279C47.7111 20.0072 45.527 19.5357 45.1044 17.1381C44.6818 14.7405 46.2076 11.3554 48.494 9.545C50.7803 7.73458 52.9422 8.23723 53.387 10.6348C53.8318 13.0324 52.2794 16.4309 49.9975 18.2279Z" fill="white"/>
<path d="M29.6209 7.19215C29.5255 7.14252 29.4178 7.12118 29.3107 7.13063C29.2035 7.14009 29.1013 7.17995 29.016 7.24553L27.766 8.06845L27.5125 8.8202C27.4444 9.06137 27.4401 9.31611 27.5002 9.55942C27.5602 9.80272 27.6825 10.0262 27.855 10.208C28.0534 10.4278 28.2362 10.6612 28.4021 10.9064C28.4618 11.0004 28.5395 11.0816 28.6307 11.1455C28.7219 11.2093 28.8248 11.2545 28.9335 11.2785C29.0422 11.3025 29.1545 11.3047 29.2641 11.2852C29.3737 11.2656 29.4783 11.2245 29.572 11.1644L32.4856 9.24723C32.5687 9.18285 32.668 9.14291 32.7725 9.13191C32.877 9.12091 32.9826 9.13928 33.0772 9.18495L29.6209 7.19215ZM25.1371 17.8679C24.7279 15.5103 23.2244 14.3093 21.2716 14.4872C21.4617 14.9304 21.5976 15.3949 21.6764 15.8706C22.3214 19.6383 19.9505 24.945 16.3919 27.7563C15.3331 28.6606 14.0356 29.2398 12.6554 29.4244C13.8253 31.9376 16.7834 32.1734 19.8571 29.7535C23.4157 26.9467 25.7821 21.6355 25.1371 17.8901V17.8679ZM25.1994 1.85428C25.1283 1.80993 25.05 1.77832 24.9681 1.76087L22.7751 1.26711C22.5332 1.22332 22.2837 1.25538 22.0607 1.3589C21.8378 1.46242 21.6523 1.63234 21.5296 1.84538L19.4656 5.82654C19.3536 6.02925 19.2024 6.20766 19.0208 6.35143C18.9135 6.44372 18.7955 6.52286 18.6694 6.58719L19.3144 8.73568C19.3441 8.83984 19.3961 8.93629 19.4667 9.01837C19.5374 9.10045 19.625 9.16619 19.7236 9.21103C19.8222 9.25588 19.9294 9.27877 20.0377 9.2781C20.146 9.27744 20.2528 9.25324 20.3508 9.20719C20.7858 9.03091 21.2315 8.88233 21.6853 8.76237C21.971 8.67968 22.2372 8.54052 22.4682 8.35313C22.6506 8.20841 22.8019 8.02837 22.913 7.82379L24.9725 3.88712C25.0966 3.67542 25.2823 3.50663 25.5049 3.4033C25.7275 3.29997 25.9763 3.26702 26.218 3.30885L28.4422 3.80705C28.5183 3.82288 28.5918 3.84986 28.6601 3.88712L25.1994 1.85428ZM19.0164 39.9978C18.9112 39.9132 18.8375 39.7957 18.8073 39.6642L18.0645 37.1999C18.0354 37.0953 17.9838 36.9983 17.9133 36.9158C17.8428 36.8333 17.7551 36.7672 17.6562 36.7223C17.5574 36.6773 17.45 36.6546 17.3415 36.6556C17.2329 36.6567 17.1259 36.6815 17.028 36.7283C16.5935 36.9058 16.1477 37.0544 15.6936 37.1732C15.5374 37.2105 15.3875 37.2704 15.2487 37.3511L15.3466 37.6669C15.388 37.8254 15.4882 37.9622 15.6268 38.0495L19.0164 39.9978ZM14.8039 3.88712C14.7302 3.84679 14.6477 3.82539 14.5637 3.82484C14.4145 3.82656 14.2708 3.88181 14.1589 3.98053L10.8672 6.56495C10.8201 6.60028 10.7768 6.64054 10.7382 6.68505C10.7054 6.71338 10.677 6.74635 10.6537 6.78291C10.5347 6.93959 10.4374 7.11167 10.3646 7.29446C10.3646 7.33449 10.3379 7.37897 10.3245 7.41901C10.2636 7.58864 10.235 7.76817 10.24 7.94835L10.4358 11.0621C10.4351 11.61 10.2555 12.1426 9.92421 12.5789C9.38152 13.2239 8.87442 13.9134 8.39847 14.5984C8.21367 14.8491 7.96256 15.0432 7.67341 15.1589C7.5803 15.1973 7.48337 15.2256 7.38427 15.2434C7.33851 15.2495 7.29214 15.2495 7.24638 15.2434C7.18427 15.2721 7.11835 15.2915 7.05065 15.3013L4.93775 15.1989H4.88437C4.82673 15.1924 4.76853 15.1924 4.71089 15.1989C4.65829 15.2055 4.60626 15.2159 4.5552 15.2301C4.49595 15.2484 4.43799 15.2707 4.38172 15.2968C4.27229 15.3484 4.16928 15.4126 4.07479 15.4881C3.93198 15.6108 3.81677 15.7624 3.73673 15.9329L1.74837 20.3811C1.66409 20.5698 1.65147 20.7828 1.71287 20.9801C1.77428 21.1774 1.90551 21.3456 2.08199 21.4532L4.43065 22.7876C4.50777 22.9811 4.52633 23.193 4.48403 23.397C4.32365 24.0988 4.20041 24.8085 4.11483 25.5233C4.03344 26.0665 3.78645 26.5713 3.40756 26.9689L3.37197 27.0001L0.489525 29.6468C0.436481 29.6933 0.388744 29.7455 0.347182 29.8025V29.8292C0.298736 29.8864 0.259696 29.9509 0.231527 30.0204C0.0430261 30.3425 -0.0336107 30.7178 0.0135652 31.088L0.565144 34.264C0.572899 34.3521 0.599569 34.4374 0.643329 34.5141C0.687088 34.5909 0.746906 34.6573 0.818694 34.7089L4.26607 36.6972C4.19988 36.6473 4.14447 36.5846 4.10319 36.5127C4.0619 36.4409 4.0356 36.3614 4.02586 36.2791L3.47873 33.0986C3.44667 32.8953 3.4588 32.6874 3.51432 32.4892C3.58134 32.1756 3.73553 31.8873 3.95914 31.6574L6.83714 28.9884L6.87272 28.9573C7.25487 28.5608 7.50502 28.0559 7.58889 27.5116C7.66835 26.8163 7.78566 26.1258 7.9403 25.4432C7.99021 25.2087 7.95937 24.9641 7.85277 24.7493C7.74618 24.5345 7.5701 24.3621 7.35313 24.26L5.64502 23.5349C5.54083 23.4909 5.44649 23.4265 5.36751 23.3456C5.28853 23.2646 5.2265 23.1687 5.18507 23.0635C5.14364 22.9583 5.12364 22.8458 5.12624 22.7328C5.12883 22.6197 5.15398 22.5083 5.20019 22.4051L7.18855 17.9568C7.26485 17.7841 7.38065 17.6318 7.52661 17.512C7.77478 17.3019 8.09114 17.1896 8.41626 17.1962L10.5336 17.2985C10.7449 17.3077 10.9553 17.2665 11.1475 17.1784C11.4314 17.0666 11.6792 16.8789 11.8636 16.6357C12.3396 15.9374 12.8511 15.2568 13.3894 14.6118C13.729 14.173 13.9093 13.6319 13.9009 13.0771L13.723 9.96339C13.7133 9.77897 13.7405 9.59447 13.8031 9.42071C13.8993 9.08799 14.0893 8.78998 14.3502 8.5622L17.6196 5.95999C17.7054 5.87837 17.8144 5.82551 17.9316 5.80877C18.0488 5.79203 18.1683 5.81224 18.2735 5.86658L14.8039 3.88712ZM9.87083 37.0976C9.93747 36.8559 9.94054 36.6012 9.87975 36.358C9.81896 36.1149 9.69637 35.8915 9.52386 35.7097C9.31797 35.4917 9.12911 35.2582 8.95894 35.0113C8.8996 34.917 8.82219 34.8354 8.73118 34.7711C8.64016 34.7068 8.53732 34.6611 8.42859 34.6368C8.31987 34.6124 8.20739 34.6097 8.09763 34.629C7.98787 34.6482 7.883 34.689 7.78906 34.7489L6.12542 35.8432L4.91551 39.1126C4.85311 39.2719 4.84829 39.4479 4.9019 39.6104C4.9555 39.7728 5.06415 39.9114 5.20909 40.0022L8.68315 42.0039C8.53622 41.915 8.42589 41.7765 8.37207 41.6133C8.31824 41.4502 8.32444 41.2732 8.38957 41.1143L9.87083 37.0976Z" fill="#687CBB"/>
<path opacity="0.7" d="M29.6209 7.19215C29.5255 7.14252 29.4178 7.12118 29.3107 7.13063C29.2035 7.14009 29.1013 7.17995 29.016 7.24553L27.766 8.06845L27.5125 8.8202C27.4444 9.06137 27.4401 9.31611 27.5002 9.55942C27.5602 9.80272 27.6825 10.0262 27.855 10.208C28.0534 10.4278 28.2362 10.6612 28.4021 10.9064C28.4618 11.0004 28.5395 11.0816 28.6307 11.1455C28.7219 11.2093 28.8248 11.2545 28.9335 11.2785C29.0422 11.3025 29.1545 11.3047 29.2641 11.2852C29.3737 11.2656 29.4783 11.2245 29.572 11.1644L32.4856 9.24723C32.5687 9.18285 32.668 9.14291 32.7725 9.13191C32.877 9.12091 32.9826 9.13928 33.0772 9.18495L29.6209 7.19215ZM25.1371 17.8679C24.7279 15.5103 23.2244 14.3093 21.2716 14.4872C21.4617 14.9304 21.5976 15.3949 21.6764 15.8706C22.3214 19.6383 19.9505 24.945 16.3919 27.7563C15.3331 28.6606 14.0356 29.2398 12.6554 29.4244C13.8253 31.9376 16.7834 32.1734 19.8571 29.7535C23.4157 26.9467 25.7821 21.6355 25.1371 17.8901V17.8679ZM25.1994 1.85428C25.1283 1.80993 25.05 1.77832 24.9681 1.76087L22.7751 1.26711C22.5332 1.22332 22.2837 1.25538 22.0607 1.3589C21.8378 1.46242 21.6523 1.63234 21.5296 1.84538L19.4656 5.82654C19.3536 6.02925 19.2024 6.20766 19.0208 6.35143C18.9135 6.44372 18.7955 6.52286 18.6694 6.58719L19.3144 8.73568C19.3441 8.83984 19.3961 8.93629 19.4667 9.01837C19.5374 9.10045 19.625 9.16619 19.7236 9.21103C19.8222 9.25588 19.9294 9.27877 20.0377 9.2781C20.146 9.27744 20.2528 9.25324 20.3508 9.20719C20.7858 9.03091 21.2315 8.88233 21.6853 8.76237C21.971 8.67968 22.2372 8.54052 22.4682 8.35313C22.6506 8.20841 22.8019 8.02837 22.913 7.82379L24.9725 3.88712C25.0966 3.67542 25.2823 3.50663 25.5049 3.4033C25.7275 3.29997 25.9763 3.26702 26.218 3.30885L28.4422 3.80705C28.5183 3.82288 28.5918 3.84986 28.6601 3.88712L25.1994 1.85428ZM19.0164 39.9978C18.9112 39.9132 18.8375 39.7957 18.8073 39.6642L18.0645 37.1999C18.0354 37.0953 17.9838 36.9983 17.9133 36.9158C17.8428 36.8333 17.7551 36.7672 17.6562 36.7223C17.5574 36.6773 17.45 36.6546 17.3415 36.6556C17.2329 36.6567 17.1259 36.6815 17.028 36.7283C16.5935 36.9058 16.1477 37.0544 15.6936 37.1732C15.5374 37.2105 15.3875 37.2704 15.2487 37.3511L15.3466 37.6669C15.388 37.8254 15.4882 37.9622 15.6268 38.0495L19.0164 39.9978ZM14.8039 3.88712C14.7302 3.84679 14.6477 3.82539 14.5637 3.82484C14.4145 3.82656 14.2708 3.88181 14.1589 3.98053L10.8672 6.56495C10.8201 6.60028 10.7768 6.64054 10.7382 6.68505C10.7054 6.71338 10.677 6.74635 10.6537 6.78291C10.5347 6.93959 10.4374 7.11167 10.3646 7.29446C10.3646 7.33449 10.3379 7.37897 10.3245 7.41901C10.2636 7.58864 10.235 7.76817 10.24 7.94835L10.4358 11.0621C10.4351 11.61 10.2555 12.1426 9.92421 12.5789C9.38152 13.2239 8.87442 13.9134 8.39847 14.5984C8.21367 14.8491 7.96256 15.0432 7.67341 15.1589C7.5803 15.1973 7.48337 15.2256 7.38427 15.2434C7.33851 15.2495 7.29214 15.2495 7.24638 15.2434C7.18427 15.2721 7.11835 15.2915 7.05065 15.3013L4.93775 15.1989H4.88437C4.82673 15.1924 4.76853 15.1924 4.71089 15.1989C4.65829 15.2055 4.60626 15.2159 4.5552 15.2301C4.49595 15.2484 4.43799 15.2707 4.38172 15.2968C4.27229 15.3484 4.16928 15.4126 4.07479 15.4881C3.93198 15.6108 3.81677 15.7624 3.73673 15.9329L1.74837 20.3811C1.66409 20.5698 1.65147 20.7828 1.71287 20.9801C1.77428 21.1774 1.90551 21.3456 2.08199 21.4532L4.43065 22.7876C4.50777 22.9811 4.52633 23.193 4.48403 23.397C4.32365 24.0988 4.20041 24.8085 4.11483 25.5233C4.03344 26.0665 3.78645 26.5713 3.40756 26.9689L3.37197 27.0001L0.489525 29.6468C0.436481 29.6933 0.388744 29.7455 0.347182 29.8025V29.8292C0.298736 29.8864 0.259696 29.9509 0.231527 30.0204C0.0430261 30.3425 -0.0336107 30.7178 0.0135652 31.088L0.565144 34.264C0.572899 34.3521 0.599569 34.4374 0.643329 34.5141C0.687088 34.5909 0.746906 34.6573 0.818694 34.7089L4.26607 36.6972C4.19988 36.6473 4.14447 36.5846 4.10319 36.5127C4.0619 36.4409 4.0356 36.3614 4.02586 36.2791L3.47873 33.0986C3.44667 32.8953 3.4588 32.6874 3.51432 32.4892C3.58134 32.1756 3.73553 31.8873 3.95914 31.6574L6.83714 28.9884L6.87272 28.9573C7.25487 28.5608 7.50502 28.0559 7.58889 27.5116C7.66835 26.8163 7.78566 26.1258 7.9403 25.4432C7.99021 25.2087 7.95937 24.9641 7.85277 24.7493C7.74618 24.5345 7.5701 24.3621 7.35313 24.26L5.64502 23.5349C5.54083 23.4909 5.44649 23.4265 5.36751 23.3456C5.28853 23.2646 5.2265 23.1687 5.18507 23.0635C5.14364 22.9583 5.12364 22.8458 5.12624 22.7328C5.12883 22.6197 5.15398 22.5083 5.20019 22.4051L7.18855 17.9568C7.26485 17.7841 7.38065 17.6318 7.52661 17.512C7.77478 17.3019 8.09114 17.1896 8.41626 17.1962L10.5336 17.2985C10.7449 17.3077 10.9553 17.2665 11.1475 17.1784C11.4314 17.0666 11.6792 16.8789 11.8636 16.6357C12.3396 15.9374 12.8511 15.2568 13.3894 14.6118C13.729 14.173 13.9093 13.6319 13.9009 13.0771L13.723 9.96339C13.7133 9.77897 13.7405 9.59447 13.8031 9.42071C13.8993 9.08799 14.0893 8.78998 14.3502 8.5622L17.6196 5.95999C17.7054 5.87837 17.8144 5.82551 17.9316 5.80877C18.0488 5.79203 18.1683 5.81224 18.2735 5.86658L14.8039 3.88712ZM9.87083 37.0976C9.93747 36.8559 9.94054 36.6012 9.87975 36.358C9.81896 36.1149 9.69637 35.8915 9.52386 35.7097C9.31797 35.4917 9.12911 35.2582 8.95894 35.0113C8.8996 34.917 8.82219 34.8354 8.73118 34.7711C8.64016 34.7068 8.53732 34.6611 8.42859 34.6368C8.31987 34.6124 8.20739 34.6097 8.09763 34.629C7.98787 34.6482 7.883 34.689 7.78906 34.7489L6.12542 35.8432L4.91551 39.1126C4.85311 39.2719 4.84829 39.4479 4.9019 39.6104C4.9555 39.7728 5.06415 39.9114 5.20909 40.0022L8.68315 42.0039C8.53622 41.915 8.42589 41.7765 8.37207 41.6133C8.31824 41.4502 8.32444 41.2732 8.38957 41.1143L9.87083 37.0976Z" fill="white"/>
<path opacity="0.05" d="M29.6209 7.19215C29.5255 7.14252 29.4178 7.12118 29.3107 7.13063C29.2035 7.14009 29.1013 7.17995 29.016 7.24553L27.766 8.06845L27.5125 8.8202C27.4444 9.06137 27.4401 9.31611 27.5002 9.55942C27.5602 9.80272 27.6825 10.0262 27.855 10.208C28.0534 10.4278 28.2362 10.6612 28.4021 10.9064C28.4618 11.0004 28.5395 11.0816 28.6307 11.1455C28.7219 11.2093 28.8248 11.2545 28.9335 11.2785C29.0422 11.3025 29.1545 11.3047 29.2641 11.2852C29.3737 11.2656 29.4783 11.2245 29.572 11.1644L32.4856 9.24723C32.5687 9.18285 32.668 9.14291 32.7725 9.13191C32.877 9.12091 32.9826 9.13928 33.0772 9.18495L29.6209 7.19215ZM25.1371 17.8679C24.7279 15.5103 23.2244 14.3093 21.2716 14.4872C21.4617 14.9304 21.5976 15.3949 21.6764 15.8706C22.3214 19.6383 19.9505 24.945 16.3919 27.7563C15.3331 28.6606 14.0356 29.2398 12.6554 29.4244C13.8253 31.9376 16.7834 32.1734 19.8571 29.7535C23.4157 26.9467 25.7821 21.6355 25.1371 17.8901V17.8679ZM25.1994 1.85428C25.1283 1.80993 25.05 1.77832 24.9681 1.76087L22.7751 1.26711C22.5332 1.22332 22.2837 1.25538 22.0607 1.3589C21.8378 1.46242 21.6523 1.63234 21.5296 1.84538L19.4656 5.82654C19.3536 6.02925 19.2024 6.20766 19.0208 6.35143C18.9135 6.44372 18.7955 6.52286 18.6694 6.58719L19.3144 8.73568C19.3441 8.83984 19.3961 8.93629 19.4667 9.01837C19.5374 9.10045 19.625 9.16619 19.7236 9.21103C19.8222 9.25588 19.9294 9.27877 20.0377 9.2781C20.146 9.27744 20.2528 9.25324 20.3508 9.20719C20.7858 9.03091 21.2315 8.88233 21.6853 8.76237C21.971 8.67968 22.2372 8.54052 22.4682 8.35313C22.6506 8.20841 22.8019 8.02837 22.913 7.82379L24.9725 3.88712C25.0966 3.67542 25.2823 3.50663 25.5049 3.4033C25.7275 3.29997 25.9763 3.26702 26.218 3.30885L28.4422 3.80705C28.5183 3.82288 28.5918 3.84986 28.6601 3.88712L25.1994 1.85428ZM19.0164 39.9978C18.9112 39.9132 18.8375 39.7957 18.8073 39.6642L18.0645 37.1999C18.0354 37.0953 17.9838 36.9983 17.9133 36.9158C17.8428 36.8333 17.7551 36.7672 17.6562 36.7223C17.5574 36.6773 17.45 36.6546 17.3415 36.6556C17.2329 36.6567 17.1259 36.6815 17.028 36.7283C16.5935 36.9058 16.1477 37.0544 15.6936 37.1732C15.5374 37.2105 15.3875 37.2704 15.2487 37.3511L15.3466 37.6669C15.388 37.8254 15.4882 37.9622 15.6268 38.0495L19.0164 39.9978ZM14.8039 3.88712C14.7302 3.84679 14.6477 3.82539 14.5637 3.82484C14.4145 3.82656 14.2708 3.88181 14.1589 3.98053L10.8672 6.56495C10.8201 6.60028 10.7768 6.64054 10.7382 6.68505C10.7054 6.71338 10.677 6.74635 10.6537 6.78291C10.5347 6.93959 10.4374 7.11167 10.3646 7.29446C10.3646 7.33449 10.3379 7.37897 10.3245 7.41901C10.2636 7.58864 10.235 7.76817 10.24 7.94835L10.4358 11.0621C10.4351 11.61 10.2555 12.1426 9.92421 12.5789C9.38152 13.2239 8.87442 13.9134 8.39847 14.5984C8.21367 14.8491 7.96256 15.0432 7.67341 15.1589C7.5803 15.1973 7.48337 15.2256 7.38427 15.2434C7.33851 15.2495 7.29214 15.2495 7.24638 15.2434C7.18427 15.2721 7.11835 15.2915 7.05065 15.3013L4.93775 15.1989H4.88437C4.82673 15.1924 4.76853 15.1924 4.71089 15.1989C4.65829 15.2055 4.60626 15.2159 4.5552 15.2301C4.49595 15.2484 4.43799 15.2707 4.38172 15.2968C4.27229 15.3484 4.16928 15.4126 4.07479 15.4881C3.93198 15.6108 3.81677 15.7624 3.73673 15.9329L1.74837 20.3811C1.66409 20.5698 1.65147 20.7828 1.71287 20.9801C1.77428 21.1774 1.90551 21.3456 2.08199 21.4532L4.43065 22.7876C4.50777 22.9811 4.52633 23.193 4.48403 23.397C4.32365 24.0988 4.20041 24.8085 4.11483 25.5233C4.03344 26.0665 3.78645 26.5713 3.40756 26.9689L3.37197 27.0001L0.489525 29.6468C0.436481 29.6933 0.388744 29.7455 0.347182 29.8025V29.8292C0.298736 29.8864 0.259696 29.9509 0.231527 30.0204C0.0430261 30.3425 -0.0336107 30.7178 0.0135652 31.088L0.565144 34.264C0.572899 34.3521 0.599569 34.4374 0.643329 34.5141C0.687088 34.5909 0.746906 34.6573 0.818694 34.7089L4.26607 36.6972C4.19988 36.6473 4.14447 36.5846 4.10319 36.5127C4.0619 36.4409 4.0356 36.3614 4.02586 36.2791L3.47873 33.0986C3.44667 32.8953 3.4588 32.6874 3.51432 32.4892C3.58134 32.1756 3.73553 31.8873 3.95914 31.6574L6.83714 28.9884L6.87272 28.9573C7.25487 28.5608 7.50502 28.0559 7.58889 27.5116C7.66835 26.8163 7.78566 26.1258 7.9403 25.4432C7.99021 25.2087 7.95937 24.9641 7.85277 24.7493C7.74618 24.5345 7.5701 24.3621 7.35313 24.26L5.64502 23.5349C5.54083 23.4909 5.44649 23.4265 5.36751 23.3456C5.28853 23.2646 5.2265 23.1687 5.18507 23.0635C5.14364 22.9583 5.12364 22.8458 5.12624 22.7328C5.12883 22.6197 5.15398 22.5083 5.20019 22.4051L7.18855 17.9568C7.26485 17.7841 7.38065 17.6318 7.52661 17.512C7.77478 17.3019 8.09114 17.1896 8.41626 17.1962L10.5336 17.2985C10.7449 17.3077 10.9553 17.2665 11.1475 17.1784C11.4314 17.0666 11.6792 16.8789 11.8636 16.6357C12.3396 15.9374 12.8511 15.2568 13.3894 14.6118C13.729 14.173 13.9093 13.6319 13.9009 13.0771L13.723 9.96339C13.7133 9.77897 13.7405 9.59447 13.8031 9.42071C13.8993 9.08799 14.0893 8.78998 14.3502 8.5622L17.6196 5.95999C17.7054 5.87837 17.8144 5.82551 17.9316 5.80877C18.0488 5.79203 18.1683 5.81224 18.2735 5.86658L14.8039 3.88712ZM9.87083 37.0976C9.93747 36.8559 9.94054 36.6012 9.87975 36.358C9.81896 36.1149 9.69637 35.8915 9.52386 35.7097C9.31797 35.4917 9.12911 35.2582 8.95894 35.0113C8.8996 34.917 8.82219 34.8354 8.73118 34.7711C8.64016 34.7068 8.53732 34.6611 8.42859 34.6368C8.31987 34.6124 8.20739 34.6097 8.09763 34.629C7.98787 34.6482 7.883 34.689 7.78906 34.7489L6.12542 35.8432L4.91551 39.1126C4.85311 39.2719 4.84829 39.4479 4.9019 39.6104C4.9555 39.7728 5.06415 39.9114 5.20909 40.0022L8.68315 42.0039C8.53622 41.915 8.42589 41.7765 8.37207 41.6133C8.31824 41.4502 8.32444 41.2732 8.38957 41.1143L9.87083 37.0976Z" fill="black"/>
<path d="M6.8289 29.0417L3.9509 31.7106C3.72729 31.9405 3.5731 32.2288 3.50607 32.5424L0.0498047 30.5496C0.0902292 30.3952 0.148447 30.2459 0.223287 30.1048C0.251456 30.0353 0.290494 29.9708 0.33894 29.9135V29.8869C0.380501 29.8299 0.428239 29.7777 0.481283 29.7312L3.36373 27.0845L6.8289 29.0417Z" fill="#687CBB"/>
<path d="M11.1385 17.183C10.9463 17.2711 10.7359 17.3122 10.5247 17.3031L8.40733 17.2008C8.08221 17.1941 7.76585 17.3064 7.51769 17.5166L4.07031 15.5193C4.1648 15.4438 4.26781 15.3796 4.37724 15.3281C4.43351 15.302 4.49147 15.2797 4.55072 15.2613C4.60178 15.2471 4.65381 15.2367 4.70641 15.2302C4.76405 15.2236 4.82225 15.2236 4.87989 15.2302H4.93327L7.05062 15.3014C7.11409 15.31 7.17843 15.31 7.2419 15.3014C7.28778 15.3053 7.33391 15.3053 7.37979 15.3014C7.4732 15.2791 7.56217 15.2435 7.65558 15.2124L11.1385 17.183Z" fill="#687CBB"/>
<path d="M33.0779 9.18042C32.9828 9.13439 32.8765 9.11663 32.7716 9.12925C32.6668 9.14186 32.5677 9.18433 32.4863 9.2516L29.5727 11.1688C29.3821 11.2882 29.1519 11.3272 28.9326 11.2772C28.7133 11.2271 28.5228 11.0922 28.4028 10.9019C28.2311 10.6563 28.0407 10.4243 27.8334 10.208C27.6609 10.0262 27.5387 9.80264 27.4786 9.55934C27.4186 9.31603 27.4228 9.06129 27.4909 8.82012L27.7667 8.07726L29.0167 7.2499C29.1019 7.18432 29.2042 7.14446 29.3114 7.135C29.4185 7.12554 29.5262 7.14688 29.6216 7.19652L33.0779 9.18042Z" fill="#687CBB"/>
<path d="M28.6558 3.88707C28.5875 3.84981 28.514 3.82283 28.4378 3.807L26.2137 3.3088C25.9719 3.26697 25.7231 3.29992 25.5006 3.40325C25.278 3.50658 25.0923 3.67537 24.9682 3.88707L22.9309 7.82375C22.8198 8.02832 22.6685 8.20836 22.4861 8.35309L19.0254 6.35139C19.207 6.20762 19.3582 6.0292 19.4702 5.8265L21.5342 1.88982C21.6568 1.67677 21.8424 1.50686 22.0653 1.40334C22.2883 1.29982 22.5378 1.26776 22.7797 1.31155L24.9727 1.8053C25.0546 1.82275 25.1329 1.85437 25.204 1.89871L28.6558 3.88707Z" fill="#687CBB"/>
<path d="M18.2732 5.88375C18.168 5.8294 18.0485 5.8092 17.9313 5.82594C17.8141 5.84268 17.7051 5.89554 17.6193 5.97716L14.3321 8.56157C14.0711 8.78936 13.8812 9.08737 13.7849 9.42008L10.3242 7.42728C10.3242 7.38724 10.3554 7.34276 10.3643 7.30273C10.4364 7.11684 10.5337 6.94173 10.6534 6.78229C10.6766 6.74572 10.7051 6.71276 10.7379 6.68443C10.7765 6.63991 10.8197 6.59965 10.8669 6.56432L14.1675 3.97991C14.2794 3.88118 14.423 3.82594 14.5723 3.82422C14.6563 3.82476 14.7388 3.84616 14.8125 3.88649L18.2732 5.88375Z" fill="#687CBB"/>
<path opacity="0.9" d="M6.8289 29.0417L3.9509 31.7106C3.72729 31.9405 3.5731 32.2288 3.50607 32.5424L0.0498047 30.5496C0.0902292 30.3952 0.148447 30.2459 0.223287 30.1048C0.251456 30.0353 0.290494 29.9708 0.33894 29.9135V29.8869C0.380501 29.8299 0.428239 29.7777 0.481283 29.7312L3.36373 27.0845L6.8289 29.0417Z" fill="white"/>
<path opacity="0.9" d="M11.1385 17.183C10.9463 17.2711 10.7359 17.3122 10.5247 17.3031L8.40733 17.2008C8.08221 17.1941 7.76585 17.3064 7.51769 17.5166L4.07031 15.5193C4.1648 15.4438 4.26781 15.3796 4.37724 15.3281C4.43351 15.302 4.49147 15.2797 4.55072 15.2613C4.60178 15.2471 4.65381 15.2367 4.70641 15.2302C4.76405 15.2236 4.82225 15.2236 4.87989 15.2302H4.93327L7.05062 15.3014C7.11409 15.31 7.17843 15.31 7.2419 15.3014C7.28778 15.3053 7.33391 15.3053 7.37979 15.3014C7.4732 15.2791 7.56217 15.2435 7.65558 15.2124L11.1385 17.183Z" fill="white"/>
<path opacity="0.9" d="M33.0779 9.18042C32.9828 9.13439 32.8765 9.11663 32.7716 9.12925C32.6668 9.14186 32.5677 9.18433 32.4863 9.2516L29.5727 11.1688C29.3821 11.2882 29.1519 11.3272 28.9326 11.2772C28.7133 11.2271 28.5228 11.0922 28.4028 10.9019C28.2311 10.6563 28.0407 10.4243 27.8334 10.208C27.6609 10.0262 27.5387 9.80264 27.4786 9.55934C27.4186 9.31603 27.4228 9.06129 27.4909 8.82012L27.7667 8.07726L29.0167 7.2499C29.1019 7.18432 29.2042 7.14446 29.3114 7.135C29.4185 7.12554 29.5262 7.14688 29.6216 7.19652L33.0779 9.18042Z" fill="white"/>
<path opacity="0.9" d="M28.6558 3.88707C28.5875 3.84981 28.514 3.82283 28.4378 3.807L26.2137 3.3088C25.9719 3.26697 25.7231 3.29992 25.5006 3.40325C25.278 3.50658 25.0923 3.67537 24.9682 3.88707L22.9309 7.82375C22.8198 8.02832 22.6685 8.20836 22.4861 8.35309L19.0254 6.35139C19.207 6.20762 19.3582 6.0292 19.4702 5.8265L21.5342 1.88982C21.6568 1.67677 21.8424 1.50686 22.0653 1.40334C22.2883 1.29982 22.5378 1.26776 22.7797 1.31155L24.9727 1.8053C25.0546 1.82275 25.1329 1.85437 25.204 1.89871L28.6558 3.88707Z" fill="white"/>
<path opacity="0.9" d="M18.2732 5.88375C18.168 5.8294 18.0485 5.8092 17.9313 5.82594C17.8141 5.84268 17.7051 5.89554 17.6193 5.97716L14.3321 8.56157C14.0711 8.78936 13.8812 9.08737 13.7849 9.42008L10.3242 7.42728C10.3242 7.38724 10.3554 7.34276 10.3643 7.30273C10.4364 7.11684 10.5337 6.94173 10.6534 6.78229C10.6766 6.74572 10.7051 6.71276 10.7379 6.68443C10.7765 6.63991 10.8197 6.59965 10.8669 6.56432L14.1675 3.97991C14.2794 3.88118 14.423 3.82594 14.5723 3.82422C14.6563 3.82476 14.7388 3.84616 14.8125 3.88649L18.2732 5.88375Z" fill="white"/>
<path d="M33.9002 12.8058L33.353 9.6253C33.3486 9.52687 33.3166 9.43167 33.2606 9.35059C33.2045 9.26952 33.1268 9.20585 33.0363 9.16686C32.9459 9.12788 32.8462 9.11516 32.7488 9.13015C32.6514 9.14515 32.5602 9.18725 32.4856 9.25165L29.5721 11.1688C29.4778 11.2286 29.3727 11.2691 29.2628 11.288C29.1529 11.3069 29.0403 11.3038 28.9315 11.279C28.8228 11.2542 28.72 11.2081 28.6292 11.1434C28.5383 11.0787 28.4612 10.9966 28.4022 10.9019C28.2293 10.6572 28.039 10.4253 27.8328 10.208C27.6603 10.0262 27.5381 9.8027 27.478 9.55939C27.418 9.31609 27.4222 9.06135 27.4903 8.82018L28.976 4.81677C29.0175 4.71596 29.0361 4.60716 29.0303 4.49829C29.0245 4.38941 28.9946 4.28318 28.9426 4.18734C28.8906 4.09149 28.8179 4.00842 28.7299 3.94417C28.6418 3.87993 28.5405 3.83612 28.4333 3.81592L26.2403 3.32662C25.9989 3.28242 25.7497 3.31381 25.5268 3.41651C25.3039 3.51921 25.1181 3.68821 24.9948 3.90044L22.9309 7.82377C22.6446 8.28041 22.1993 8.61479 21.6809 8.76235C21.2266 8.88039 20.7807 9.029 20.3464 9.20717C20.2484 9.25322 20.1416 9.27742 20.0333 9.27808C19.925 9.27874 19.8178 9.25586 19.7192 9.21101C19.6206 9.16616 19.533 9.10042 19.4623 9.01835C19.3917 8.93627 19.3397 8.83981 19.31 8.73566L18.5494 6.27134C18.5354 6.17037 18.4936 6.07528 18.4285 5.99682C18.3635 5.91835 18.2778 5.85962 18.1811 5.82725C18.0845 5.79488 17.9807 5.79015 17.8815 5.8136C17.7823 5.83705 17.6916 5.88774 17.6197 5.95997L14.3324 8.54439C14.1342 8.72269 13.977 8.94191 13.8718 9.18691C13.7666 9.43191 13.7158 9.69683 13.723 9.96337L13.9188 13.0771C13.9215 13.6242 13.7414 14.1564 13.4072 14.5895C12.869 15.2345 12.3574 15.924 11.8815 16.6135C11.7249 16.8204 11.5235 16.9891 11.2924 17.107C11.0612 17.2248 10.8064 17.2888 10.547 17.294L8.42965 17.1873C8.17037 17.1864 7.91624 17.2597 7.69717 17.3984C7.4781 17.5371 7.3032 17.7354 7.19305 17.9702L5.20469 22.4184C5.15848 22.5216 5.13333 22.633 5.13074 22.7461C5.12814 22.8592 5.14814 22.9716 5.18957 23.0768C5.231 23.1821 5.29303 23.278 5.37201 23.3589C5.45099 23.4399 5.54533 23.5042 5.64952 23.5482L7.35763 24.2733C7.57029 24.3754 7.74297 24.5453 7.84846 24.7563C7.95396 24.9673 7.98628 25.2074 7.94035 25.4387C7.77785 26.1401 7.65459 26.8499 7.57115 27.565C7.49051 28.1093 7.24165 28.6148 6.85943 29.0107L3.94585 31.6796C3.76339 31.8682 3.6249 32.0948 3.54031 32.3432C3.45571 32.5916 3.42711 32.8556 3.45654 33.1164L4.00367 36.2924C4.00355 36.3955 4.03378 36.4964 4.09062 36.5824C4.14745 36.6684 4.22837 36.7358 4.32326 36.7761C4.41815 36.8165 4.52282 36.8279 4.62419 36.8092C4.72557 36.7904 4.81918 36.7421 4.89332 36.6705L7.8069 34.7533C7.90085 34.6934 8.00572 34.6526 8.11547 34.6334C8.22523 34.6141 8.33771 34.6168 8.44644 34.6412C8.55517 34.6656 8.658 34.7112 8.74902 34.7755C8.84004 34.8398 8.91745 34.9214 8.97679 35.0158C9.14696 35.2627 9.33582 35.4961 9.54171 35.7141C9.7142 35.8959 9.83646 36.1194 9.89651 36.3628C9.95655 36.6061 9.95232 36.8608 9.88422 37.102L8.39852 41.1054C8.35779 41.206 8.33987 41.3143 8.34606 41.4226C8.35224 41.531 8.38236 41.6366 8.43426 41.7319C8.48616 41.8272 8.55855 41.9098 8.64621 41.9737C8.73387 42.0377 8.83461 42.0814 8.9412 42.1018L11.1386 42.5955C11.3805 42.6393 11.63 42.6073 11.853 42.5037C12.076 42.4002 12.2615 42.2303 12.3841 42.0173L14.4481 38.085C14.7314 37.6275 15.1757 37.2927 15.6936 37.1465C16.1483 37.0296 16.5942 36.881 17.0281 36.7016C17.1267 36.6556 17.2341 36.6316 17.343 36.6312C17.4518 36.6308 17.5594 36.654 17.6584 36.6993C17.7574 36.7445 17.8454 36.8107 17.9162 36.8933C17.9871 36.9759 18.0392 37.0729 18.069 37.1776L18.8118 39.6419C18.829 39.7405 18.8729 39.8325 18.9388 39.9079C19.0046 39.9833 19.0899 40.0392 19.1853 40.0695C19.2808 40.0997 19.3826 40.1033 19.4799 40.0796C19.5772 40.056 19.6661 40.0062 19.737 39.9355L23.0287 37.3466C23.2266 37.1731 23.3847 36.9588 23.4922 36.7185C23.5997 36.4782 23.654 36.2176 23.6515 35.9543L23.4557 32.8406C23.4522 32.2915 23.627 31.7561 23.954 31.3148C24.4966 30.6698 25.0037 29.9804 25.4841 29.2953C25.6396 29.0872 25.8407 28.9176 26.0721 28.7996C26.3035 28.6816 26.5589 28.6184 26.8186 28.6148L28.9315 28.7215C29.1879 28.7299 29.4415 28.6654 29.6627 28.5355C29.884 28.4056 30.0638 28.2156 30.1815 27.9876L32.1698 23.5393C32.2167 23.4362 32.2423 23.3247 32.2452 23.2115C32.2481 23.0983 32.2282 22.9856 32.1867 22.8802C32.1452 22.7748 32.083 22.6788 32.0037 22.598C31.9243 22.5171 31.8296 22.453 31.725 22.4095L30.0169 21.68C29.7997 21.5793 29.6233 21.4078 29.5166 21.1936C29.4099 20.9793 29.3792 20.7352 29.4297 20.5012C29.5908 19.7998 29.7126 19.0899 29.7945 18.375C29.876 17.8322 30.1248 17.3284 30.5062 16.9337L33.4242 14.2648C33.6074 14.0725 33.7452 13.8417 33.8276 13.5892C33.91 13.3368 33.9348 13.0691 33.9002 12.8058ZM19.8482 29.7491C16.2897 32.5514 12.869 31.7908 12.224 28.0454C11.579 24.3 13.9454 18.9888 17.5129 16.1909C21.0804 13.3929 24.4922 14.1491 25.1372 17.8946C25.7822 21.64 23.4157 26.9467 19.8482 29.7491Z" fill="#687CBB"/>
<path opacity="0.75" d="M33.9002 12.8058L33.353 9.6253C33.3486 9.52687 33.3166 9.43167 33.2606 9.35059C33.2045 9.26952 33.1268 9.20585 33.0363 9.16686C32.9459 9.12788 32.8462 9.11516 32.7488 9.13015C32.6514 9.14515 32.5602 9.18725 32.4856 9.25165L29.5721 11.1688C29.4778 11.2286 29.3727 11.2691 29.2628 11.288C29.1529 11.3069 29.0403 11.3038 28.9315 11.279C28.8228 11.2542 28.72 11.2081 28.6292 11.1434C28.5383 11.0787 28.4612 10.9966 28.4022 10.9019C28.2293 10.6572 28.039 10.4253 27.8328 10.208C27.6603 10.0262 27.5381 9.8027 27.478 9.55939C27.418 9.31609 27.4222 9.06135 27.4903 8.82018L28.976 4.81677C29.0175 4.71596 29.0361 4.60716 29.0303 4.49829C29.0245 4.38941 28.9946 4.28318 28.9426 4.18734C28.8906 4.09149 28.8179 4.00842 28.7299 3.94417C28.6418 3.87993 28.5405 3.83612 28.4333 3.81592L26.2403 3.32662C25.9989 3.28242 25.7497 3.31381 25.5268 3.41651C25.3039 3.51921 25.1181 3.68821 24.9948 3.90044L22.9309 7.82377C22.6446 8.28041 22.1993 8.61479 21.6809 8.76235C21.2266 8.88039 20.7807 9.029 20.3464 9.20717C20.2484 9.25322 20.1416 9.27742 20.0333 9.27808C19.925 9.27874 19.8178 9.25586 19.7192 9.21101C19.6206 9.16616 19.533 9.10042 19.4623 9.01835C19.3917 8.93627 19.3397 8.83981 19.31 8.73566L18.5494 6.27134C18.5354 6.17037 18.4936 6.07528 18.4285 5.99682C18.3635 5.91835 18.2778 5.85962 18.1811 5.82725C18.0845 5.79488 17.9807 5.79015 17.8815 5.8136C17.7823 5.83705 17.6916 5.88774 17.6197 5.95997L14.3324 8.54439C14.1342 8.72269 13.977 8.94191 13.8718 9.18691C13.7666 9.43191 13.7158 9.69683 13.723 9.96337L13.9188 13.0771C13.9215 13.6242 13.7414 14.1564 13.4072 14.5895C12.869 15.2345 12.3574 15.924 11.8815 16.6135C11.7249 16.8204 11.5235 16.9891 11.2924 17.107C11.0612 17.2248 10.8064 17.2888 10.547 17.294L8.42965 17.1873C8.17037 17.1864 7.91624 17.2597 7.69717 17.3984C7.4781 17.5371 7.3032 17.7354 7.19305 17.9702L5.20469 22.4184C5.15848 22.5216 5.13333 22.633 5.13074 22.7461C5.12814 22.8592 5.14814 22.9716 5.18957 23.0768C5.231 23.1821 5.29303 23.278 5.37201 23.3589C5.45099 23.4399 5.54533 23.5042 5.64952 23.5482L7.35763 24.2733C7.57029 24.3754 7.74297 24.5453 7.84846 24.7563C7.95396 24.9673 7.98628 25.2074 7.94035 25.4387C7.77785 26.1401 7.65459 26.8499 7.57115 27.565C7.49051 28.1093 7.24165 28.6148 6.85943 29.0107L3.94585 31.6796C3.76339 31.8682 3.6249 32.0948 3.54031 32.3432C3.45571 32.5916 3.42711 32.8556 3.45654 33.1164L4.00367 36.2924C4.00355 36.3955 4.03378 36.4964 4.09062 36.5824C4.14745 36.6684 4.22837 36.7358 4.32326 36.7761C4.41815 36.8165 4.52282 36.8279 4.62419 36.8092C4.72557 36.7904 4.81918 36.7421 4.89332 36.6705L7.8069 34.7533C7.90085 34.6934 8.00572 34.6526 8.11547 34.6334C8.22523 34.6141 8.33771 34.6168 8.44644 34.6412C8.55517 34.6656 8.658 34.7112 8.74902 34.7755C8.84004 34.8398 8.91745 34.9214 8.97679 35.0158C9.14696 35.2627 9.33582 35.4961 9.54171 35.7141C9.7142 35.8959 9.83646 36.1194 9.89651 36.3628C9.95655 36.6061 9.95232 36.8608 9.88422 37.102L8.39852 41.1054C8.35779 41.206 8.33987 41.3143 8.34606 41.4226C8.35224 41.531 8.38236 41.6366 8.43426 41.7319C8.48616 41.8272 8.55855 41.9098 8.64621 41.9737C8.73387 42.0377 8.83461 42.0814 8.9412 42.1018L11.1386 42.5955C11.3805 42.6393 11.63 42.6073 11.853 42.5037C12.076 42.4002 12.2615 42.2303 12.3841 42.0173L14.4481 38.085C14.7314 37.6275 15.1757 37.2927 15.6936 37.1465C16.1483 37.0296 16.5942 36.881 17.0281 36.7016C17.1267 36.6556 17.2341 36.6316 17.343 36.6312C17.4518 36.6308 17.5594 36.654 17.6584 36.6993C17.7574 36.7445 17.8454 36.8107 17.9162 36.8933C17.9871 36.9759 18.0392 37.0729 18.069 37.1776L18.8118 39.6419C18.829 39.7405 18.8729 39.8325 18.9388 39.9079C19.0046 39.9833 19.0899 40.0392 19.1853 40.0695C19.2808 40.0997 19.3826 40.1033 19.4799 40.0796C19.5772 40.056 19.6661 40.0062 19.737 39.9355L23.0287 37.3466C23.2266 37.1731 23.3847 36.9588 23.4922 36.7185C23.5997 36.4782 23.654 36.2176 23.6515 35.9543L23.4557 32.8406C23.4522 32.2915 23.627 31.7561 23.954 31.3148C24.4966 30.6698 25.0037 29.9804 25.4841 29.2953C25.6396 29.0872 25.8407 28.9176 26.0721 28.7996C26.3035 28.6816 26.5589 28.6184 26.8186 28.6148L28.9315 28.7215C29.1879 28.7299 29.4415 28.6654 29.6627 28.5355C29.884 28.4056 30.0638 28.2156 30.1815 27.9876L32.1698 23.5393C32.2167 23.4362 32.2423 23.3247 32.2452 23.2115C32.2481 23.0983 32.2282 22.9856 32.1867 22.8802C32.1452 22.7748 32.083 22.6788 32.0037 22.598C31.9243 22.5171 31.8296 22.453 31.725 22.4095L30.0169 21.68C29.7997 21.5793 29.6233 21.4078 29.5166 21.1936C29.4099 20.9793 29.3792 20.7352 29.4297 20.5012C29.5908 19.7998 29.7126 19.0899 29.7945 18.375C29.876 17.8322 30.1248 17.3284 30.5062 16.9337L33.4242 14.2648C33.6074 14.0725 33.7452 13.8417 33.8276 13.5892C33.91 13.3368 33.9348 13.0691 33.9002 12.8058ZM19.8482 29.7491C16.2897 32.5514 12.869 31.7908 12.224 28.0454C11.579 24.3 13.9454 18.9888 17.5129 16.1909C21.0804 13.3929 24.4922 14.1491 25.1372 17.8946C25.7822 21.64 23.4157 26.9467 19.8482 29.7491Z" fill="white"/>
</svg>
