<svg width="27" height="40" viewBox="0 0 27 40" fill="none" xmlns="http://www.w3.org/2000/svg">
<path d="M14.461 39.3338L12.3629 35.3934L14.0549 30.5129V27.5049L8.88867 30.5129V33.5209L11.1071 37.3711C11.1414 37.4312 11.1942 37.4786 11.2575 37.5065L14.461 39.3338Z" fill="#263238"/>
<path d="M26.8088 3.80925C26.7801 3.27142 26.6248 2.74796 26.3557 2.28146C26.0865 1.81496 25.711 1.4186 25.2597 1.12462L23.9963 0.372615C23.5166 0.127704 22.9858 0 22.4472 0C21.9086 0 21.3777 0.127704 20.8981 0.372615L1.54912 11.5624C1.09825 11.8568 0.723045 12.2533 0.453913 12.7197C0.18478 13.1861 0.029289 13.7093 0 14.247V35.5361C0.0274997 36.0742 0.182232 36.5981 0.451526 37.0648C0.72082 37.5315 1.09699 37.9277 1.54912 38.2208L2.80495 38.9728C3.28593 39.2178 3.81805 39.3455 4.35783 39.3455C4.8976 39.3455 5.42973 39.2178 5.91071 38.9728L12.1297 35.3782L14.3482 39.2209C14.3798 39.2765 14.427 39.3217 14.4838 39.351C14.5407 39.3804 14.6048 39.3926 14.6685 39.3862C14.7322 39.3799 14.7926 39.3552 14.8425 39.3152C14.8924 39.2752 14.9297 39.2215 14.9497 39.1608L17.2885 32.3928L25.2597 27.7755C25.7105 27.4811 26.0857 27.0846 26.3549 26.6182C26.624 26.1518 26.7795 25.6285 26.8088 25.0909V3.80925Z" fill="#37474F"/>
<path d="M0 35.5587C0.0274997 36.0969 0.182232 36.6208 0.451526 37.0875C0.72082 37.5541 1.09699 37.9503 1.54912 38.2434L2.80495 38.9954C3.2413 39.2169 3.71983 39.3428 4.20868 39.3649C4.69753 39.3869 5.18548 39.3045 5.64 39.1232C4.888 39.4015 4.35406 38.9879 4.35406 38.1005V16.7888C4.37933 16.2571 4.53702 15.7401 4.8128 15.2848L0.451182 12.7656C0.178633 13.2219 0.0236157 13.7387 0 14.2696V35.5587Z" fill="#263238"/>
<path d="M26.7558 3.36557C26.5754 2.71133 26.0038 2.50076 25.2518 2.91436L5.88783 14.1041C5.43216 14.3916 5.05695 14.7901 4.79742 15.2622L0.443359 12.7505C0.696327 12.2736 1.07295 11.8736 1.53375 11.5924L20.9278 0.39517C21.41 0.154236 21.9417 0.0288086 22.4807 0.0288086C23.0198 0.0288086 23.5514 0.154236 24.0336 0.39517L25.297 1.14717C25.6757 1.40108 25.9998 1.72812 26.2504 2.10909C26.5009 2.49005 26.6727 2.91724 26.7558 3.36557Z" fill="#455A64"/>
<path d="M6.55001 25.3841C6.54478 25.2351 6.57039 25.0866 6.62522 24.9479C6.68757 24.8034 6.76308 24.665 6.85081 24.5343L11.062 17.7663C11.0808 17.7358 11.1035 17.708 11.1297 17.6836H11.1748C11.1959 17.6629 11.2243 17.6514 11.2538 17.6514C11.2833 17.6514 11.3116 17.6629 11.3327 17.6836C11.3567 17.7112 11.3744 17.7436 11.3848 17.7786C11.3952 17.8136 11.398 17.8505 11.3929 17.8867V20.5111C11.4001 20.7014 11.3587 20.8903 11.2726 21.0601C11.21 21.1847 11.1397 21.3053 11.062 21.4211L8.88872 24.7299L11.062 25.7225C11.1378 25.7452 11.209 25.7808 11.2726 25.8278C11.3553 25.8729 11.3929 26.0083 11.3929 26.2263V28.0913C11.3954 28.1875 11.3747 28.2829 11.3327 28.3695C11.2985 28.4456 11.2438 28.5107 11.1748 28.5575H11.1297H11.062L6.85081 26.6174C6.7645 26.5863 6.68707 26.5347 6.62522 26.467C6.56358 26.36 6.53726 26.2363 6.55001 26.1135V25.3841Z" fill="white"/>
<path d="M16.3712 14.6455C16.4104 14.4981 16.4633 14.3545 16.5291 14.2169C16.5988 14.0798 16.7056 13.9652 16.8374 13.886L18.2436 13.0738C18.2667 13.0542 18.2961 13.0435 18.3264 13.0435C18.3567 13.0435 18.386 13.0542 18.4091 13.0738C18.4338 13.1027 18.4525 13.1361 18.4641 13.1723C18.4757 13.2084 18.48 13.2466 18.4768 13.2844C18.4831 13.3368 18.4831 13.3899 18.4768 13.4423L14.9123 28.6101C14.8739 28.7496 14.8236 28.8854 14.7619 29.0162C14.6961 29.1622 14.5855 29.2834 14.446 29.3621L13.0699 30.1593C13.0468 30.1789 13.0175 30.1896 12.9872 30.1896C12.9569 30.1896 12.9275 30.1789 12.9044 30.1593C12.8797 30.1304 12.861 30.0969 12.8494 30.0608C12.8378 30.0246 12.8335 29.9865 12.8368 29.9487C12.8305 29.8963 12.8305 29.8432 12.8368 29.7908L16.3712 14.6455Z" fill="white"/>
<path d="M24.5 17.0971C24.5031 17.2466 24.4749 17.3952 24.4173 17.5332C24.355 17.6777 24.2795 17.8162 24.1917 17.9468L19.9805 24.7525C19.9639 24.7823 19.9408 24.808 19.9128 24.8276H19.8677C19.8466 24.8483 19.8183 24.8599 19.7888 24.8599C19.7592 24.8599 19.7309 24.8483 19.7098 24.8276C19.6645 24.7702 19.6429 24.6975 19.6496 24.6246V22.0001C19.6414 21.8122 19.6829 21.6254 19.77 21.4587C19.8527 21.3158 19.9204 21.203 19.9805 21.1128L22.0034 18.1574L19.9805 17.4054C19.9052 17.3816 19.8342 17.3461 19.77 17.3001C19.6872 17.24 19.6496 17.1046 19.6496 16.8865V14.4425C19.6518 14.3468 19.6722 14.2524 19.7098 14.1643C19.7441 14.0882 19.7987 14.0232 19.8677 13.9763H19.9128C19.9348 13.9688 19.9586 13.9688 19.9805 13.9763L24.1917 15.9165C24.278 15.9475 24.3555 15.9991 24.4173 16.0668C24.4821 16.1728 24.5111 16.2967 24.5 16.4203V17.0971Z" fill="white"/>
</svg>
