<svg width="51" height="45" viewBox="0 0 51 45" fill="none" xmlns="http://www.w3.org/2000/svg">
<path d="M49.132 13.5997L43.9074 10.5894C43.2081 10.1232 42.2757 10.1273 41.2428 10.7221L40.869 10.9391C40.9725 10.2068 41.0249 9.46821 41.0258 8.72865C41.0344 7.74559 40.9197 6.76534 40.6841 5.81087L43.3769 5.15578L38.2085 2.16967C36.7898 1.36588 34.937 1.42616 32.9114 2.59568C30.8859 3.76521 28.9367 5.93144 27.5019 8.47545C27.4856 7.17383 27.2826 5.88127 26.899 4.63733L29.2501 3.73707L24.2546 0.863503C22.4259 -0.342191 19.9784 -0.322096 17.2816 1.23325C11.6269 4.50872 7.03723 13.2701 7.03723 20.8177C7.03357 21.6534 7.09673 22.488 7.22613 23.3135L6.51878 23.7154C2.9017 25.7932 0 31.3515 0 36.1743C0 38.8228 0.89221 40.7117 2.29484 41.5276L7.51951 44.5458L8.38359 40.1249L15.9955 35.7282L41.2508 21.1553C43.397 19.9215 45.1332 16.6179 45.1613 13.7524L48.1996 15.3841L49.132 13.5997Z" fill="#687CBB"/>
<path opacity="0.1" d="M49.132 13.5997L43.9074 10.5894C43.2081 10.1232 42.2757 10.1273 41.2428 10.7221L40.869 10.9391C40.9725 10.2068 41.0249 9.46821 41.0258 8.72865C41.0344 7.74559 40.9197 6.76534 40.6841 5.81087L43.3769 5.15578L38.2085 2.16967C36.7898 1.36588 34.937 1.42616 32.9114 2.59568C30.8859 3.76521 28.9367 5.93144 27.5019 8.47545C27.4856 7.17383 27.2826 5.88127 26.899 4.63733L29.2501 3.73707L24.2546 0.863503C22.4259 -0.342191 19.9784 -0.322096 17.2816 1.23325C11.6269 4.50872 7.03723 13.2701 7.03723 20.8177C7.03357 21.6534 7.09673 22.488 7.22613 23.3135L6.51878 23.7154C2.9017 25.7932 0 31.3515 0 36.1743C0 38.8228 0.89221 40.7117 2.29484 41.5276L7.51951 44.5458L8.38359 40.1249L15.9955 35.7282L41.2508 21.1553C43.397 19.9215 45.1332 16.6179 45.1613 13.7524L48.1996 15.3841L49.132 13.5997Z" fill="white"/>
<path d="M38.2255 2.16963C36.8068 1.36583 34.954 1.42612 32.9285 2.59564C31.9418 3.18271 31.0421 3.90511 30.2559 4.74178L36.9233 8.61608L40.8901 6.81557C40.8378 6.46592 40.7735 6.12833 40.6932 5.81083L43.3778 5.15573L38.2255 2.16963Z" fill="#687CBB"/>
<path d="M27.132 5.46948C27.0636 5.18413 26.9873 4.90682 26.8989 4.64157L28.9084 3.88198L29.1415 3.66898L24.2745 0.855691C22.4458 -0.350004 19.9983 -0.329909 17.3015 1.22544C14.7334 2.70844 12.3903 5.3248 10.5898 8.4596L18.6921 13.1337L27.132 5.46948Z" fill="#687CBB"/>
<path d="M7.22612 23.314L5.07999 24.7688C3.12485 26.5988 1.66481 28.8939 0.835938 31.4403L6.93676 34.961L12.4307 26.3403L7.22612 23.314Z" fill="#687CBB"/>
<path opacity="0.4" d="M38.2255 2.16963C36.8068 1.36583 34.954 1.42612 32.9285 2.59564C31.9418 3.18271 31.0421 3.90511 30.2559 4.74178L36.9233 8.61608L40.8901 6.81557C40.8378 6.46592 40.7735 6.12833 40.6932 5.81083L43.3778 5.15573L38.2255 2.16963Z" fill="white"/>
<path opacity="0.4" d="M27.132 5.46948C27.0636 5.18413 26.9873 4.90682 26.8989 4.64157L28.9084 3.88198L29.1415 3.66898L24.2745 0.855691C22.4458 -0.350004 19.9983 -0.329909 17.3015 1.22544C14.7334 2.70844 12.3903 5.3248 10.5898 8.4596L18.6921 13.1337L27.132 5.46948Z" fill="white"/>
<path opacity="0.4" d="M7.22612 23.314L5.07999 24.7688C3.12485 26.5988 1.66481 28.8939 0.835938 31.4403L6.93676 34.961L12.4307 26.3403L7.22612 23.314Z" fill="white"/>
<path d="M46.467 13.7407L46.0932 13.9577C46.1967 13.2241 46.2491 12.4841 46.25 11.7432C46.25 5.77505 42.6329 3.03008 38.1397 5.61429C36.0618 6.81998 34.1689 8.95004 32.7341 11.49C32.5332 4.30008 28.0279 1.06078 22.4978 4.25587C16.8511 7.51928 12.2534 16.2927 12.2534 23.8283C12.2452 24.669 12.3044 25.5089 12.4302 26.3402L11.7229 26.7421C8.1058 28.8199 5.2041 34.3781 5.2041 39.2009C5.2041 44.0036 8.12188 46.3145 11.7229 44.2327L21.2037 38.7628L46.467 24.1699C48.6292 22.924 50.3775 19.5762 50.3775 16.6986C50.3775 13.817 48.6292 12.4948 46.467 13.7407Z" fill="#687CBB"/>
<path opacity="0.6" d="M46.467 13.7407L46.0932 13.9577C46.1967 13.2241 46.2491 12.4841 46.25 11.7432C46.25 5.77505 42.6329 3.03008 38.1397 5.61429C36.0618 6.81998 34.1689 8.95004 32.7341 11.49C32.5332 4.30008 28.0279 1.06078 22.4978 4.25587C16.8511 7.51928 12.2534 16.2927 12.2534 23.8283C12.2452 24.669 12.3044 25.5089 12.4302 26.3402L11.7229 26.7421C8.1058 28.8199 5.2041 34.3781 5.2041 39.2009C5.2041 44.0036 8.12188 46.3145 11.7229 44.2327L21.2037 38.7628L46.467 24.1699C48.6292 22.924 50.3775 19.5762 50.3775 16.6986C50.3775 13.817 48.6292 12.4948 46.467 13.7407Z" fill="white"/>
</svg>
