<svg width="231" height="231" viewBox="0 0 231 231" fill="none" xmlns="http://www.w3.org/2000/svg">
<mask id="mask0_198_944" style="mask-type:alpha" maskUnits="userSpaceOnUse" x="0" y="0" width="232" height="232">
<rect width="231.001" height="231.001" fill="#D9D9D9"/>
</mask>
<g mask="url(#mask0_198_944)">
<path d="M115.5 211.751C102.346 211.751 89.9138 209.224 78.2034 204.171C66.4929 199.118 56.2663 192.22 47.5236 183.477C38.7808 174.734 31.8829 164.508 26.8297 152.797C21.7766 141.087 19.25 128.655 19.25 115.5C19.25 102.186 21.7766 89.7133 26.8297 78.0831C31.8829 66.4528 38.7808 56.2663 47.5236 47.5236C56.2663 38.7808 66.4929 31.8829 78.2034 26.8297C89.9138 21.7766 102.346 19.25 115.5 19.25C128.815 19.25 141.287 21.7766 152.918 26.8297C164.548 31.8829 174.734 38.7808 183.477 47.5236C192.22 56.2663 199.118 66.4528 204.171 78.0831C209.224 89.7133 211.751 102.186 211.751 115.5C211.751 128.655 209.224 141.087 204.171 152.797C199.118 164.508 192.22 174.734 183.477 183.477C174.734 192.22 164.548 199.118 152.918 204.171C141.287 209.224 128.815 211.751 115.5 211.751ZM115.5 192.019C119.671 186.244 123.281 180.229 126.329 173.973C129.377 167.716 131.863 161.059 133.788 154.001H97.2128C99.1378 161.059 101.624 167.716 104.672 173.973C107.72 180.229 111.33 186.244 115.5 192.019ZM90.4753 188.169C87.5878 182.876 85.0612 177.381 82.8956 171.687C80.7299 165.992 78.9253 160.096 77.4815 154.001H49.0876C53.7397 162.021 59.5549 169 66.533 174.935C73.5112 180.87 81.4919 185.282 90.4753 188.169ZM140.526 188.169C149.509 185.282 157.49 180.87 164.468 174.935C171.446 169 177.261 162.021 181.913 154.001H153.519C152.076 160.096 150.271 165.992 148.105 171.687C145.94 177.381 143.413 182.876 140.526 188.169ZM40.9063 134.75H73.6315C73.1502 131.542 72.7893 128.374 72.5487 125.246C72.308 122.118 72.1877 118.869 72.1877 115.5C72.1877 112.132 72.308 108.883 72.5487 105.755C72.7893 102.627 73.1502 99.4587 73.6315 96.2503H40.9063C40.1043 99.4587 39.5027 102.627 39.1016 105.755C38.7006 108.883 38.5001 112.132 38.5001 115.5C38.5001 118.869 38.7006 122.118 39.1016 125.246C39.5027 128.374 40.1043 131.542 40.9063 134.75ZM92.8816 134.75H138.119C138.601 131.542 138.961 128.374 139.202 125.246C139.443 122.118 139.563 118.869 139.563 115.5C139.563 112.132 139.443 108.883 139.202 105.755C138.961 102.627 138.601 99.4587 138.119 96.2503H92.8816C92.4003 99.4587 92.0394 102.627 91.7987 105.755C91.5581 108.883 91.4378 112.132 91.4378 115.5C91.4378 118.869 91.5581 122.118 91.7987 125.246C92.0394 128.374 92.4003 131.542 92.8816 134.75ZM157.369 134.75H190.094C190.897 131.542 191.498 128.374 191.899 125.246C192.3 122.118 192.501 118.869 192.501 115.5C192.501 112.132 192.3 108.883 191.899 105.755C191.498 102.627 190.897 99.4587 190.094 96.2503H157.369C157.851 99.4587 158.212 102.627 158.452 105.755C158.693 108.883 158.813 112.132 158.813 115.5C158.813 118.869 158.693 122.118 158.452 125.246C158.212 128.374 157.851 131.542 157.369 134.75ZM153.519 77.0002H181.913C177.261 68.9794 171.446 62.0012 164.468 56.0658C157.49 50.1303 149.509 45.7189 140.526 42.8313C143.413 48.1251 145.94 53.6194 148.105 59.3142C150.271 65.009 152.076 70.9044 153.519 77.0002ZM97.2128 77.0002H133.788C131.863 69.9419 129.377 63.2846 126.329 57.0283C123.281 50.772 119.671 44.7564 115.5 38.9813C111.33 44.7564 107.72 50.772 104.672 57.0283C101.624 63.2846 99.1378 69.9419 97.2128 77.0002ZM49.0876 77.0002H77.4815C78.9253 70.9044 80.7299 65.009 82.8956 59.3142C85.0612 53.6194 87.5878 48.1251 90.4753 42.8313C81.4919 45.7189 73.5112 50.1303 66.533 56.0658C59.5549 62.0012 53.7397 68.9794 49.0876 77.0002Z" fill="#687CBB" fill-opacity="0.2"/>
</g>
</svg>
