<svg width="48" height="46" viewBox="0 0 48 46" fill="none" xmlns="http://www.w3.org/2000/svg">
<g clip-path="url(#clip0_131_128)">
<path d="M39.3061 16.2123C39.3053 15.9875 39.3001 15.7638 39.2901 15.5412V2.85126L35.7818 6.35951C32.9105 2.84491 28.5425 0.600098 23.65 0.600098C18.5584 0.600098 14.0351 3.03039 11.1758 6.79407L16.9262 12.605C17.4898 11.5628 18.2904 10.6676 19.2556 9.99149C20.2596 9.20805 21.6821 8.56748 23.6498 8.56748C23.8875 8.56748 24.071 8.59526 24.2058 8.64759C26.6438 8.84002 28.7571 10.1855 30.0014 12.1384L25.931 16.2088C31.0867 16.1886 36.9111 16.1767 39.3056 16.2114" fill="#1C3AA9"/>
<path d="M23.5585 0.600586C23.3337 0.601333 23.11 0.606522 22.8874 0.616602H10.1975L13.7057 4.12485C10.1911 6.99616 7.94629 11.3642 7.94629 16.2567C7.94629 21.3482 10.3766 25.8715 14.1403 28.7309L19.9512 22.9804C18.909 22.4169 18.0138 21.6163 17.3377 20.651C16.5543 19.6471 15.9137 18.2246 15.9137 16.2569C15.9137 16.0192 15.9414 15.8357 15.9938 15.7009C16.1862 13.2629 17.5317 11.1496 19.4846 9.90525L23.555 13.9757C23.5348 8.81997 23.5229 2.99559 23.5576 0.601034" fill="#4285F4"/>
<path d="M7.94678 16.2563C7.94752 16.4812 7.95271 16.7049 7.96279 16.9275V29.6174L11.471 26.1092C14.3424 29.6238 18.7104 31.8686 23.6029 31.8686C28.6944 31.8686 33.2177 29.4383 36.0771 25.6746L30.3266 19.8637C29.7631 20.9059 28.9625 21.8011 27.9972 22.4772C26.9933 23.2606 25.5708 23.9012 23.6031 23.9012C23.3654 23.9012 23.1819 23.8734 23.0471 23.8211C20.609 23.6287 18.4958 22.2832 17.2514 20.3303L21.3219 16.2599C16.1662 16.2801 10.3418 16.292 7.94723 16.2573" fill="#ABABAB"/>
<path d="M10.5886 37.9317C10.2072 37.9317 9.86529 38.0041 9.56282 38.1487C9.26036 38.2901 9.00394 38.4923 8.79353 38.7553C8.58641 39.0183 8.42697 39.3372 8.31518 39.7119C8.20669 40.0834 8.15244 40.4993 8.15244 40.9595V42.2861C8.15244 42.7496 8.20669 43.1671 8.31518 43.5386C8.42695 43.9101 8.58476 44.2274 8.7886 44.4904C8.99244 44.7534 9.23899 44.9555 9.52829 45.0969C9.81758 45.2383 10.1431 45.309 10.5047 45.309C10.8762 45.309 11.2017 45.2547 11.4811 45.1462C11.7638 45.0378 12.0005 44.8816 12.1912 44.6778C12.3819 44.4707 12.5282 44.2208 12.6301 43.9282C12.7353 43.6356 12.7978 43.3036 12.8175 42.9321H11.9052C11.8822 43.2181 11.8427 43.463 11.7868 43.6668C11.731 43.8674 11.6488 44.0334 11.5403 44.1649C11.4351 44.2931 11.297 44.3884 11.126 44.4509C10.9584 44.5101 10.7512 44.5397 10.5047 44.5397C10.2417 44.5397 10.0181 44.4821 9.83403 44.3671C9.64993 44.2487 9.50035 44.0876 9.38529 43.8838C9.27351 43.68 9.19132 43.4416 9.13872 43.1688C9.08941 42.8959 9.06475 42.6017 9.06475 42.286V40.9497C9.06475 40.6111 9.09434 40.3036 9.15351 40.0275C9.21598 39.7513 9.30967 39.5163 9.4346 39.3223C9.55953 39.1283 9.71733 38.9787 9.90803 38.8736C10.0987 38.7651 10.3256 38.7108 10.5885 38.7108C10.8088 38.7108 10.9978 38.7437 11.1556 38.8094C11.3134 38.8719 11.4449 38.9705 11.5501 39.1053C11.6553 39.2368 11.7359 39.4045 11.7918 39.6083C11.8477 39.8121 11.8855 40.0554 11.9052 40.3381H12.8175C12.8011 39.9502 12.7402 39.6067 12.635 39.3075C12.5298 39.0083 12.3835 38.7568 12.1962 38.553C12.0088 38.3492 11.7803 38.1946 11.5107 38.0894C11.2444 37.9842 10.937 37.9316 10.5885 37.9316L10.5886 37.9317ZM32.8586 37.9317C32.4773 37.9317 32.1354 38.0041 31.8329 38.1487C31.5304 38.2901 31.274 38.4923 31.0636 38.7553C30.8565 39.0183 30.697 39.3372 30.5853 39.7119C30.4768 40.0834 30.4225 40.4993 30.4225 40.9595V42.2861C30.4225 42.7496 30.4768 43.1671 30.5853 43.5386C30.697 43.9101 30.8548 44.2274 31.0587 44.4904C31.2625 44.7534 31.5091 44.9555 31.7984 45.0969C32.0877 45.2383 32.4131 45.309 32.7748 45.309C33.1463 45.309 33.4717 45.2547 33.7512 45.1462C34.0339 45.0378 34.2706 44.8816 34.4613 44.6778C34.652 44.4707 34.7983 44.2208 34.9002 43.9282C35.0054 43.6356 35.0679 43.3036 35.0876 42.9321H34.1753C34.1523 43.2181 34.1129 43.463 34.057 43.6668C34.0011 43.8674 33.9189 44.0334 33.8104 44.1649C33.7052 44.2931 33.5671 44.3884 33.3961 44.4509C33.2285 44.5101 33.0214 44.5397 32.7748 44.5397C32.5118 44.5397 32.2882 44.4821 32.1042 44.3671C31.9201 44.2487 31.7705 44.0876 31.6554 43.8838C31.5436 43.68 31.4614 43.4416 31.4088 43.1688C31.3595 42.8959 31.3349 42.6017 31.3349 42.286V40.9497C31.3349 40.6111 31.3645 40.3036 31.4236 40.0275C31.4861 39.7513 31.5798 39.5163 31.7047 39.3223C31.8297 39.1283 31.9875 38.9787 32.1781 38.8736C32.3688 38.7651 32.5956 38.7108 32.8586 38.7108C33.0789 38.7108 33.2679 38.7437 33.4257 38.8094C33.5835 38.8719 33.715 38.9705 33.8202 39.1053C33.9254 39.2368 34.006 39.4045 34.0619 39.6083C34.1177 39.8121 34.1555 40.0554 34.1753 40.3381H35.0876C35.0711 39.9502 35.0103 39.6067 34.9051 39.3075C34.7999 39.0083 34.6536 38.7568 34.4662 38.553C34.2788 38.3491 34.0503 38.1946 33.7808 38.0894C33.5145 37.9842 33.2071 37.9316 32.8586 37.9316L32.8586 37.9317ZM15.7865 38.0304L13.4737 45.2103H14.4008L14.958 43.3364H17.3842L17.9513 45.2103H18.8784L16.5607 38.0304H15.7865ZM19.8547 38.0304V45.2103H20.7571V42.3994H22.1428C22.488 42.3994 22.7938 42.3518 23.0601 42.2564C23.3263 42.1578 23.5499 42.0164 23.7307 41.8323C23.9148 41.6482 24.0529 41.4214 24.1449 41.1518C24.2403 40.8789 24.2879 40.5699 24.2879 40.2247C24.2879 39.9058 24.2403 39.6132 24.1449 39.3469C24.0529 39.0773 23.9164 38.8456 23.7356 38.6516C23.5548 38.4543 23.3296 38.3015 23.0601 38.193C22.7938 38.0845 22.488 38.0303 22.1428 38.0303L19.8547 38.0304ZM24.9783 38.0304V38.8095H26.8621V45.2103H27.7645V38.8095H29.6532V38.0304H24.9783ZM36.3056 38.0304V45.2103H37.208V41.8915H40.0978V45.2103H41.0051V38.0304H40.0978V41.1174H37.208V38.0304H36.3056ZM44.4275 38.0304L42.1147 45.2103H43.0418L43.599 43.3364H46.0252L46.5923 45.2103H47.5194L45.2017 38.0304H44.4275ZM20.757 38.8095H22.1427C22.363 38.8095 22.5504 38.8489 22.7049 38.9279C22.8627 39.0067 22.9909 39.1119 23.0895 39.2435C23.1915 39.375 23.2654 39.5278 23.3115 39.7021C23.3608 39.873 23.3854 40.0505 23.3854 40.2347C23.3854 40.4385 23.3608 40.6259 23.3115 40.7968C23.2654 40.9645 23.1915 41.1108 23.0895 41.2357C22.9909 41.3573 22.8627 41.4527 22.7049 41.5217C22.5504 41.5908 22.363 41.6253 22.1427 41.6253H20.757V38.8095ZM16.171 39.2928L17.1523 42.5573H15.1946L16.171 39.2928ZM44.812 39.2928L45.7934 42.5573H43.8356L44.812 39.2928ZM2.33415 39.7761C2.10731 39.7761 1.91169 39.8336 1.74731 39.9487C1.58622 40.0637 1.45143 40.2199 1.34295 40.4171L1.32816 39.8747H0.47998V45.2103H1.35283V41.3934C1.43502 41.1665 1.55173 40.9874 1.70296 40.8559C1.85747 40.7244 2.05308 40.6586 2.2898 40.6586C2.36541 40.6586 2.43281 40.662 2.49198 40.6685C2.55116 40.6718 2.61526 40.68 2.68431 40.6931L2.67937 39.8449C2.66622 39.8383 2.64485 39.8317 2.61526 39.8252C2.58897 39.8153 2.55938 39.8071 2.5265 39.8005C2.49362 39.794 2.45911 39.789 2.42294 39.7857C2.39006 39.7791 2.36048 39.7759 2.33418 39.7759L2.33415 39.7761ZM5.26829 39.7761C5.01515 39.7761 4.77023 39.8204 4.53353 39.9092C4.29683 39.998 4.08643 40.1443 3.90234 40.3481C3.72153 40.5486 3.57523 40.8116 3.46345 41.1371C3.35167 41.4593 3.29578 41.8554 3.29578 42.3256V42.9272C3.29578 43.3348 3.34346 43.6883 3.43879 43.9874C3.53413 44.2866 3.67057 44.5348 3.84808 44.7321C4.0289 44.926 4.24751 45.0707 4.50395 45.166C4.76038 45.2614 5.04805 45.3091 5.36695 45.3091C5.59708 45.3091 5.80255 45.286 5.98336 45.24C6.16746 45.194 6.3302 45.1348 6.47157 45.0625C6.61293 44.9869 6.73457 44.9014 6.83649 44.8061C6.9384 44.7107 7.02552 44.6121 7.09784 44.5102L6.64417 43.9579C6.57184 44.0466 6.49459 44.1288 6.4124 44.2044C6.33021 44.2768 6.2398 44.3409 6.14117 44.3968C6.04255 44.4494 5.93406 44.4905 5.81571 44.52C5.69736 44.5496 5.56421 44.5644 5.41628 44.5644C5.01192 44.5644 4.70123 44.4346 4.48425 44.1748C4.27056 43.9151 4.16371 43.4993 4.16371 42.9272V42.8039H7.14224V42.296C7.14224 41.8884 7.10772 41.5283 7.03868 41.216C6.96965 40.9037 6.85951 40.6407 6.70828 40.427C6.55706 40.2133 6.36309 40.0522 6.12637 39.9437C5.88966 39.832 5.60366 39.7761 5.2683 39.7761L5.26829 39.7761ZM5.26829 40.5256C5.45897 40.5256 5.61677 40.5601 5.74171 40.6292C5.86664 40.6982 5.96527 40.7952 6.0376 40.9201C6.11321 41.0451 6.16745 41.1947 6.20033 41.3689C6.23649 41.5398 6.2595 41.7289 6.26937 41.936V42.0543H4.16862C4.18177 41.7552 4.21793 41.5069 4.27711 41.3097C4.33629 41.1124 4.41354 40.9563 4.50888 40.8412C4.60751 40.7229 4.72093 40.6407 4.84915 40.5947C4.97736 40.5486 5.11708 40.5256 5.26832 40.5256L5.26829 40.5256Z" fill="#A6A6A6"/>
</g>
<defs>
<clipPath id="clip0_131_128">
<rect width="48" height="46" fill="white"/>
</clipPath>
</defs>
</svg>
