<svg width="77" height="77" viewBox="0 0 77 77" fill="none" xmlns="http://www.w3.org/2000/svg">
<mask id="mask0_131_72" style="mask-type:alpha" maskUnits="userSpaceOnUse" x="0" y="0" width="77" height="77">
<rect x="0.00585938" width="76.389" height="76.389" fill="#D9D9D9"/>
</mask>
<g mask="url(#mask0_131_72)">
<path d="M16.5203 35.7025L24.3183 39.0017C25.3058 37.0267 26.3811 35.1149 27.544 33.2664C28.707 31.4179 29.9903 29.6204 31.394 27.8739L26.5096 26.9373C26.1831 26.8557 25.8669 26.8659 25.5609 26.968C25.2548 27.07 24.9794 27.2434 24.7345 27.4882L16.5203 35.7025ZM26.8401 41.0215L35.8501 50.0132C38.3638 48.8788 40.8937 47.4363 43.44 45.6857C45.9863 43.9351 48.4347 41.8846 50.7851 39.5342C54.2128 36.1065 56.8316 32.4513 58.6414 28.5685C60.4511 24.6859 61.4682 20.2023 61.6926 15.1179C56.6082 15.3423 52.1318 16.3594 48.2633 18.1691C44.3949 19.9789 40.7469 22.5976 37.3191 26.0254C34.9687 28.3757 32.9182 30.8343 31.1677 33.401C29.4171 35.9677 27.9746 38.5079 26.8401 41.0215ZM43.3299 33.4622C42.3954 32.5278 41.9282 31.4066 41.9282 30.0988C41.9282 28.7909 42.3954 27.6698 43.3299 26.7354C44.2643 25.8009 45.3987 25.3336 46.7331 25.3336C48.0675 25.3336 49.2019 25.8009 50.1363 26.7354C51.0708 27.6698 51.5381 28.7909 51.5381 30.0988C51.5381 31.4066 51.0708 32.5278 50.1363 33.4622C49.2019 34.3967 48.0675 34.864 46.7331 34.864C45.3987 34.864 44.2643 34.3967 43.3299 33.4622ZM41.108 60.3514L49.3222 52.1372C49.5671 51.8923 49.7405 51.6169 49.8425 51.3108C49.9445 51.0048 49.9547 50.6885 49.8731 50.3621L48.9366 45.4776C47.1901 46.8813 45.3926 48.1616 43.5441 49.3185C41.6956 50.4753 39.7838 51.5475 37.8088 52.535L41.108 60.3514ZM64.6674 12.1859C65.0224 18.0334 64.1951 23.4127 62.1854 28.3237C60.1757 33.2347 57.0448 37.8162 52.7928 42.0682L51.6911 43.17L52.9765 49.701C53.1478 50.5579 53.1152 51.3884 52.8785 52.1922C52.6418 52.9961 52.2133 53.7082 51.5931 54.3284L40.0001 65.8603L34.7239 53.4287L23.3818 42.0866L10.9502 36.7492L22.4637 25.2174C23.0839 24.5971 23.799 24.1584 24.609 23.9013C25.419 23.6443 26.2525 23.6014 27.1094 23.7728L33.7629 25.1194C33.9669 24.9154 34.1403 24.7318 34.2831 24.5685C34.4259 24.4053 34.5994 24.2217 34.8035 24.0177C39.0555 19.7657 43.6339 16.6419 48.5387 14.6465C53.4437 12.6511 58.8199 11.8309 64.6674 12.1859ZM16.2938 51.4577C17.5384 50.2132 19.0513 49.598 20.8325 49.6123C22.6137 49.6266 24.1265 50.256 25.3711 51.5006C26.6157 52.7452 27.2349 54.258 27.2288 56.0392C27.2227 57.8204 26.5973 59.3333 25.3528 60.5779C24.2714 61.6593 22.5361 62.5856 20.1469 63.3568C17.7577 64.1281 14.9941 64.6606 11.8561 64.9544C12.1499 61.8164 12.6926 59.0528 13.4842 56.6635C14.2759 54.2744 15.2124 52.5391 16.2938 51.4577ZM18.5647 53.7714C17.9525 54.3835 17.3812 55.3823 16.8508 56.7676C16.3203 58.153 15.9693 59.5823 15.798 61.0553C17.2711 60.884 18.7003 60.5259 20.0857 59.9811C21.471 59.4364 22.4698 58.8579 23.0819 58.2458C23.7185 57.6093 24.0429 56.8503 24.0551 55.9689C24.0673 55.0874 23.7551 54.3284 23.1186 53.6918C22.482 53.0553 21.723 52.7503 20.8416 52.7768C19.9602 52.8033 19.2012 53.1348 18.5647 53.7714Z" fill="#F5F5F5"/>
</g>
</svg>
