<svg width="77" height="77" viewBox="0 0 77 77" fill="none" xmlns="http://www.w3.org/2000/svg">
<mask id="mask0_206_2542" style="mask-type:alpha" maskUnits="userSpaceOnUse" x="0" y="0" width="77" height="77">
<rect x="0.35498" width="76.389" height="76.389" fill="#D9D9D9"/>
</mask>
<g mask="url(#mask0_206_2542)">
<path d="M32.6115 66.8396L31.4608 57.6338C30.4448 57.3277 29.3461 56.8462 28.1647 56.1892C26.9834 55.5322 25.9786 54.8283 25.1502 54.0775L16.6605 57.6888L10.7231 47.3445L18.0621 41.8111C17.9683 41.2358 17.8908 40.6431 17.8295 40.033C17.7683 39.423 17.7377 38.8303 17.7377 38.2549C17.7377 37.7203 17.7683 37.1582 17.8295 36.5686C17.8908 35.979 17.9683 35.3149 18.0621 34.5763L10.7231 29.043L16.6605 18.821L25.089 22.3712C26.0397 21.5795 27.0681 20.8654 28.1739 20.2289C29.2797 19.5923 30.355 19.1006 31.3997 18.7537L32.6115 9.54785H44.4862L45.6369 18.8149C46.857 19.2433 47.9353 19.7351 48.8718 20.2901C49.8083 20.845 50.7724 21.5387 51.7639 22.3712L60.4373 18.821L66.3746 29.043L58.7908 34.7599C58.9662 35.4169 59.0642 36.0198 59.0845 36.5686C59.105 37.1175 59.1152 37.6592 59.1152 38.1937C59.1152 38.6875 59.0948 39.2088 59.054 39.7576C59.0131 40.3065 58.9193 40.9706 58.7724 41.7499L66.2337 47.3445L60.2965 57.6888L51.7639 54.0163C50.7724 54.8487 49.7747 55.5628 48.7708 56.1586C47.767 56.7544 46.7224 57.2257 45.6369 57.5726L44.4862 66.8396H32.6115ZM38.4632 46.1509C40.683 46.1509 42.5642 45.3797 44.1066 43.8372C45.6491 42.2947 46.4204 40.4136 46.4204 38.1937C46.4204 35.9739 45.6491 34.0927 44.1066 32.5502C42.5642 31.0078 40.683 30.2365 38.4632 30.2365C36.2311 30.2365 34.3468 31.0078 32.8105 32.5502C31.2741 34.0927 30.506 35.9739 30.506 38.1937C30.506 40.4136 31.2741 42.2947 32.8105 43.8372C34.3468 45.3797 36.2311 46.1509 38.4632 46.1509ZM38.4632 42.968C37.137 42.968 36.0097 42.5039 35.0814 41.5755C34.153 40.6472 33.6889 39.5199 33.6889 38.1937C33.6889 36.8675 34.153 35.7403 35.0814 34.8119C36.0097 33.8836 37.137 33.4194 38.4632 33.4194C39.7894 33.4194 40.9166 33.8836 41.845 34.8119C42.7733 35.7403 43.2375 36.8675 43.2375 38.1937C43.2375 39.5199 42.7733 40.6472 41.845 41.5755C40.9166 42.5039 39.7894 42.968 38.4632 42.968ZM35.366 63.6567H41.591L42.7662 55.0384C44.3699 54.6141 45.8134 54.0316 47.0967 53.291C48.38 52.5503 49.6869 51.5353 51.0171 50.2458L58.956 53.6307L62.1205 48.2198L55.1549 42.9864C55.4201 42.0805 55.5956 41.2471 55.6813 40.486C55.767 39.725 55.8098 38.9609 55.8098 38.1937C55.8098 37.3857 55.767 36.6216 55.6813 35.9014C55.5956 35.1812 55.4201 34.3885 55.1549 33.5235L62.2429 28.1677L59.0784 22.7568L50.9559 26.16C49.9929 25.1031 48.7269 24.1125 47.1579 23.1883C45.5889 22.264 44.1046 21.6509 42.705 21.349L41.7317 12.7307H35.3844L34.3927 21.2877C32.7891 21.6305 31.3149 22.1824 29.9704 22.9435C28.6258 23.7045 27.2884 24.7501 25.9581 26.0804L18.0193 22.7568L14.8548 28.1677L21.7592 33.3215C21.494 34.0356 21.3083 34.8109 21.2022 35.6474C21.0961 36.4839 21.0431 37.3531 21.0431 38.2549C21.0431 39.0629 21.0961 39.8647 21.2022 40.6604C21.3083 41.4562 21.4736 42.2315 21.698 42.9864L14.8548 48.2198L18.0193 53.6307L25.8969 50.2886C27.1456 51.5495 28.4422 52.5605 29.7868 53.3215C31.1314 54.0826 32.6463 54.6753 34.3316 55.0997L35.366 63.6567Z" fill="#F5F5F5"/>
</g>
</svg>
