<svg width="138" height="138" viewBox="0 0 138 138" fill="none" xmlns="http://www.w3.org/2000/svg">
<mask id="mask0_153_11" style="mask-type:alpha" maskUnits="userSpaceOnUse" x="0" y="0" width="138" height="138">
<rect width="137.364" height="137.364" fill="#D9D9D9"/>
</mask>
<g mask="url(#mask0_153_11)">
<path d="M52.9426 125.916L50.6532 107.601C49.4131 107.124 48.2445 106.552 47.1475 105.884C46.0505 105.217 44.9774 104.501 43.9281 103.738L26.9007 110.892L11.1611 83.7058L25.8991 72.545C25.8037 71.8772 25.756 71.2333 25.756 70.6133V66.75C25.756 66.1299 25.8037 65.486 25.8991 64.8183L11.1611 53.6575L26.9007 26.4709L43.9281 33.6253C44.9774 32.8621 46.0744 32.1467 47.2191 31.479C48.3638 30.8112 49.5085 30.2389 50.6532 29.7619L52.9426 11.4468H84.4217L86.7111 29.7619C87.9512 30.2389 89.1198 30.8112 90.2168 31.479C91.3138 32.1467 92.3869 32.8621 93.4362 33.6253L110.464 26.4709L126.203 53.6575L111.465 64.8183C111.561 65.486 111.608 66.1299 111.608 66.75V70.6133C111.608 71.2333 111.513 71.8772 111.322 72.545L126.06 83.7058L110.321 110.892L93.4362 103.738C92.3869 104.501 91.2899 105.217 90.1452 105.884C89.0005 106.552 87.8558 107.124 86.7111 107.601L84.4217 125.916H52.9426ZM68.9683 88.7138C74.501 88.7138 79.2229 86.7583 83.1339 82.8473C87.045 78.9362 89.0005 74.2143 89.0005 68.6816C89.0005 63.1489 87.045 58.427 83.1339 54.516C79.2229 50.6049 74.501 48.6494 68.9683 48.6494C63.3402 48.6494 58.5945 50.6049 54.7312 54.516C50.8678 58.427 48.9361 63.1489 48.9361 68.6816C48.9361 74.2143 50.8678 78.9362 54.7312 82.8473C58.5945 86.7583 63.3402 88.7138 68.9683 88.7138ZM68.9683 77.2668C66.5835 77.2668 64.5565 76.4322 62.8871 74.7628C61.2178 73.0935 60.3831 71.0664 60.3831 68.6816C60.3831 66.2968 61.2178 64.2698 62.8871 62.6004C64.5565 60.9311 66.5835 60.0964 68.9683 60.0964C71.3531 60.0964 73.3802 60.9311 75.0495 62.6004C76.7189 64.2698 77.5536 66.2968 77.5536 68.6816C77.5536 71.0664 76.7189 73.0935 75.0495 74.7628C73.3802 76.4322 71.3531 77.2668 68.9683 77.2668ZM62.9587 114.469H74.2626L76.2658 99.3023C79.2229 98.5391 81.9654 97.4183 84.4933 95.9397C87.0211 94.4612 89.3344 92.6726 91.433 90.574L105.599 96.4405L111.179 86.7106L98.8735 77.4099C99.3505 76.0745 99.6844 74.6674 99.8751 73.1889C100.066 71.7103 100.161 70.2079 100.161 68.6816C100.161 67.1554 100.066 65.653 99.8751 64.1744C99.6844 62.6958 99.3505 61.2888 98.8735 59.9533L111.179 50.6526L105.599 40.9227L91.433 46.9324C89.3344 44.7384 87.0211 42.9021 84.4933 41.4235C81.9654 39.945 79.2229 38.8241 76.2658 38.061L74.4056 22.8937H63.1018L61.0985 38.061C58.1414 38.8241 55.3989 39.945 52.871 41.4235C50.3432 42.9021 48.0299 44.6907 45.9313 46.7893L31.7657 40.9227L26.1853 50.6526L38.4908 59.8102C38.0138 61.2411 37.6799 62.672 37.4892 64.1028C37.2984 65.5337 37.203 67.06 37.203 68.6816C37.203 70.2079 37.2984 71.6865 37.4892 73.1173C37.6799 74.5482 38.0138 75.9791 38.4908 77.4099L26.1853 86.7106L31.7657 96.4405L45.9313 90.4309C48.0299 92.6249 50.3432 94.4612 52.871 95.9397C55.3989 97.4183 58.1414 98.5391 61.0985 99.3023L62.9587 114.469Z" fill="#687CBB" fill-opacity="0.2"/>
</g>
</svg>
