<svg width="138" height="138" viewBox="0 0 138 138" fill="none" xmlns="http://www.w3.org/2000/svg">
<mask id="mask0_153_8" style="mask-type:alpha" maskUnits="userSpaceOnUse" x="0" y="0" width="138" height="138">
<rect width="137.364" height="137.364" fill="#D9D9D9"/>
</mask>
<g mask="url(#mask0_153_8)">
<path d="M34.3409 114.47L40.0644 91.5759H20.0322L22.894 80.1289H42.9262L48.6496 57.235H25.7557L28.6175 45.788H51.5114L57.2349 22.894H68.6818L62.9584 45.788H85.8523L91.5758 22.894H103.023L97.2993 45.788H117.331L114.47 57.235H94.4375L88.714 80.1289H111.608L108.746 91.5759H85.8523L80.1288 114.47H68.6818L74.4053 91.5759H51.5114L45.7879 114.47H34.3409ZM54.3731 80.1289H77.2671L82.9906 57.235H60.0966L54.3731 80.1289Z" fill="#687CBB" fill-opacity="0.2"/>
</g>
</svg>
