<svg width="77" height="77" viewBox="0 0 77 77" fill="none" xmlns="http://www.w3.org/2000/svg">
<mask id="mask0_131_76" style="mask-type:alpha" maskUnits="userSpaceOnUse" x="0" y="0" width="77" height="77">
<rect width="76.389" height="76.389" fill="#D9D9D9"/>
</mask>
<g mask="url(#mask0_131_76)">
<path d="M28.7186 67.5752L23.4057 58.6143L13.2939 56.4352L14.2855 46.0051L7.4668 38.1949L14.2855 30.3846L13.2939 19.9545L23.4057 17.7754L28.7186 8.81445L38.1938 12.8176L47.669 8.81445L52.9819 17.7754L63.0937 19.9545L62.1021 30.3846L68.9208 38.1949L62.1021 46.0051L63.0937 56.4352L52.9819 58.6143L47.669 67.5752L38.1938 63.5721L28.7186 67.5752ZM30.0775 63.4987L38.1938 60.1199L46.3469 63.4987L50.9253 55.8598L59.6782 53.9133L58.8825 44.8789L64.7708 38.1949L58.8825 31.4741L59.6782 22.4396L50.9253 20.5299L46.3101 12.891L38.1938 16.2698L30.0407 12.891L25.4623 20.5299L16.7094 22.4396L17.5051 31.4741L11.6168 38.1949L17.5051 44.8789L16.7094 53.9501L25.4623 55.8598L30.0775 63.4987ZM34.8518 47.2906L50.6315 31.5108L48.379 29.2216L34.8518 42.7488L28.0086 35.9423L25.7561 38.1949L34.8518 47.2906Z" fill="#F5F5F5"/>
</g>
</svg>
