<svg width="77" height="77" viewBox="0 0 77 77" fill="none" xmlns="http://www.w3.org/2000/svg">
<mask id="mask0_206_2584" style="mask-type:alpha" maskUnits="userSpaceOnUse" x="0" y="0" width="77" height="77">
<rect width="76.389" height="76.389" fill="#D9D9D9"/>
</mask>
<g mask="url(#mask0_206_2584)">
<path d="M31.5907 42.258L34.0697 34.0437L27.5448 29.2572H35.6978L38.1952 20.9573L40.6925 29.2572H48.8455L42.3023 34.0437L44.7812 42.258L38.1952 37.1593L31.5907 42.258ZM22.2808 68.3086V47.3322C20.265 45.3491 18.7001 43.0272 17.586 40.3667C16.472 37.7061 15.915 34.8599 15.915 31.828C15.915 25.6173 18.0757 20.3512 22.397 16.0299C26.7184 11.7085 31.9845 9.54785 38.1952 9.54785C44.4059 9.54785 49.6719 11.7085 53.9933 16.0299C58.3146 20.3512 60.4753 25.6173 60.4753 31.828C60.4753 34.8599 59.9183 37.7061 58.8043 40.3667C57.6903 43.0272 56.1254 45.3491 54.1095 47.3322V68.3086L38.1952 63.5343L22.2808 68.3086ZM38.1952 50.9252C43.5 50.9252 48.009 49.0685 51.7224 45.3552C55.4357 41.6418 57.2924 37.1328 57.2924 31.828C57.2924 26.5232 55.4357 22.0141 51.7224 18.3008C48.009 14.5874 43.5 12.7307 38.1952 12.7307C32.8904 12.7307 28.3813 14.5874 24.6679 18.3008C20.9546 22.0141 19.0979 26.5232 19.0979 31.828C19.0979 37.1328 20.9546 41.6418 24.6679 45.3552C28.3813 49.0685 32.8904 50.9252 38.1952 50.9252ZM25.4637 63.7975L38.1952 60.229L50.9267 63.7975V50.0132C49.1516 51.319 47.1796 52.3279 45.0108 53.04C42.8419 53.7521 40.5701 54.1081 38.1952 54.1081C35.8203 54.1081 33.5484 53.7521 31.3795 53.04C29.2107 52.3279 27.2388 51.319 25.4637 50.0132V63.7975Z" fill="#F5F5F5"/>
</g>
</svg>
